Merriweather35-BlackDisplay.ufo
<glyph name="ampersand" format="2">
  <advance width="1551"/>
  <unicode hex="0026"/>
  <outline>
    <contour>
      <point x="1529" y="828" type="line"/>
      <point x="1109" y="828" type="line"/>
      <point x="1109" y="780" type="line"/>
      <point x="1225" y="743" type="line"/>
      <point x="1253" y="626"/>
      <point x="1233" y="476"/>
      <point x="1159" y="354" type="curve"/>
      <point x="1088" y="427"/>
      <point x="975" y="575"/>
      <point x="782" y="807" type="curve"/>
      <point x="950" y="888"/>
      <point x="1138" y="988"/>
      <point x="1138" y="1196" type="curve" smooth="yes"/>
      <point x="1138" y="1368"/>
      <point x="988" y="1505"/>
      <point x="719" y="1505" type="curve" smooth="yes"/>
      <point x="435" y="1505"/>
      <point x="223" y="1335"/>
      <point x="223" y="1140" type="curve" smooth="yes"/>
      <point x="223" y="1003"/>
      <point x="269" y="892"/>
      <point x="397" y="725" type="curve"/>
      <point x="186" y="647"/>
      <point x="56" y="518"/>
      <point x="56" y="350" type="curve" smooth="yes"/>
      <point x="56" y="140"/>
      <point x="222" y="-22"/>
      <point x="561" y="-22" type="curve" smooth="yes"/>
      <point x="735" y="-22"/>
      <point x="881" y="29"/>
      <point x="945" y="92" type="curve"/>
      <point x="1041" y="29"/>
      <point x="1165" y="-14"/>
      <point x="1276" y="-14" type="curve" smooth="yes"/>
      <point x="1363" y="-14"/>
      <point x="1475" y="2"/>
      <point x="1489" y="19" type="curve"/>
      <point x="1489" y="62" type="line"/>
      <point x="1405" y="79"/>
      <point x="1252" y="232"/>
      <point x="1201" y="295" type="curve"/>
      <point x="1308" y="400"/>
      <point x="1401" y="553"/>
      <point x="1401" y="743" type="curve"/>
      <point x="1529" y="780" type="line"/>
    </contour>
    <contour>
      <point x="572" y="1207" type="curve" smooth="yes"/>
      <point x="572" y="1369"/>
      <point x="618" y="1447"/>
      <point x="719" y="1447" type="curve" smooth="yes"/>
      <point x="817" y="1447"/>
      <point x="851" y="1343"/>
      <point x="851" y="1204" type="curve" smooth="yes"/>
      <point x="851" y="1052"/>
      <point x="800" y="947"/>
      <point x="727" y="873" type="curve"/>
      <point x="624" y="999"/>
      <point x="572" y="1107"/>
    </contour>
    <contour>
      <point x="697" y="103" type="curve" smooth="yes"/>
      <point x="506" y="103"/>
      <point x="397" y="214"/>
      <point x="397" y="407" type="curve" smooth="yes"/>
      <point x="397" y="507"/>
      <point x="423" y="601"/>
      <point x="462" y="644" type="curve"/>
      <point x="628" y="414"/>
      <point x="762" y="264"/>
      <point x="891" y="134" type="curve"/>
      <point x="846" y="111"/>
      <point x="759" y="103"/>
    </contour>
  </outline>
</glyph>
<glyph name="plus" format="2">
  <advance width="1229"/>
  <unicode hex="002B"/>
  <outline>
    <contour>
      <point x="332" y="720" type="line"/>
      <point x="154" y="720" type="line"/>
      <point x="154" y="634" type="line"/>
      <point x="332" y="634" type="line"/>
      <point x="571" y="634" type="line"/>
      <point x="571" y="433" type="line"/>
      <point x="571" y="205" type="line"/>
      <point x="657" y="205" type="line"/>
      <point x="657" y="433" type="line"/>
      <point x="657" y="634" type="line"/>
      <point x="867" y="634" type="line"/>
      <point x="1075" y="634" type="line"/>
      <point x="1075" y="720" type="line"/>
      <point x="867" y="720" type="line"/>
      <point x="657" y="720" type="line"/>
      <point x="657" y="929" type="line"/>
      <point x="657" y="1148" type="line"/>
      <point x="571" y="1148" type="line"/>
      <point x="571" y="929" type="line"/>
      <point x="571" y="720" type="line"/>
    </contour>
  </outline>
</glyph>
<glyph name="zero" format="2">
  <advance width="1328"/>
  <unicode hex="0030"/>
  <outline>
    <contour>
      <point x="634" y="-21" type="curve" smooth="yes"/>
      <point x="1044" y="-21"/>
      <point x="1266" y="253"/>
      <point x="1266" y="781" type="curve" smooth="yes"/>
      <point x="1266" y="1265"/>
      <point x="1065" y="1505"/>
      <point x="694" y="1505" type="curve" smooth="yes"/>
      <point x="306" y="1505"/>
      <point x="63" y="1233"/>
      <point x="62" y="702" type="curve" smooth="yes"/>
      <point x="61" y="229"/>
      <point x="252" y="-21"/>
    </contour>
    <contour>
      <point x="667" y="36" type="curve" smooth="yes"/>
      <point x="540" y="36"/>
      <point x="467" y="181"/>
      <point x="467" y="722" type="curve" smooth="yes"/>
      <point x="467" y="1288"/>
      <point x="544" y="1443"/>
      <point x="663" y="1443" type="curve" smooth="yes"/>
      <point x="786" y="1443"/>
      <point x="861" y="1335"/>
      <point x="861" y="742" type="curve" smooth="yes"/>
      <point x="861" y="222"/>
      <point x="809" y="36"/>
    </contour>
  </outline>
</glyph>
<glyph name="two" format="2">
  <advance width="1166"/>
  <unicode hex="0032"/>
  <guideline x="101" y="1248" angle="310.0188"/>
  <guideline x="991" y="312" angle="63.435"/>
  <guideline x="703" y="152" angle="185.3557"/>
  <guideline x="783" y="1256" angle="0"/>
  <outline>
    <contour>
      <point x="20" y="155" type="curve"/>
      <point x="90" y="0" type="line"/>
      <point x="1038" y="0" type="line"/>
      <point x="1131" y="448" type="line"/>
      <point x="1067" y="472" type="line"/>
      <point x="982" y="330" type="line"/>
      <point x="214" y="216" type="line"/>
      <point x="674" y="428"/>
      <point x="1023" y="740"/>
      <point x="1023" y="1113" type="curve" smooth="yes"/>
      <point x="1023" y="1363"/>
      <point x="835" y="1504"/>
      <point x="582" y="1504" type="curve" smooth="yes"/>
      <point x="304" y="1504"/>
      <point x="136" y="1328"/>
      <point x="57" y="1232" type="curve"/>
      <point x="91" y="1181" type="line"/>
      <point x="183" y="1272"/>
      <point x="287" y="1333"/>
      <point x="387" y="1333" type="curve" smooth="yes"/>
      <point x="554" y="1333"/>
      <point x="612" y="1195"/>
      <point x="612" y="1011" type="curve" smooth="yes"/>
      <point x="612" y="676"/>
      <point x="385" y="350"/>
    </contour>
  </outline>
</glyph>
<glyph name="four" format="2">
  <advance width="1278"/>
  <unicode hex="0034"/>
  <guideline x="954" y="1218" angle="90"/>
  <guideline x="483" y="361" angle="3.4522"/>
  <guideline x="708" y="407" angle="88.3091"/>
  <outline>
    <contour>
      <point x="694" y="0" type="line"/>
      <point x="1056" y="0" type="line"/>
      <point x="1056" y="291" type="line"/>
      <point x="1216" y="291" type="line"/>
      <point x="1216" y="434" type="line"/>
      <point x="1055" y="424" type="line"/>
      <point x="1055" y="847" type="line"/>
      <point x="720" y="813" type="line"/>
      <point x="696" y="385" type="line"/>
      <point x="248" y="342" type="line"/>
      <point x="476" y="670" type="line"/>
      <point x="877" y="1341" type="line"/>
      <point x="590" y="1501" type="line"/>
      <point x="502" y="1501" type="line"/>
      <point x="389" y="1217"/>
      <point x="185" y="756"/>
      <point x="32" y="442" type="curve"/>
      <point x="106" y="291" type="line"/>
      <point x="694" y="291" type="line"/>
    </contour>
  </outline>
</glyph>
<glyph name="six" format="2">
  <advance width="1241"/>
  <unicode hex="0036"/>
  <outline>
    <contour>
      <point x="624" y="-35" type="curve" smooth="yes"/>
      <point x="934" y="-35"/>
      <point x="1204" y="139"/>
      <point x="1204" y="514" type="curve" smooth="yes"/>
      <point x="1204" y="814"/>
      <point x="1015" y="948"/>
      <point x="807" y="948" type="curve" smooth="yes"/>
      <point x="670" y="948"/>
      <point x="532" y="884"/>
      <point x="451" y="752" type="curve"/>
      <point x="483" y="1036"/>
      <point x="604" y="1371"/>
      <point x="979" y="1457" type="curve"/>
      <point x="950" y="1517" type="line"/>
      <point x="427" y="1499"/>
      <point x="43" y="1084"/>
      <point x="43" y="603" type="curve" smooth="yes"/>
      <point x="43" y="222"/>
      <point x="253" y="-35"/>
    </contour>
    <contour>
      <point x="628" y="790" type="curve" smooth="yes"/>
      <point x="764" y="790"/>
      <point x="809" y="601"/>
      <point x="809" y="405" type="curve" smooth="yes"/>
      <point x="809" y="198"/>
      <point x="757" y="30"/>
      <point x="625" y="30" type="curve" smooth="yes"/>
      <point x="506" y="30"/>
      <point x="443" y="161"/>
      <point x="443" y="510" type="curve" smooth="yes"/>
      <point x="443" y="589"/>
      <point x="447" y="652"/>
      <point x="451" y="697" type="curve"/>
      <point x="483" y="734"/>
      <point x="550" y="790"/>
    </contour>
  </outline>
</glyph>
<glyph name="seven" format="2">
  <advance width="1105"/>
  <unicode hex="0037"/>
  <guideline x="792" y="1432" angle="3.2983"/>
  <guideline x="-736" y="1250" angle="0"/>
  <guideline x="555" y="1195" angle="0"/>
  <outline>
    <contour>
      <point x="646" y="0" type="line"/>
      <point x="1107" y="1435" type="line"/>
      <point x="1058" y="1486" type="line"/>
      <point x="93" y="1486" type="line"/>
      <point x="26" y="1003" type="line"/>
      <point x="102" y="987" type="line"/>
      <point x="184" y="1170" type="line"/>
      <point x="959" y="1170" type="line"/>
      <point x="740" y="816"/>
      <point x="526" y="451"/>
      <point x="232" y="0" type="curve"/>
    </contour>
  </outline>
</glyph>
<glyph name="greater" format="2">
  <advance width="1318"/>
  <unicode hex="003E"/>
  <outline>
    <contour>
      <point x="1164" y="635" type="line"/>
      <point x="1164" y="706" type="line"/>
      <point x="218" y="1160" type="line"/>
      <point x="218" y="1069" type="line"/>
      <point x="1056" y="671" type="line"/>
      <point x="218" y="279" type="line"/>
      <point x="218" y="186" type="line"/>
    </contour>
  </outline>
</glyph>
<glyph name="at" format="2">
  <advance width="2127"/>
  <unicode hex="0040"/>
  <outline>
    <contour>
      <point x="150" y="344" type="curve" smooth="yes"/>
      <point x="150" y="-186"/>
      <point x="480" y="-522"/>
      <point x="931" y="-522" type="curve" smooth="yes"/>
      <point x="1115" y="-522"/>
      <point x="1311" y="-466"/>
      <point x="1416" y="-373" type="curve"/>
      <point x="1396" y="-328" type="line"/>
      <point x="1275" y="-405"/>
      <point x="1133" y="-438"/>
      <point x="1005" y="-438" type="curve" smooth="yes"/>
      <point x="600" y="-438"/>
      <point x="306" y="-111"/>
      <point x="306" y="391" type="curve" smooth="yes"/>
      <point x="306" y="952"/>
      <point x="673" y="1431"/>
      <point x="1184" y="1431" type="curve" smooth="yes"/>
      <point x="1554" y="1431"/>
      <point x="1879" y="1181"/>
      <point x="1879" y="729" type="curve" smooth="yes"/>
      <point x="1879" y="355"/>
      <point x="1656" y="125"/>
      <point x="1519" y="125" type="curve" smooth="yes"/>
      <point x="1469" y="125"/>
      <point x="1455" y="156"/>
      <point x="1455" y="257" type="curve" smooth="yes"/>
      <point x="1455" y="500"/>
      <point x="1536" y="879"/>
      <point x="1572" y="990" type="curve"/>
      <point x="1410" y="1046"/>
      <point x="1395" y="1050"/>
      <point x="1372" y="1050" type="curve" smooth="yes"/>
      <point x="1346" y="1050"/>
      <point x="1329" y="1050"/>
      <point x="1311" y="1003" type="curve"/>
      <point x="1247" y="1035"/>
      <point x="1176" y="1051"/>
      <point x="1109" y="1051" type="curve" smooth="yes"/>
      <point x="795" y="1051"/>
      <point x="561" y="694"/>
      <point x="561" y="359" type="curve" smooth="yes"/>
      <point x="561" y="117"/>
      <point x="683" y="-20"/>
      <point x="844" y="-20" type="curve" smooth="yes"/>
      <point x="1018" y="-20"/>
      <point x="1132" y="140"/>
      <point x="1209" y="418" type="curve"/>
      <point x="1185" y="282"/>
      <point x="1171" y="194"/>
      <point x="1174" y="140" type="curve" smooth="yes"/>
      <point x="1180" y="28"/>
      <point x="1254" y="-8"/>
      <point x="1353" y="-8" type="curve" smooth="yes"/>
      <point x="1643" y="-8"/>
      <point x="2007" y="305"/>
      <point x="2007" y="799" type="curve" smooth="yes"/>
      <point x="2007" y="1222"/>
      <point x="1741" y="1533"/>
      <point x="1274" y="1533" type="curve" smooth="yes"/>
      <point x="708" y="1533"/>
      <point x="150" y="1040"/>
    </contour>
    <contour>
      <point x="871" y="457" type="curve" smooth="yes"/>
      <point x="871" y="729"/>
      <point x="993" y="992"/>
      <point x="1125" y="992" type="curve" smooth="yes"/>
      <point x="1170" y="992"/>
      <point x="1229" y="960"/>
      <point x="1274" y="911" type="curve"/>
      <point x="1274" y="856"/>
      <point x="1221" y="644"/>
      <point x="1201" y="569" type="curve" smooth="yes"/>
      <point x="1141" y="344"/>
      <point x="1062" y="193"/>
      <point x="978" y="193" type="curve" smooth="yes"/>
      <point x="901" y="193"/>
      <point x="871" y="322"/>
    </contour>
  </outline>
</glyph>
<glyph name="C" format="2">
  <advance width="1259"/>
  <unicode hex="0043"/>
  <anchor x="717" y="0" name="bottom"/>
  <anchor x="720" y="-166" name="mark0"/>
  <anchor x="747" y="1486" name="top"/>
  <outline>
    <contour>
      <point x="748" y="-22" type="curve" smooth="yes"/>
      <point x="1014" y="-22"/>
      <point x="1067" y="54"/>
      <point x="1171" y="54" type="curve"/>
      <point x="1207" y="463" type="line"/>
      <point x="1057" y="473" type="line"/>
      <point x="970" y="184" type="line" smooth="yes"/>
      <point x="952" y="125"/>
      <point x="876" y="36"/>
      <point x="787" y="36" type="curve" smooth="yes"/>
      <point x="538" y="36"/>
      <point x="460" y="386"/>
      <point x="460" y="758" type="curve" smooth="yes"/>
      <point x="460" y="1245"/>
      <point x="562" y="1447"/>
      <point x="765" y="1447" type="curve" smooth="yes"/>
      <point x="881" y="1447"/>
      <point x="924" y="1381"/>
      <point x="934" y="1316" type="curve"/>
      <point x="986" y="1006" type="line"/>
      <point x="1185" y="1006" type="line"/>
      <point x="1239" y="1437" type="line"/>
      <point x="1049" y="1437"/>
      <point x="993" y="1507"/>
      <point x="741" y="1507" type="curve" smooth="yes"/>
      <point x="311" y="1507"/>
      <point x="30" y="1213"/>
      <point x="30" y="734" type="curve" smooth="yes"/>
      <point x="30" y="289"/>
      <point x="250" y="-22"/>
    </contour>
  </outline>
</glyph>
<glyph name="F" format="2">
  <advance width="1172"/>
  <unicode hex="0046"/>
  <anchor x="341" y="0" name="bottom"/>
  <anchor x="643" y="-166" name="mark0"/>
  <anchor x="669" y="1486" name="top"/>
  <outline>
    <contour>
      <point x="152" y="72" type="line"/>
      <point x="18" y="38" type="line"/>
      <point x="18" y="0" type="line"/>
      <point x="750" y="0" type="line"/>
      <point x="750" y="38" type="line"/>
      <point x="533" y="72" type="line"/>
      <point x="533" y="711" type="line"/>
      <point x="751" y="704" type="line"/>
      <point x="834" y="438" type="line"/>
      <point x="882" y="438" type="line"/>
      <point x="882" y="1019" type="line"/>
      <point x="835" y="1019" type="line"/>
      <point x="751" y="770" type="line"/>
      <point x="533" y="763" type="line"/>
      <point x="533" y="1426" type="line"/>
      <point x="855" y="1389" type="line"/>
      <point x="987" y="1088" type="line"/>
      <point x="1127" y="1088" type="line"/>
      <point x="1098" y="1486" type="line"/>
      <point x="19" y="1486" type="line"/>
      <point x="19" y="1450" type="line"/>
      <point x="152" y="1412" type="line"/>
    </contour>
  </outline>
</glyph>
<glyph name="I" format="2">
  <advance width="712"/>
  <unicode hex="0049"/>
  <anchor x="350" y="0" name="bottom"/>
  <anchor x="352" y="-166" name="mark0"/>
  <anchor x="652" y="20" name="ogonek"/>
  <anchor x="350" y="1486" name="top"/>
  <anchor x="37" y="1486" name="topleft"/>
  <outline>
    <contour>
      <point x="154" y="72" type="line"/>
      <point x="20" y="38" type="line"/>
      <point x="20" y="0" type="line"/>
      <point x="692" y="0" type="line"/>
      <point x="692" y="38" type="line"/>
      <point x="538" y="72" type="line"/>
      <point x="538" y="1412" type="line"/>
      <point x="691" y="1450" type="line"/>
      <point x="691" y="1486" type="line"/>
      <point x="21" y="1486" type="line"/>
      <point x="21" y="1450" type="line"/>
      <point x="154" y="1412" type="line"/>
    </contour>
  </outline>
</glyph>
<glyph name="L" format="2">
  <advance width="1201"/>
  <unicode hex="004C"/>
  <anchor x="668" y="0" name="bottom"/>
  <anchor x="639" y="744" name="center"/>
  <anchor x="686" y="-166" name="mark0"/>
  <anchor x="406" y="1486" name="top"/>
  <anchor x="987" y="1111" name="topright"/>
  <outline>
    <contour>
      <point x="152" y="78" type="line"/>
      <point x="18" y="37" type="line"/>
      <point x="18" y="0" type="line"/>
      <point x="1124" y="0" type="line"/>
      <point x="1201" y="402" type="line"/>
      <point x="1046" y="429" type="line"/>
      <point x="895" y="120" type="line"/>
      <point x="533" y="59" type="line"/>
      <point x="533" y="1412" type="line"/>
      <point x="694" y="1450" type="line"/>
      <point x="694" y="1486" type="line"/>
      <point x="19" y="1486" type="line"/>
      <point x="19" y="1450" type="line"/>
      <point x="152" y="1412" type="line"/>
    </contour>
  </outline>
</glyph>
<glyph name="M" format="2">
  <advance width="1887"/>
  <unicode hex="004D"/>
  <anchor x="867" y="0" name="bottom"/>
  <anchor x="743" y="-166" name="mark0"/>
  <anchor x="936" y="1486" name="top"/>
  <outline>
    <contour>
      <point x="100" y="71" type="line"/>
      <point x="-55" y="36" type="line"/>
      <point x="-55" y="0" type="line"/>
      <point x="364" y="0" type="line"/>
      <point x="364" y="36" type="line"/>
      <point x="197" y="71" type="line"/>
      <point x="291" y="1046" type="line"/>
      <point x="324" y="1360" type="line"/>
      <point x="400" y="1047" type="line"/>
      <point x="628" y="57" type="line"/>
      <point x="970" y="57" type="line"/>
      <point x="1156" y="1046" type="line"/>
      <point x="1219" y="1360" type="line"/>
      <point x="1257" y="1044" type="line"/>
      <point x="1353" y="72" type="line"/>
      <point x="1208" y="38" type="line"/>
      <point x="1208" y="0" type="line"/>
      <point x="1895" y="0" type="line"/>
      <point x="1895" y="36" type="line"/>
      <point x="1753" y="72" type="line"/>
      <point x="1603" y="1413" type="line"/>
      <point x="1762" y="1451" type="line"/>
      <point x="1762" y="1486" type="line"/>
      <point x="1171" y="1486" type="line"/>
      <point x="985" y="520" type="line"/>
      <point x="944" y="282" type="line"/>
      <point x="902" y="516" type="line"/>
      <point x="695" y="1486" type="line"/>
      <point x="108" y="1486" type="line"/>
      <point x="108" y="1451" type="line"/>
      <point x="262" y="1413" type="line"/>
    </contour>
  </outline>
</glyph>
<glyph name="V" format="2">
  <advance width="1302"/>
  <unicode hex="0056"/>
  <anchor x="792" y="-166" name="mark0"/>
  <outline>
    <contour>
      <point x="-42" y="1452" type="line"/>
      <point x="61" y="1417" type="line"/>
      <point x="549" y="0" type="line"/>
      <point x="795" y="0" type="line"/>
      <point x="1253" y="1417" type="line"/>
      <point x="1384" y="1452" type="line"/>
      <point x="1384" y="1486" type="line"/>
      <point x="1009" y="1486" type="line"/>
      <point x="1009" y="1452" type="line"/>
      <point x="1149" y="1417" type="line"/>
      <point x="848" y="403" type="line"/>
      <point x="815" y="291" type="line"/>
      <point x="784" y="407" type="line"/>
      <point x="480" y="1417" type="line"/>
      <point x="633" y="1452" type="line"/>
      <point x="633" y="1486" type="line"/>
      <point x="-42" y="1486" type="line"/>
    </contour>
  </outline>
</glyph>
<glyph name="W" format="2">
  <advance width="1831"/>
  <unicode hex="0057"/>
  <anchor x="1029" y="0" name="bottom"/>
  <anchor x="924" y="-166" name="mark0"/>
  <anchor x="1073" y="1486" name="top"/>
  <outline>
    <contour>
      <point x="-55" y="1452" type="line"/>
      <point x="55" y="1417" type="line"/>
      <point x="427" y="0" type="line"/>
      <point x="695" y="0" type="line"/>
      <point x="938" y="861" type="line"/>
      <point x="1151" y="0" type="line"/>
      <point x="1423" y="0" type="line"/>
      <point x="1770" y="1418" type="line"/>
      <point x="1886" y="1452" type="line"/>
      <point x="1886" y="1486" type="line"/>
      <point x="1532" y="1486" type="line"/>
      <point x="1532" y="1452" type="line"/>
      <point x="1677" y="1418" type="line"/>
      <point x="1461" y="441" type="line"/>
      <point x="1420" y="250" type="line"/>
      <point x="1377" y="441" type="line"/>
      <point x="1170" y="1418" type="line"/>
      <point x="1284" y="1452" type="line"/>
      <point x="1284" y="1486" type="line"/>
      <point x="687" y="1486" type="line"/>
      <point x="687" y="1452" type="line"/>
      <point x="781" y="1418" type="line"/>
      <point x="893" y="998" type="line"/>
      <point x="746" y="441" type="line"/>
      <point x="694" y="250" type="line"/>
      <point x="655" y="441" type="line"/>
      <point x="439" y="1418" type="line"/>
      <point x="546" y="1452" type="line"/>
      <point x="546" y="1486" type="line"/>
      <point x="-55" y="1486" type="line"/>
    </contour>
  </outline>
</glyph>
<glyph name="X" format="2">
  <advance width="1479"/>
  <unicode hex="0058"/>
  <anchor x="715" y="-166" name="mark0"/>
  <outline>
    <contour>
      <point x="230" y="71" type="line"/>
      <point x="11" y="38" type="line"/>
      <point x="11" y="0" type="line"/>
      <point x="564" y="0" type="line"/>
      <point x="564" y="38" type="line"/>
      <point x="353" y="71" type="line"/>
      <point x="631" y="584" type="line"/>
      <point x="908" y="72" type="line"/>
      <point x="752" y="38" type="line"/>
      <point x="752" y="0" type="line"/>
      <point x="1468" y="0" type="line"/>
      <point x="1468" y="38" type="line"/>
      <point x="1336" y="72" type="line"/>
      <point x="894" y="846" type="line"/>
      <point x="1254" y="1412" type="line"/>
      <point x="1447" y="1450" type="line"/>
      <point x="1447" y="1486" type="line"/>
      <point x="920" y="1486" type="line"/>
      <point x="920" y="1450" type="line"/>
      <point x="1132" y="1413" type="line"/>
      <point x="858" y="905" type="line"/>
      <point x="585" y="1411" type="line"/>
      <point x="742" y="1450" type="line"/>
      <point x="742" y="1486" type="line"/>
      <point x="23" y="1486" type="line"/>
      <point x="23" y="1450" type="line"/>
      <point x="155" y="1412" type="line"/>
      <point x="595" y="649" type="line"/>
    </contour>
  </outline>
</glyph>
<glyph name="Z" format="2">
  <advance width="1283"/>
  <unicode hex="005A"/>
  <anchor x="635" y="0" name="bottom"/>
  <anchor x="655" y="-166" name="mark0"/>
  <anchor x="658" y="1486" name="top"/>
  <outline>
    <contour>
      <point x="722" y="1278" type="line"/>
      <point x="28" y="29" type="line"/>
      <point x="44" y="0" type="line"/>
      <point x="1211" y="0" type="line"/>
      <point x="1256" y="452" type="line"/>
      <point x="1076" y="480" type="line"/>
      <point x="933" y="103" type="line"/>
      <point x="443" y="56" type="line"/>
      <point x="564" y="215" type="line"/>
      <point x="1253" y="1456" type="line"/>
      <point x="1233" y="1486" type="line"/>
      <point x="128" y="1486" type="line"/>
      <point x="109" y="1084" type="line"/>
      <point x="295" y="1059" type="line"/>
      <point x="406" y="1402" type="line"/>
      <point x="848" y="1431" type="line"/>
    </contour>
  </outline>
</glyph>
<glyph name="bracketleft" format="2">
  <advance width="823"/>
  <unicode hex="005B"/>
  <outline>
    <contour>
      <point x="164" y="1386" type="curve"/>
      <point x="164" y="-52" type="line" smooth="yes"/>
      <point x="164" y="-237"/>
      <point x="251" y="-274"/>
      <point x="406" y="-274" type="curve" smooth="yes"/>
      <point x="512" y="-274"/>
      <point x="603" y="-255"/>
      <point x="683" y="-234" type="curve"/>
      <point x="683" y="-197" type="line"/>
      <point x="485" y="-197" type="line"/>
      <point x="485" y="1533" type="line"/>
      <point x="683" y="1533" type="line"/>
      <point x="683" y="1568" type="line"/>
      <point x="602" y="1587"/>
      <point x="513" y="1608"/>
      <point x="406" y="1608" type="curve" smooth="yes"/>
      <point x="251" y="1608"/>
      <point x="164" y="1571"/>
    </contour>
  </outline>
</glyph>
<glyph name="bracketright" format="2">
  <advance width="823"/>
  <unicode hex="005D"/>
  <outline>
    <contour>
      <point x="659" y="1386" type="line"/>
      <point x="659" y="1571"/>
      <point x="572" y="1608"/>
      <point x="417" y="1608" type="curve" smooth="yes"/>
      <point x="310" y="1608"/>
      <point x="221" y="1587"/>
      <point x="140" y="1568" type="curve"/>
      <point x="140" y="1533" type="line"/>
      <point x="338" y="1533" type="line"/>
      <point x="338" y="-197" type="line"/>
      <point x="140" y="-197" type="line"/>
      <point x="140" y="-234" type="line"/>
      <point x="220" y="-255"/>
      <point x="311" y="-274"/>
      <point x="417" y="-274" type="curve" smooth="yes"/>
      <point x="572" y="-274"/>
      <point x="659" y="-237"/>
      <point x="659" y="-52" type="curve" smooth="yes"/>
    </contour>
  </outline>
</glyph>
<glyph name="a" format="2">
  <advance width="989"/>
  <unicode hex="0061"/>
  <anchor x="469" y="0" name="bottom"/>
  <anchor x="833" y="20" name="ogonek"/>
  <anchor x="527" y="1110" name="top"/>
  <outline>
    <contour>
      <point x="13" y="261" type="curve" smooth="yes"/>
      <point x="13" y="92"/>
      <point x="117" y="-23"/>
      <point x="291" y="-23" type="curve"/>
      <point x="438" y="-23"/>
      <point x="542" y="67"/>
      <point x="574" y="152" type="curve"/>
      <point x="574" y="69" type="line" smooth="yes"/>
      <point x="574" y="-11"/>
      <point x="633" y="-19"/>
      <point x="726" y="-19" type="curve" smooth="yes"/>
      <point x="830" y="-19"/>
      <point x="936" y="3"/>
      <point x="979" y="12" type="curve"/>
      <point x="979" y="48" type="line"/>
      <point x="906" y="68" type="line"/>
      <point x="906" y="678" type="line" smooth="yes"/>
      <point x="906" y="936"/>
      <point x="753" y="1035"/>
      <point x="530" y="1035" type="curve" smooth="yes"/>
      <point x="316" y="1035"/>
      <point x="134" y="943"/>
      <point x="66" y="891" type="curve"/>
      <point x="101" y="818" type="line"/>
      <point x="154" y="837"/>
      <point x="258" y="868"/>
      <point x="386" y="868" type="curve" smooth="yes"/>
      <point x="501" y="868"/>
      <point x="570" y="807"/>
      <point x="570" y="721" type="curve" smooth="yes"/>
      <point x="570" y="600" type="line"/>
      <point x="345" y="600"/>
      <point x="13" y="518"/>
    </contour>
    <contour>
      <point x="469" y="135" type="curve" smooth="yes"/>
      <point x="398" y="135"/>
      <point x="350" y="208"/>
      <point x="350" y="310" type="curve" smooth="yes"/>
      <point x="350" y="444"/>
      <point x="421" y="542"/>
      <point x="570" y="543" type="curve"/>
      <point x="570" y="184" type="line"/>
      <point x="551" y="148"/>
      <point x="501" y="135"/>
    </contour>
  </outline>
</glyph>
<glyph name="c" format="2">
  <advance width="892"/>
  <unicode hex="0063"/>
  <anchor x="558" y="0" name="bottom"/>
  <anchor x="575" y="-166" name="mark0"/>
  <anchor x="546" y="1110" name="top"/>
  <outline>
    <contour>
      <point x="31" y="488" type="curve" smooth="yes"/>
      <point x="31" y="187"/>
      <point x="186" y="-22"/>
      <point x="498" y="-22" type="curve" smooth="yes"/>
      <point x="661" y="-22"/>
      <point x="828" y="67"/>
      <point x="880" y="128" type="curve"/>
      <point x="855" y="184" type="line"/>
      <point x="802" y="141"/>
      <point x="708" y="118"/>
      <point x="656" y="118" type="curve" smooth="yes"/>
      <point x="508" y="118"/>
      <point x="400" y="230"/>
      <point x="400" y="547" type="curve" smooth="yes"/>
      <point x="400" y="870"/>
      <point x="455" y="977"/>
      <point x="555" y="977" type="curve" smooth="yes"/>
      <point x="602" y="977"/>
      <point x="628" y="925"/>
      <point x="644" y="856" type="curve" smooth="yes"/>
      <point x="686" y="673" type="line"/>
      <point x="864" y="673" type="line"/>
      <point x="876" y="971" type="line"/>
      <point x="809" y="979"/>
      <point x="734" y="1042"/>
      <point x="546" y="1042" type="curve" smooth="yes"/>
      <point x="238" y="1042"/>
      <point x="31" y="830"/>
    </contour>
  </outline>
</glyph>
<glyph name="f" format="2">
  <advance width="637"/>
  <unicode hex="0066"/>
  <anchor x="417" y="1613" name="top"/>
  <outline>
    <contour>
      <point x="153" y="72" type="line"/>
      <point x="40" y="38" type="line"/>
      <point x="40" y="0" type="line"/>
      <point x="621" y="0" type="line"/>
      <point x="621" y="38" type="line"/>
      <point x="480" y="72" type="line"/>
      <point x="480" y="907" type="line"/>
      <point x="657" y="907" type="line"/>
      <point x="657" y="1005" type="line"/>
      <point x="480" y="1005" type="line"/>
      <point x="480" y="1325" type="line" smooth="yes"/>
      <point x="480" y="1450"/>
      <point x="514" y="1487"/>
      <point x="588" y="1487" type="curve" smooth="yes"/>
      <point x="648" y="1487"/>
      <point x="746" y="1452"/>
      <point x="795" y="1420" type="curve"/>
      <point x="795" y="1635" type="line"/>
      <point x="778" y="1646"/>
      <point x="742" y="1652"/>
      <point x="690" y="1652" type="curve" smooth="yes"/>
      <point x="453" y="1652"/>
      <point x="153" y="1383"/>
      <point x="153" y="1055" type="curve" smooth="yes"/>
      <point x="153" y="1004" type="line"/>
      <point x="35" y="945" type="line"/>
      <point x="35" y="907" type="line"/>
      <point x="153" y="907" type="line"/>
    </contour>
  </outline>
</glyph>
<glyph name="m" format="2">
  <advance width="1813"/>
  <unicode hex="006D"/>
  <anchor x="916" y="0" name="bottom"/>
  <anchor x="918" y="1111" name="top"/>
  <outline>
    <contour>
      <point x="12" y="0" type="line"/>
      <point x="572" y="0" type="line"/>
      <point x="572" y="38" type="line"/>
      <point x="463" y="72" type="line"/>
      <point x="463" y="812" type="line"/>
      <point x="497" y="836"/>
      <point x="560" y="863"/>
      <point x="634" y="863" type="curve" smooth="yes"/>
      <point x="715" y="863"/>
      <point x="746" y="796"/>
      <point x="746" y="662" type="curve" smooth="yes"/>
      <point x="746" y="72" type="line"/>
      <point x="667" y="38" type="line"/>
      <point x="667" y="0" type="line"/>
      <point x="1189" y="0" type="line"/>
      <point x="1189" y="38" type="line"/>
      <point x="1085" y="72" type="line"/>
      <point x="1085" y="697" type="line" smooth="yes"/>
      <point x="1085" y="734"/>
      <point x="1078" y="785"/>
      <point x="1074" y="810" type="curve"/>
      <point x="1108" y="840"/>
      <point x="1176" y="863"/>
      <point x="1250" y="863" type="curve" smooth="yes"/>
      <point x="1331" y="863"/>
      <point x="1362" y="796"/>
      <point x="1362" y="662" type="curve" smooth="yes"/>
      <point x="1362" y="71" type="line"/>
      <point x="1283" y="38" type="line"/>
      <point x="1283" y="0" type="line"/>
      <point x="1805" y="0" type="line"/>
      <point x="1805" y="38" type="line"/>
      <point x="1701" y="71" type="line"/>
      <point x="1701" y="662" type="line" smooth="yes"/>
      <point x="1701" y="941"/>
      <point x="1609" y="1039"/>
      <point x="1414" y="1039" type="curve" smooth="yes"/>
      <point x="1256" y="1039"/>
      <point x="1141" y="946"/>
      <point x="1067" y="845" type="curve"/>
      <point x="1032" y="974"/>
      <point x="954" y="1039"/>
      <point x="798" y="1039" type="curve" smooth="yes"/>
      <point x="640" y="1039"/>
      <point x="532" y="943"/>
      <point x="457" y="849" type="curve"/>
      <point x="457" y="991" type="line"/>
      <point x="406" y="1035" type="line"/>
      <point x="366" y="1035" type="line"/>
      <point x="14" y="920" type="line"/>
      <point x="14" y="881" type="line"/>
      <point x="125" y="834" type="line"/>
      <point x="125" y="72" type="line"/>
      <point x="12" y="38" type="line"/>
    </contour>
  </outline>
</glyph>
<glyph name="s" format="2">
  <advance width="877"/>
  <unicode hex="0073"/>
  <anchor x="418" y="-9" name="bottom"/>
  <anchor x="434" y="-176" name="mark0"/>
  <anchor x="432" y="1111" name="top"/>
  <outline>
    <contour>
      <point x="227" y="308" type="line"/>
      <point x="49" y="308" type="line"/>
      <point x="40" y="41" type="line"/>
      <point x="104" y="40"/>
      <point x="253" y="-25"/>
      <point x="416" y="-25" type="curve" smooth="yes"/>
      <point x="727" y="-25"/>
      <point x="841" y="116"/>
      <point x="841" y="317" type="curve" smooth="yes"/>
      <point x="841" y="471"/>
      <point x="698" y="560"/>
      <point x="542" y="634" type="curve" smooth="yes"/>
      <point x="410" y="697"/>
      <point x="282" y="738"/>
      <point x="282" y="849" type="curve" smooth="yes"/>
      <point x="282" y="927"/>
      <point x="324" y="986"/>
      <point x="433" y="986" type="curve" smooth="yes"/>
      <point x="515" y="986"/>
      <point x="593" y="928"/>
      <point x="606" y="847" type="curve"/>
      <point x="632" y="713" type="line"/>
      <point x="785" y="713" type="line"/>
      <point x="796" y="980" type="line"/>
      <point x="733" y="987"/>
      <point x="636" y="1039"/>
      <point x="450" y="1039" type="curve" smooth="yes"/>
      <point x="174" y="1039"/>
      <point x="39" y="909"/>
      <point x="39" y="736" type="curve" smooth="yes"/>
      <point x="39" y="526"/>
      <point x="201" y="430"/>
      <point x="348" y="364" type="curve" smooth="yes"/>
      <point x="522" y="286"/>
      <point x="616" y="240"/>
      <point x="616" y="159" type="curve" smooth="yes"/>
      <point x="616" y="98"/>
      <point x="572" y="31"/>
      <point x="442" y="31" type="curve" smooth="yes"/>
      <point x="361" y="31"/>
      <point x="265" y="91"/>
      <point x="247" y="195" type="curve"/>
    </contour>
  </outline>
</glyph>
<glyph name="u" format="2">
  <advance width="1132"/>
  <unicode hex="0075"/>
  <anchor x="598" y="0" name="bottom"/>
  <anchor x="636" y="-166" name="mark0"/>
  <anchor x="966" y="20" name="ogonek"/>
  <anchor x="574" y="1112" name="top"/>
  <anchor x="1172" y="1112" name="topright"/>
  <outline>
    <contour>
      <point x="869" y="-19" type="curve" smooth="yes"/>
      <point x="979" y="-19"/>
      <point x="1062" y="0"/>
      <point x="1112" y="10" type="curve"/>
      <point x="1112" y="48" type="line"/>
      <point x="1038" y="68" type="line"/>
      <point x="1038" y="992" type="line"/>
      <point x="979" y="1035" type="line"/>
      <point x="941" y="1035" type="line"/>
      <point x="598" y="921" type="line"/>
      <point x="598" y="880" type="line"/>
      <point x="704" y="833" type="line"/>
      <point x="704" y="208" type="line"/>
      <point x="668" y="183"/>
      <point x="624" y="156"/>
      <point x="547" y="156" type="curve" smooth="yes"/>
      <point x="471" y="156"/>
      <point x="440" y="202"/>
      <point x="440" y="336" type="curve" smooth="yes"/>
      <point x="440" y="992" type="line"/>
      <point x="386" y="1035" type="line"/>
      <point x="351" y="1035" type="line"/>
      <point x="10" y="921" type="line"/>
      <point x="10" y="880" type="line"/>
      <point x="104" y="833" type="line"/>
      <point x="104" y="344" type="line" smooth="yes"/>
      <point x="104" y="87"/>
      <point x="196" y="-20"/>
      <point x="391" y="-20" type="curve" smooth="yes"/>
      <point x="528" y="-20"/>
      <point x="647" y="56"/>
      <point x="717" y="177" type="curve"/>
      <point x="717" y="71" type="line" smooth="yes"/>
      <point x="717" y="-12"/>
      <point x="776" y="-19"/>
    </contour>
  </outline>
</glyph>
<glyph name="x" format="2">
  <advance width="1060"/>
  <unicode hex="0078"/>
  <anchor x="534" y="-166" name="mark0"/>
  <outline>
    <contour>
      <point x="80" y="71" type="line"/>
      <point x="-29" y="38" type="line"/>
      <point x="-29" y="0" type="line"/>
      <point x="358" y="0" type="line"/>
      <point x="358" y="38" type="line"/>
      <point x="206" y="71" type="line"/>
      <point x="360" y="314" type="line"/>
      <point x="414" y="401" type="line"/>
      <point x="475" y="295" type="line"/>
      <point x="607" y="71" type="line"/>
      <point x="500" y="38" type="line"/>
      <point x="500" y="0" type="line"/>
      <point x="1089" y="0" type="line"/>
      <point x="1089" y="38" type="line"/>
      <point x="992" y="71" type="line"/>
      <point x="682" y="557" type="line"/>
      <point x="976" y="935" type="line"/>
      <point x="1084" y="966" type="line"/>
      <point x="1084" y="1005" type="line"/>
      <point x="704" y="1005" type="line"/>
      <point x="704" y="966" type="line"/>
      <point x="845" y="934" type="line"/>
      <point x="700" y="696" type="line"/>
      <point x="648" y="607" type="line"/>
      <point x="585" y="712" type="line"/>
      <point x="453" y="935" type="line"/>
      <point x="560" y="966" type="line"/>
      <point x="560" y="1005" type="line"/>
      <point x="-28" y="1005" type="line"/>
      <point x="-28" y="966" type="line"/>
      <point x="67" y="935" type="line"/>
      <point x="376" y="450" type="line"/>
    </contour>
  </outline>
</glyph>
<glyph name="y" format="2">
  <advance width="993"/>
  <unicode hex="0079"/>
  <anchor x="899" y="0" name="bottom"/>
  <anchor x="570" y="-166" name="mark0"/>
  <anchor x="547" y="1111" name="top"/>
  <outline>
    <contour>
      <point x="244" y="-468" type="curve" smooth="yes"/>
      <point x="443" y="-468"/>
      <point x="546" y="-334"/>
      <point x="660" y="-25" type="curve"/>
      <point x="676" y="12"/>
      <point x="838" y="543"/>
      <point x="962" y="921" type="curve"/>
      <point x="1073" y="967" type="line"/>
      <point x="1073" y="1005" type="line"/>
      <point x="717" y="1005" type="line"/>
      <point x="717" y="966" type="line"/>
      <point x="849" y="921" type="line"/>
      <point x="706" y="329" type="line"/>
      <point x="646" y="120" type="line"/>
      <point x="585" y="349" type="line"/>
      <point x="423" y="921" type="line"/>
      <point x="528" y="967" type="line"/>
      <point x="528" y="1005" type="line"/>
      <point x="-58" y="1006" type="line"/>
      <point x="-58" y="968" type="line"/>
      <point x="33" y="922" type="line"/>
      <point x="339" y="0" type="line"/>
      <point x="585" y="0" type="line"/>
      <point x="522" y="-171"/>
      <point x="398" y="-231"/>
      <point x="250" y="-231" type="curve" smooth="yes"/>
      <point x="202" y="-231"/>
      <point x="165" y="-224"/>
      <point x="139" y="-216" type="curve"/>
      <point x="139" y="-451" type="line"/>
      <point x="156" y="-462"/>
      <point x="192" y="-468"/>
    </contour>
  </outline>
</glyph>
<glyph name="braceleft" format="2">
  <advance width="973"/>
  <unicode hex="007B"/>
  <outline>
    <contour>
      <point x="589" y="-282" type="curve" smooth="yes"/>
      <point x="697" y="-282"/>
      <point x="790" y="-261"/>
      <point x="871" y="-238" type="curve"/>
      <point x="871" y="-196" type="line"/>
      <point x="830" y="-197"/>
      <point x="800" y="-198"/>
      <point x="761" y="-198" type="curve" smooth="yes"/>
      <point x="665" y="-198"/>
      <point x="590" y="-150"/>
      <point x="590" y="-23" type="curve" smooth="yes"/>
      <point x="590" y="88"/>
      <point x="652" y="274"/>
      <point x="652" y="407" type="curve" smooth="yes"/>
      <point x="652" y="599"/>
      <point x="469" y="650"/>
      <point x="287" y="672" type="curve"/>
      <point x="469" y="695"/>
      <point x="652" y="737"/>
      <point x="652" y="929" type="curve" smooth="yes"/>
      <point x="652" y="1064"/>
      <point x="590" y="1255"/>
      <point x="590" y="1365" type="curve" smooth="yes"/>
      <point x="590" y="1490"/>
      <point x="658" y="1540"/>
      <point x="754" y="1540" type="curve" smooth="yes"/>
      <point x="795" y="1540"/>
      <point x="830" y="1539"/>
      <point x="871" y="1538" type="curve"/>
      <point x="871" y="1576" type="line"/>
      <point x="780" y="1602"/>
      <point x="701" y="1620"/>
      <point x="593" y="1620" type="curve" smooth="yes"/>
      <point x="345" y="1620"/>
      <point x="229" y="1519"/>
      <point x="229" y="1351" type="curve" smooth="yes"/>
      <point x="229" y="1168"/>
      <point x="354" y="1005"/>
      <point x="354" y="865" type="curve" smooth="yes"/>
      <point x="354" y="770"/>
      <point x="302" y="704"/>
      <point x="115" y="704" type="curve"/>
      <point x="115" y="652" type="line"/>
      <point x="302" y="652"/>
      <point x="354" y="568"/>
      <point x="354" y="471" type="curve" smooth="yes"/>
      <point x="354" y="332"/>
      <point x="229" y="168"/>
      <point x="229" y="-14" type="curve" smooth="yes"/>
      <point x="229" y="-181"/>
      <point x="341" y="-282"/>
    </contour>
  </outline>
</glyph>
<glyph name="cent" format="2">
  <advance width="1059"/>
  <unicode hex="00A2"/>
  <outline>
    <contour>
      <point x="105" y="488" type="curve" smooth="yes"/>
      <point x="105" y="210"/>
      <point x="237" y="11"/>
      <point x="503" y="-18" type="curve"/>
      <point x="488" y="-238" type="line"/>
      <point x="583" y="-238" type="line"/>
      <point x="597" y="-21" type="line"/>
      <point x="752" y="-13"/>
      <point x="905" y="70"/>
      <point x="954" y="128" type="curve"/>
      <point x="929" y="184" type="line"/>
      <point x="876" y="141"/>
      <point x="782" y="118"/>
      <point x="730" y="118" type="curve" smooth="yes"/>
      <point x="582" y="118"/>
      <point x="474" y="230"/>
      <point x="474" y="547" type="curve" smooth="yes"/>
      <point x="474" y="870"/>
      <point x="529" y="977"/>
      <point x="629" y="977" type="curve" smooth="yes"/>
      <point x="676" y="977"/>
      <point x="702" y="925"/>
      <point x="718" y="856" type="curve" smooth="yes"/>
      <point x="760" y="673" type="line"/>
      <point x="938" y="673" type="line"/>
      <point x="950" y="971" type="line"/>
      <point x="889" y="978"/>
      <point x="821" y="1032"/>
      <point x="666" y="1041" type="curve"/>
      <point x="692" y="1370" type="line"/>
      <point x="610" y="1370" type="line"/>
      <point x="583" y="1041" type="line"/>
      <point x="296" y="1025"/>
      <point x="105" y="816"/>
    </contour>
  </outline>
</glyph>
<glyph name="sterling" format="2">
  <advance width="1494"/>
  <unicode hex="00A3"/>
  <outline>
    <contour>
      <point x="929" y="-14" type="curve" smooth="yes"/>
      <point x="1185" y="-14"/>
      <point x="1421" y="130"/>
      <point x="1421" y="366" type="curve" smooth="yes"/>
      <point x="1421" y="445"/>
      <point x="1392" y="502"/>
      <point x="1360" y="533" type="curve"/>
      <point x="1029" y="533" type="line"/>
      <point x="1069" y="485"/>
      <point x="1098" y="402"/>
      <point x="1098" y="333" type="curve" smooth="yes"/>
      <point x="1098" y="148"/>
      <point x="1033" y="44"/>
      <point x="902" y="44" type="curve" smooth="yes"/>
      <point x="741" y="44"/>
      <point x="676" y="125"/>
      <point x="507" y="191" type="curve"/>
      <point x="606" y="286"/>
      <point x="651" y="405"/>
      <point x="651" y="642" type="curve" smooth="yes"/>
      <point x="651" y="771" type="line"/>
      <point x="938" y="771" type="line"/>
      <point x="938" y="849" type="line"/>
      <point x="651" y="849" type="line"/>
      <point x="651" y="1161" type="line"/>
      <point x="651" y="1357"/>
      <point x="702" y="1447"/>
      <point x="821" y="1447" type="curve" smooth="yes"/>
      <point x="928" y="1447"/>
      <point x="1056" y="1325"/>
      <point x="1115" y="1179" type="curve"/>
      <point x="1255" y="1379" type="line"/>
      <point x="1152" y="1459"/>
      <point x="1004" y="1505"/>
      <point x="848" y="1505" type="curve" smooth="yes"/>
      <point x="547" y="1505"/>
      <point x="303" y="1304"/>
      <point x="303" y="999" type="curve"/>
      <point x="303" y="849" type="line"/>
      <point x="121" y="849" type="line"/>
      <point x="121" y="771" type="line"/>
      <point x="303" y="771" type="line"/>
      <point x="303" y="344" type="line" smooth="yes"/>
      <point x="303" y="276"/>
      <point x="297" y="253"/>
      <point x="284" y="232" type="curve"/>
      <point x="200" y="222"/>
      <point x="66" y="170"/>
      <point x="66" y="86" type="curve" smooth="yes"/>
      <point x="66" y="34"/>
      <point x="108" y="0"/>
      <point x="178" y="0" type="curve" smooth="yes"/>
      <point x="263" y="0"/>
      <point x="316" y="20"/>
      <point x="399" y="98" type="curve"/>
      <point x="502" y="98"/>
      <point x="661" y="-14"/>
    </contour>
  </outline>
</glyph>
<glyph name="questiondown" format="2">
  <advance width="922"/>
  <unicode hex="00BF"/>
  <outline>
    <contour>
      <point x="571" y="819" type="curve"/>
      <point x="510" y="819" type="line"/>
      <point x="526" y="731"/>
      <point x="538" y="614"/>
      <point x="538" y="537" type="curve" smooth="yes"/>
      <point x="538" y="501"/>
      <point x="531" y="468"/>
      <point x="516" y="443" type="curve" smooth="yes"/>
      <point x="468" y="362"/>
      <point x="30" y="272"/>
      <point x="30" y="-47" type="curve" smooth="yes"/>
      <point x="30" y="-315"/>
      <point x="237" y="-501"/>
      <point x="589" y="-501" type="curve" smooth="yes"/>
      <point x="733" y="-501"/>
      <point x="850" y="-466"/>
      <point x="896" y="-439" type="curve"/>
      <point x="874" y="-363" type="line"/>
      <point x="838" y="-380"/>
      <point x="763" y="-394"/>
      <point x="693" y="-394" type="curve" smooth="yes"/>
      <point x="485" y="-394"/>
      <point x="356" y="-208"/>
      <point x="356" y="42" type="curve" smooth="yes"/>
      <point x="356" y="114"/>
      <point x="372" y="191"/>
      <point x="399" y="254" type="curve"/>
      <point x="580" y="333"/>
      <point x="669" y="390"/>
      <point x="669" y="499" type="curve" smooth="yes"/>
      <point x="669" y="594"/>
      <point x="601" y="760"/>
    </contour>
    <contour>
      <point x="561" y="1291" type="curve" smooth="yes"/>
      <point x="451" y="1291"/>
      <point x="377" y="1231"/>
      <point x="377" y="1126" type="curve" smooth="yes"/>
      <point x="377" y="1048"/>
      <point x="432" y="974"/>
      <point x="533" y="974" type="curve" smooth="yes"/>
      <point x="633" y="974"/>
      <point x="712" y="1041"/>
      <point x="712" y="1139" type="curve" smooth="yes"/>
      <point x="712" y="1228"/>
      <point x="641" y="1291"/>
    </contour>
  </outline>
</glyph>
<glyph name="Eth" format="2">
  <advance width="1432"/>
  <unicode hex="00D0"/>
  <anchor x="712" y="0" name="bottom"/>
  <anchor x="712" y="744" name="center"/>
  <anchor x="745" y="-166" name="mark0"/>
  <anchor x="712" y="1486" name="top"/>
  <outline>
    <contour>
      <point x="38" y="710" type="line"/>
      <point x="752" y="710" type="line"/>
      <point x="752" y="832" type="line"/>
      <point x="38" y="832" type="line"/>
    </contour>
    <component base="D"/>
  </outline>
</glyph>
<glyph name="ae" format="2">
  <advance width="1518"/>
  <unicode hex="00E6"/>
  <anchor x="820" y="0" name="bottom"/>
  <anchor x="860" y="1111" name="top"/>
  <outline>
    <contour>
      <point x="291" y="-23" type="curve" smooth="yes"/>
      <point x="433" y="-23"/>
      <point x="573" y="34"/>
      <point x="636" y="191" type="curve"/>
      <point x="710" y="54"/>
      <point x="851" y="-24"/>
      <point x="1072" y="-24" type="curve" smooth="yes"/>
      <point x="1245" y="-24"/>
      <point x="1412" y="65"/>
      <point x="1467" y="126" type="curve"/>
      <point x="1441" y="182" type="line"/>
      <point x="1385" y="139"/>
      <point x="1277" y="116"/>
      <point x="1206" y="116" type="curve" smooth="yes"/>
      <point x="1035" y="116"/>
      <point x="943" y="225"/>
      <point x="933" y="502" type="curve"/>
      <point x="1482" y="502" type="line"/>
      <point x="1492" y="527"/>
      <point x="1498" y="584"/>
      <point x="1498" y="675" type="curve" smooth="yes"/>
      <point x="1494" y="913"/>
      <point x="1341" y="1042"/>
      <point x="1083" y="1042" type="curve" smooth="yes"/>
      <point x="972" y="1042"/>
      <point x="874" y="1014"/>
      <point x="794" y="961" type="curve"/>
      <point x="728" y="1014"/>
      <point x="637" y="1037"/>
      <point x="530" y="1037" type="curve" smooth="yes"/>
      <point x="325" y="1037"/>
      <point x="143" y="945"/>
      <point x="75" y="893" type="curve"/>
      <point x="110" y="820" type="line"/>
      <point x="163" y="839"/>
      <point x="267" y="870"/>
      <point x="386" y="870" type="curve" smooth="yes"/>
      <point x="501" y="870"/>
      <point x="570" y="809"/>
      <point x="570" y="721" type="curve" smooth="yes"/>
      <point x="570" y="600" type="line"/>
      <point x="345" y="600"/>
      <point x="13" y="518"/>
      <point x="13" y="261" type="curve" smooth="yes"/>
      <point x="13" y="92"/>
      <point x="117" y="-23"/>
    </contour>
    <contour>
      <point x="931" y="556" type="line"/>
      <point x="941" y="902"/>
      <point x="996" y="986"/>
      <point x="1063" y="986" type="curve" smooth="yes"/>
      <point x="1138" y="986"/>
      <point x="1150" y="888"/>
      <point x="1150" y="689" type="curve" smooth="yes"/>
      <point x="1150" y="663"/>
      <point x="1148" y="595"/>
      <point x="1148" y="569" type="curve"/>
    </contour>
    <contour>
      <point x="467" y="135" type="curve" smooth="yes"/>
      <point x="399" y="135"/>
      <point x="350" y="208"/>
      <point x="350" y="310" type="curve" smooth="yes"/>
      <point x="350" y="444"/>
      <point x="421" y="542"/>
      <point x="570" y="543" type="curve"/>
      <point x="570" y="419"/>
      <point x="573" y="332"/>
      <point x="618" y="227" type="curve"/>
      <point x="589" y="185"/>
      <point x="541" y="135"/>
    </contour>
  </outline>
</glyph>
<glyph name="kgreenlandic" format="2">
  <advance width="1173"/>
  <unicode hex="0138"/>
  <outline>
    <contour>
      <point x="125" y="71" type="line"/>
      <point x="12" y="37" type="line"/>
      <point x="12" y="0" type="line"/>
      <point x="569" y="0" type="line"/>
      <point x="569" y="35" type="line"/>
      <point x="463" y="71" type="line"/>
      <point x="463" y="252" type="line"/>
      <point x="458" y="345" type="line"/>
      <point x="569" y="474" type="line"/>
      <point x="760" y="71" type="line"/>
      <point x="656" y="38" type="line"/>
      <point x="656" y="0" type="line"/>
      <point x="1244" y="0" type="line"/>
      <point x="1244" y="38" type="line"/>
      <point x="1147" y="71" type="line"/>
      <point x="802" y="726" type="line"/>
      <point x="979" y="935" type="line"/>
      <point x="1111" y="966" type="line"/>
      <point x="1111" y="1005" type="line"/>
      <point x="712" y="1005" type="line"/>
      <point x="712" y="966" type="line"/>
      <point x="878" y="934" type="line"/>
      <point x="458" y="430" type="line"/>
      <point x="463" y="641" type="line"/>
      <point x="461" y="991" type="line"/>
      <point x="407" y="1035" type="line"/>
      <point x="365" y="1035" type="line"/>
      <point x="14" y="920" type="line"/>
      <point x="14" y="881" type="line"/>
      <point x="125" y="834" type="line"/>
    </contour>
  </outline>
</glyph>
<glyph name="lslash" format="2">
  <advance width="823"/>
  <unicode hex="0142"/>
  <anchor x="438" y="0" name="bottom"/>
  <anchor x="423" y="-166" name="mark0"/>
  <anchor x="414" y="1634" name="top"/>
  <anchor x="757" y="1111" name="topright"/>
  <outline>
    <contour>
      <point x="252" y="890" type="line"/>
      <point x="65" y="805" type="line"/>
      <point x="65" y="652" type="line"/>
      <point x="252" y="735" type="line"/>
      <point x="576" y="863" type="line"/>
      <point x="781" y="956" type="line"/>
      <point x="781" y="1119" type="line"/>
      <point x="576" y="1022" type="line"/>
    </contour>
    <component base="l" xOffset="138"/>
  </outline>
</glyph>
<glyph name="OE" format="2">
  <advance width="2040"/>
  <unicode hex="0152"/>
  <outline>
    <contour>
      <point x="964" y="43" type="curve"/>
      <point x="964" y="0" type="line"/>
      <point x="1970" y="0" type="line"/>
      <point x="2048" y="402" type="line"/>
      <point x="1876" y="428" type="line"/>
      <point x="1725" y="121" type="line"/>
      <point x="1318" y="59" type="line"/>
      <point x="1318" y="735" type="line"/>
      <point x="1538" y="729" type="line"/>
      <point x="1630" y="461" type="line"/>
      <point x="1668" y="461" type="line"/>
      <point x="1668" y="1043" type="line"/>
      <point x="1630" y="1043" type="line"/>
      <point x="1538" y="795" type="line"/>
      <point x="1318" y="788" type="line"/>
      <point x="1318" y="1427" type="line"/>
      <point x="1693" y="1388" type="line"/>
      <point x="1824" y="1113" type="line"/>
      <point x="1961" y="1113" type="line"/>
      <point x="1933" y="1486" type="line"/>
      <point x="964" y="1486" type="line"/>
      <point x="964" y="1471" type="line"/>
      <point x="900" y="1497"/>
      <point x="789" y="1505"/>
      <point x="712" y="1505" type="curve" smooth="yes"/>
      <point x="262" y="1505"/>
      <point x="26" y="1167"/>
      <point x="26" y="714" type="curve" smooth="yes"/>
      <point x="26" y="264"/>
      <point x="244" y="-23"/>
      <point x="687" y="-23" type="curve"/>
      <point x="772" y="-22"/>
      <point x="893" y="4"/>
    </contour>
    <contour>
      <point x="699" y="34" type="curve" smooth="yes"/>
      <point x="523" y="34"/>
      <point x="444" y="291"/>
      <point x="444" y="714" type="curve" smooth="yes"/>
      <point x="444" y="1214"/>
      <point x="538" y="1446"/>
      <point x="701" y="1446" type="curve" smooth="yes"/>
      <point x="864" y="1446"/>
      <point x="946" y="1198"/>
      <point x="946" y="777" type="curve"/>
      <point x="946" y="694" type="line"/>
      <point x="946" y="298"/>
      <point x="852" y="34"/>
    </contour>
  </outline>
</glyph>
<glyph name="Gstroke" format="2">
  <advance width="1414"/>
  <unicode hex="01E4"/>
  <anchor x="718" y="0" name="bottom"/>
  <anchor x="728" y="-166" name="mark0"/>
  <anchor x="778" y="1486" name="top"/>
  <outline>
    <contour>
      <point x="1396" y="436" type="line"/>
      <point x="799" y="436" type="line"/>
      <point x="799" y="370" type="line"/>
      <point x="1396" y="370" type="line"/>
    </contour>
    <component base="G"/>
  </outline>
</glyph>
<glyph name="dieresiscomb" format="2">
  <unicode hex="0308"/>
  <anchor x="0" y="1110" name="_top"/>
  <anchor x="0" y="1547" name="top"/>
  <outline>
    <contour>
      <point x="-219" y="1140" type="curve" smooth="yes"/>
      <point x="-217" y="1140" type="line" smooth="yes"/>
      <point x="-119" y="1140"/>
      <point x="-56" y="1237"/>
      <point x="-56" y="1332" type="curve" smooth="yes"/>
      <point x="-56" y="1428"/>
      <point x="-109" y="1486"/>
      <point x="-202" y="1486" type="curve" smooth="yes"/>
      <point x="-204" y="1486" type="line" smooth="yes"/>
      <point x="-300" y="1486"/>
      <point x="-365" y="1398"/>
      <point x="-365" y="1294" type="curve" smooth="yes"/>
      <point x="-365" y="1198"/>
      <point x="-312" y="1140"/>
    </contour>
    <contour>
      <point x="202" y="1140" type="curve" smooth="yes"/>
      <point x="204" y="1140" type="line" smooth="yes"/>
      <point x="302" y="1140"/>
      <point x="365" y="1237"/>
      <point x="365" y="1332" type="curve" smooth="yes"/>
      <point x="365" y="1428"/>
      <point x="312" y="1486"/>
      <point x="219" y="1486" type="curve" smooth="yes"/>
      <point x="217" y="1486" type="line" smooth="yes"/>
      <point x="121" y="1486"/>
      <point x="56" y="1398"/>
      <point x="56" y="1294" type="curve" smooth="yes"/>
      <point x="56" y="1198"/>
      <point x="109" y="1140"/>
    </contour>
  </outline>
</glyph>
<glyph name="hookabovecomb" format="2">
  <unicode hex="0309"/>
  <anchor x="0" y="1110" name="_top"/>
  <anchor x="0" y="1725" name="top"/>
  <outline>
    <contour>
      <point x="-31" y="1140" type="curve"/>
      <point x="23" y="1140" type="line"/>
      <point x="6" y="1221"/>
      <point x="22" y="1246"/>
      <point x="73" y="1282" type="curve" smooth="yes"/>
      <point x="160" y="1343"/>
      <point x="226" y="1392"/>
      <point x="226" y="1486" type="curve" smooth="yes"/>
      <point x="226" y="1604"/>
      <point x="88" y="1688"/>
      <point x="-63" y="1688" type="curve" smooth="yes"/>
      <point x="-116" y="1688"/>
      <point x="-162" y="1679"/>
      <point x="-197" y="1664" type="curve"/>
      <point x="-197" y="1488" type="line"/>
      <point x="-176" y="1499"/>
      <point x="-144" y="1504"/>
      <point x="-120" y="1504" type="curve" smooth="yes"/>
      <point x="-63" y="1504"/>
      <point x="8" y="1481"/>
      <point x="8" y="1422" type="curve" smooth="yes"/>
      <point x="8" y="1345"/>
      <point x="-72" y="1315"/>
      <point x="-72" y="1243" type="curve" smooth="yes"/>
      <point x="-72" y="1199"/>
      <point x="-54" y="1171"/>
    </contour>
  </outline>
</glyph>
<glyph name="caroncomb" format="2">
  <unicode hex="030C"/>
  <guideline x="355" y="1140" angle="90"/>
  <anchor x="0" y="1110" name="_top"/>
  <anchor x="0" y="1589" name="top"/>
  <outline>
    <contour>
      <point x="-317" y="1596" type="line"/>
      <point x="-355" y="1563" type="line"/>
      <point x="-91" y="1167" type="line"/>
      <point x="91" y="1167" type="line"/>
      <point x="355" y="1563" type="line"/>
      <point x="317" y="1596" type="line"/>
      <point x="0" y="1383" type="line"/>
    </contour>
  </outline>
</glyph>
<glyph name="dblgravecomb" format="2">
  <unicode hex="030F"/>
  <guideline x="-173" y="1631" angle="90"/>
  <anchor x="0" y="1110" name="_top"/>
  <anchor x="0" y="1619" name="top"/>
  <outline>
    <contour>
      <point x="251" y="1120" type="curve"/>
      <point x="253" y="1120" type="line"/>
      <point x="292" y="1153" type="line"/>
      <point x="92" y="1601" type="line"/>
      <point x="-113" y="1469" type="line"/>
      <point x="-37" y="1342"/>
      <point x="125" y="1182"/>
    </contour>
    <contour>
      <point x="-121" y="1120" type="curve"/>
      <point x="-119" y="1120" type="line"/>
      <point x="-80" y="1153" type="line"/>
      <point x="-280" y="1601" type="line"/>
      <point x="-485" y="1469" type="line"/>
      <point x="-409" y="1342"/>
      <point x="-247" y="1182"/>
    </contour>
  </outline>
</glyph>
<glyph name="breveinvertedcomb" format="2">
  <unicode hex="0311"/>
  <guideline x="-152" y="1128" angle="0"/>
  <anchor x="0" y="1110" name="_top"/>
  <anchor x="0" y="1589" name="top"/>
  <outline>
    <contour>
      <point x="0" y="1545" type="curve" smooth="yes"/>
      <point x="-182" y="1545"/>
      <point x="-301" y="1403"/>
      <point x="-301" y="1207" type="curve" smooth="yes"/>
      <point x="-301" y="1177"/>
      <point x="-300" y="1161"/>
      <point x="-297" y="1140" type="curve"/>
      <point x="-237" y="1140" type="line"/>
      <point x="-237" y="1153"/>
      <point x="-236" y="1170"/>
      <point x="-231" y="1189" type="curve" smooth="yes"/>
      <point x="-206" y="1285"/>
      <point x="-115" y="1335"/>
      <point x="0" y="1335" type="curve" smooth="yes"/>
      <point x="115" y="1335"/>
      <point x="206" y="1285"/>
      <point x="231" y="1189" type="curve" smooth="yes"/>
      <point x="236" y="1170"/>
      <point x="237" y="1153"/>
      <point x="237" y="1140" type="curve"/>
      <point x="297" y="1140" type="line"/>
      <point x="300" y="1161"/>
      <point x="301" y="1177"/>
      <point x="301" y="1207" type="curve" smooth="yes"/>
      <point x="301" y="1403"/>
      <point x="182" y="1545"/>
    </contour>
  </outline>
</glyph>
<glyph name="pi" format="2">
  <advance width="1351"/>
  <unicode hex="03C0"/>
  <outline>
    <contour>
      <point x="66" y="100" type="curve"/>
      <point x="265" y="-20" type="line"/>
      <point x="433" y="-20"/>
      <point x="515" y="117"/>
      <point x="542" y="359" type="curve" smooth="yes"/>
      <point x="580" y="702" type="line"/>
      <point x="891" y="702" type="line"/>
      <point x="821" y="560"/>
      <point x="714" y="359"/>
      <point x="714" y="177" type="curve" smooth="yes"/>
      <point x="714" y="44"/>
      <point x="798" y="-20"/>
      <point x="942" y="-20" type="curve" smooth="yes"/>
      <point x="1131" y="-20"/>
      <point x="1214" y="143"/>
      <point x="1259" y="351" type="curve"/>
      <point x="1209" y="351" type="line"/>
      <point x="1176" y="244"/>
      <point x="1118" y="202"/>
      <point x="1057" y="202" type="curve" smooth="yes"/>
      <point x="1002" y="202"/>
      <point x="935" y="244"/>
      <point x="935" y="415" type="curve" smooth="yes"/>
      <point x="935" y="546"/>
      <point x="934" y="591"/>
      <point x="952" y="702" type="curve"/>
      <point x="1080" y="702" type="line" smooth="yes"/>
      <point x="1245" y="702"/>
      <point x="1316" y="877"/>
      <point x="1316" y="1122" type="curve"/>
      <point x="1224" y="1122" type="line"/>
      <point x="1211" y="1044"/>
      <point x="1178" y="1024"/>
      <point x="1093" y="1024" type="curve" smooth="yes"/>
      <point x="421" y="1024" type="line" smooth="yes"/>
      <point x="183" y="1024"/>
      <point x="91" y="879"/>
      <point x="91" y="595" type="curve"/>
      <point x="182" y="588" type="line"/>
      <point x="192" y="667"/>
      <point x="235" y="702"/>
      <point x="313" y="702" type="curve"/>
      <point x="520" y="702" type="line"/>
      <point x="463" y="507" type="line" smooth="yes"/>
      <point x="412" y="332"/>
      <point x="300" y="152"/>
    </contour>
  </outline>
</glyph>
<glyph name="Lje-cy" format="2">
  <advance width="1980"/>
  <unicode hex="0409"/>
  <outline>
    <contour>
      <point x="133" y="-13" type="curve" smooth="yes"/>
      <point x="265" y="-13"/>
      <point x="333" y="59"/>
      <point x="409" y="201" type="curve" smooth="yes"/>
      <point x="502" y="383"/>
      <point x="560" y="755"/>
      <point x="560" y="1175" type="curve" smooth="yes"/>
      <point x="560" y="1414" type="line"/>
      <point x="818" y="1414" type="line"/>
      <point x="818" y="72" type="line"/>
      <point x="664" y="37" type="line"/>
      <point x="664" y="0" type="line"/>
      <point x="1045" y="0" type="line" smooth="yes"/>
      <point x="1182" y="0"/>
      <point x="1301" y="-16"/>
      <point x="1410" y="-16" type="curve" smooth="yes"/>
      <point x="1713" y="-16"/>
      <point x="1950" y="167"/>
      <point x="1950" y="481" type="curve" smooth="yes"/>
      <point x="1950" y="751"/>
      <point x="1766" y="920"/>
      <point x="1381" y="920" type="curve" smooth="yes"/>
      <point x="1334" y="920"/>
      <point x="1257" y="913"/>
      <point x="1202" y="906" type="curve"/>
      <point x="1202" y="1414" type="line"/>
      <point x="1355" y="1449" type="line"/>
      <point x="1355" y="1486" type="line"/>
      <point x="275" y="1486" type="line"/>
      <point x="275" y="1449" type="line"/>
      <point x="502" y="1414" type="line"/>
      <point x="502" y="1224" type="line" smooth="yes"/>
      <point x="502" y="721"/>
      <point x="431" y="528"/>
      <point x="378" y="418" type="curve" smooth="yes"/>
      <point x="312" y="287"/>
      <point x="230" y="284"/>
      <point x="146" y="284" type="curve" smooth="yes"/>
      <point x="86" y="284"/>
      <point x="53" y="286"/>
      <point x="10" y="290" type="curve"/>
      <point x="32" y="0" type="line"/>
      <point x="57" y="-8"/>
      <point x="91" y="-13"/>
    </contour>
    <contour>
      <point x="1301" y="53" type="curve" smooth="yes"/>
      <point x="1259" y="53"/>
      <point x="1229" y="57"/>
      <point x="1202" y="64" type="curve"/>
      <point x="1202" y="845" type="line"/>
      <point x="1223" y="850"/>
      <point x="1249" y="854"/>
      <point x="1279" y="854" type="curve" smooth="yes"/>
      <point x="1472" y="854"/>
      <point x="1564" y="730"/>
      <point x="1564" y="463" type="curve" smooth="yes"/>
      <point x="1564" y="241"/>
      <point x="1498" y="53"/>
    </contour>
  </outline>
</glyph>
<glyph name="Dzhe-cy" format="2">
  <advance width="1472"/>
  <unicode hex="040F"/>
  <outline>
    <contour>
      <point x="636" y="-410" type="curve"/>
      <point x="836" y="-410" type="line"/>
      <point x="838" y="-274"/>
      <point x="871" y="-51"/>
      <point x="888" y="0" type="curve"/>
      <point x="1454" y="0" type="line"/>
      <point x="1454" y="37" type="line"/>
      <point x="1320" y="72" type="line"/>
      <point x="1320" y="1414" type="line"/>
      <point x="1452" y="1449" type="line"/>
      <point x="1452" y="1486" type="line"/>
      <point x="795" y="1486" type="line"/>
      <point x="795" y="1449" type="line"/>
      <point x="937" y="1414" type="line"/>
      <point x="937" y="66" type="line"/>
      <point x="535" y="66" type="line"/>
      <point x="535" y="1414" type="line"/>
      <point x="678" y="1449" type="line"/>
      <point x="678" y="1486" type="line"/>
      <point x="19" y="1486" type="line"/>
      <point x="19" y="1449" type="line"/>
      <point x="152" y="1414" type="line"/>
      <point x="152" y="72" type="line"/>
      <point x="18" y="37" type="line"/>
      <point x="18" y="0" type="line"/>
      <point x="579" y="0" type="line"/>
      <point x="592" y="-19"/>
      <point x="636" y="-304"/>
    </contour>
  </outline>
</glyph>
<glyph name="Ge-cy" format="2">
  <advance width="1144"/>
  <unicode hex="0413"/>
  <anchor x="362" y="0" name="bottomright"/>
  <anchor x="606" y="744" name="center"/>
  <anchor x="590" y="1486" name="top"/>
  <outline>
    <contour>
      <point x="18" y="0" type="line"/>
      <point x="723" y="0" type="line"/>
      <point x="723" y="37" type="line"/>
      <point x="536" y="72" type="line"/>
      <point x="536" y="1432" type="line"/>
      <point x="829" y="1389" type="line"/>
      <point x="972" y="900" type="line"/>
      <point x="1109" y="900" type="line"/>
      <point x="1069" y="1486" type="line"/>
      <point x="19" y="1486" type="line"/>
      <point x="19" y="1449" type="line"/>
      <point x="152" y="1414" type="line"/>
      <point x="152" y="72" type="line"/>
      <point x="18" y="37" type="line"/>
    </contour>
  </outline>
</glyph>
<glyph name="De-cy" format="2">
  <advance width="1431"/>
  <unicode hex="0414"/>
  <outline>
    <contour>
      <point x="5" y="-410" type="curve"/>
      <point x="213" y="-410" type="line"/>
      <point x="226" y="-324"/>
      <point x="286" y="-36"/>
      <point x="318" y="0" type="curve"/>
      <point x="1101" y="0" type="line"/>
      <point x="1124" y="-35"/>
      <point x="1173" y="-345"/>
      <point x="1175" y="-406" type="curve"/>
      <point x="1377" y="-406" type="line"/>
      <point x="1384" y="-383"/>
      <point x="1413" y="-26"/>
      <point x="1413" y="72" type="curve"/>
      <point x="1213" y="72" type="line"/>
      <point x="1213" y="1414" type="line"/>
      <point x="1366" y="1449" type="line"/>
      <point x="1366" y="1486" type="line"/>
      <point x="268" y="1486" type="line"/>
      <point x="268" y="1449" type="line"/>
      <point x="493" y="1415" type="line"/>
      <point x="493" y="1240" type="line" smooth="yes"/>
      <point x="493" y="589"/>
      <point x="283" y="222"/>
      <point x="188" y="72" type="curve"/>
      <point x="24" y="72" type="line"/>
      <point x="9" y="-55"/>
      <point x="8" y="-352"/>
    </contour>
    <contour>
      <point x="275" y="72" type="line"/>
      <point x="373" y="245"/>
      <point x="558" y="637"/>
      <point x="558" y="1228" type="curve" smooth="yes"/>
      <point x="558" y="1414" type="line"/>
      <point x="809" y="1414" type="line"/>
      <point x="809" y="72" type="line"/>
    </contour>
  </outline>
</glyph>
<glyph name="El-cy" format="2">
  <advance width="1374"/>
  <unicode hex="041B"/>
  <outline>
    <contour>
      <point x="133" y="-13" type="curve" smooth="yes"/>
      <point x="265" y="-13"/>
      <point x="333" y="59"/>
      <point x="409" y="201" type="curve" smooth="yes"/>
      <point x="502" y="383"/>
      <point x="560" y="755"/>
      <point x="560" y="1175" type="curve" smooth="yes"/>
      <point x="560" y="1414" type="line"/>
      <point x="818" y="1414" type="line"/>
      <point x="818" y="72" type="line"/>
      <point x="664" y="37" type="line"/>
      <point x="664" y="0" type="line"/>
      <point x="1356" y="0" type="line"/>
      <point x="1356" y="37" type="line"/>
      <point x="1202" y="72" type="line"/>
      <point x="1202" y="1414" type="line"/>
      <point x="1355" y="1449" type="line"/>
      <point x="1355" y="1486" type="line"/>
      <point x="275" y="1486" type="line"/>
      <point x="275" y="1449" type="line"/>
      <point x="482" y="1414" type="line"/>
      <point x="482" y="1224" type="line" smooth="yes"/>
      <point x="482" y="721"/>
      <point x="431" y="528"/>
      <point x="378" y="418" type="curve" smooth="yes"/>
      <point x="312" y="287"/>
      <point x="230" y="284"/>
      <point x="146" y="284" type="curve" smooth="yes"/>
      <point x="86" y="284"/>
      <point x="53" y="286"/>
      <point x="10" y="290" type="curve"/>
      <point x="32" y="0" type="line"/>
      <point x="57" y="-8"/>
      <point x="91" y="-13"/>
    </contour>
  </outline>
</glyph>
<glyph name="Pe-cy" format="2">
  <advance width="1564"/>
  <unicode hex="041F"/>
  <anchor x="1025" y="0" name="bottomright"/>
  <outline>
    <contour>
      <point x="19" y="1486" type="line"/>
      <point x="19" y="1449" type="line"/>
      <point x="152" y="1414" type="line"/>
      <point x="152" y="72" type="line"/>
      <point x="18" y="37" type="line"/>
      <point x="18" y="0" type="line"/>
      <point x="679" y="0" type="line"/>
      <point x="679" y="37" type="line"/>
      <point x="535" y="72" type="line"/>
      <point x="535" y="1420" type="line"/>
      <point x="1029" y="1420" type="line"/>
      <point x="1029" y="72" type="line"/>
      <point x="887" y="37" type="line"/>
      <point x="887" y="0" type="line"/>
      <point x="1546" y="0" type="line"/>
      <point x="1546" y="37" type="line"/>
      <point x="1412" y="72" type="line"/>
      <point x="1412" y="1414" type="line"/>
      <point x="1544" y="1449" type="line"/>
      <point x="1544" y="1486" type="line"/>
    </contour>
  </outline>
</glyph>
<glyph name="U-cy" format="2">
  <advance width="1425"/>
  <unicode hex="0423"/>
  <anchor x="802" y="1486" name="top"/>
  <outline>
    <contour>
      <point x="457" y="-33" type="curve" smooth="yes"/>
      <point x="667" y="-33"/>
      <point x="766" y="183"/>
      <point x="821" y="311" type="curve" smooth="yes"/>
      <point x="1292" y="1414" type="line"/>
      <point x="1425" y="1449" type="line"/>
      <point x="1425" y="1486" type="line"/>
      <point x="1052" y="1486" type="line"/>
      <point x="1052" y="1449" type="line"/>
      <point x="1190" y="1414" type="line"/>
      <point x="943" y="772" type="line"/>
      <point x="893" y="612" type="line"/>
      <point x="921" y="682" type="line"/>
      <point x="873" y="794" type="line"/>
      <point x="556" y="1414" type="line"/>
      <point x="699" y="1449" type="line"/>
      <point x="699" y="1486" type="line"/>
      <point x="20" y="1486" type="line"/>
      <point x="20" y="1449" type="line"/>
      <point x="127" y="1414" type="line"/>
      <point x="744" y="230" type="line"/>
      <point x="741" y="301" type="line"/>
      <point x="713" y="226"/>
      <point x="639" y="189"/>
      <point x="517" y="189" type="curve" smooth="yes"/>
      <point x="410" y="189"/>
      <point x="350" y="206"/>
      <point x="266" y="231" type="curve"/>
      <point x="266" y="31" type="line"/>
      <point x="308" y="-3"/>
      <point x="384" y="-33"/>
    </contour>
  </outline>
</glyph>
<glyph name="Che-cy" format="2">
  <advance width="1382"/>
  <unicode hex="0427"/>
  <anchor x="1343" y="0" name="bottomright"/>
  <anchor x="691" y="744" name="center"/>
  <anchor x="658" y="1486" name="top"/>
  <outline>
    <contour>
      <point x="844" y="613" type="curve"/>
      <point x="844" y="72" type="line"/>
      <point x="640" y="37" type="line"/>
      <point x="640" y="0" type="line"/>
      <point x="1364" y="0" type="line"/>
      <point x="1364" y="37" type="line"/>
      <point x="1227" y="72" type="line"/>
      <point x="1227" y="1414" type="line"/>
      <point x="1364" y="1449" type="line"/>
      <point x="1364" y="1486" type="line"/>
      <point x="708" y="1486" type="line"/>
      <point x="708" y="1449" type="line"/>
      <point x="844" y="1414" type="line"/>
      <point x="844" y="674" type="line"/>
      <point x="805" y="648"/>
      <point x="743" y="629"/>
      <point x="683" y="629" type="curve" smooth="yes"/>
      <point x="557" y="629"/>
      <point x="494" y="707"/>
      <point x="494" y="865" type="curve" smooth="yes"/>
      <point x="494" y="1414" type="line"/>
      <point x="612" y="1449" type="line"/>
      <point x="612" y="1486" type="line"/>
      <point x="18" y="1486" type="line"/>
      <point x="18" y="1449" type="line"/>
      <point x="111" y="1414" type="line"/>
      <point x="111" y="862" type="line" smooth="yes"/>
      <point x="111" y="648"/>
      <point x="258" y="542"/>
      <point x="555" y="542" type="curve" smooth="yes"/>
      <point x="646" y="542"/>
      <point x="762" y="564"/>
    </contour>
  </outline>
</glyph>
<glyph name="Softsign-cy" format="2">
  <advance width="1314"/>
  <unicode hex="042C"/>
  <outline>
    <contour>
      <point x="744" y="-16" type="curve" smooth="yes"/>
      <point x="1047" y="-16"/>
      <point x="1284" y="162"/>
      <point x="1284" y="468" type="curve" smooth="yes"/>
      <point x="1284" y="731"/>
      <point x="1100" y="895"/>
      <point x="715" y="895" type="curve" smooth="yes"/>
      <point x="668" y="895"/>
      <point x="591" y="888"/>
      <point x="536" y="881" type="curve"/>
      <point x="536" y="1414" type="line"/>
      <point x="689" y="1449" type="line"/>
      <point x="689" y="1486" type="line"/>
      <point x="19" y="1486" type="line"/>
      <point x="19" y="1449" type="line"/>
      <point x="152" y="1414" type="line"/>
      <point x="152" y="72" type="line"/>
      <point x="18" y="37" type="line"/>
      <point x="18" y="0" type="line"/>
      <point x="379" y="-1" type="line" smooth="yes"/>
      <point x="516" y="-4"/>
      <point x="635" y="-16"/>
    </contour>
    <contour>
      <point x="635" y="53" type="curve" smooth="yes"/>
      <point x="593" y="53"/>
      <point x="563" y="57"/>
      <point x="536" y="64" type="curve"/>
      <point x="536" y="820" type="line"/>
      <point x="557" y="825"/>
      <point x="583" y="829"/>
      <point x="613" y="829" type="curve" smooth="yes"/>
      <point x="806" y="829"/>
      <point x="898" y="709"/>
      <point x="898" y="450" type="curve" smooth="yes"/>
      <point x="898" y="235"/>
      <point x="832" y="53"/>
    </contour>
  </outline>
</glyph>
<glyph name="Ia-cy" format="2">
  <advance width="1421"/>
  <unicode hex="042F"/>
  <outline>
    <contour>
      <point x="0" y="0" type="line"/>
      <point x="432" y="0" type="line" smooth="yes"/>
      <point x="513" y="0"/>
      <point x="594" y="505"/>
      <point x="729" y="636" type="curve"/>
      <point x="785" y="636"/>
      <point x="841" y="636"/>
      <point x="897" y="636" type="curve"/>
      <point x="897" y="72" type="line"/>
      <point x="753" y="37" type="line"/>
      <point x="753" y="0" type="line"/>
      <point x="1403" y="0" type="line"/>
      <point x="1403" y="37" type="line"/>
      <point x="1269" y="72" type="line"/>
      <point x="1269" y="1414" type="line"/>
      <point x="1402" y="1449" type="line"/>
      <point x="1402" y="1486" type="line"/>
      <point x="1070" y="1486" type="line" smooth="yes"/>
      <point x="945" y="1486"/>
      <point x="872" y="1489"/>
      <point x="721" y="1489" type="curve" smooth="yes"/>
      <point x="336" y="1489"/>
      <point x="173" y="1347"/>
      <point x="173" y="1077" type="curve" smooth="yes"/>
      <point x="173" y="872"/>
      <point x="285" y="713"/>
      <point x="512" y="659" type="curve"/>
      <point x="171" y="567"/>
      <point x="160" y="90"/>
      <point x="65" y="60" type="curve" smooth="yes"/>
      <point x="0" y="38" type="line"/>
    </contour>
    <contour>
      <point x="822" y="697" type="curve" smooth="yes"/>
      <point x="669" y="697"/>
      <point x="571" y="805"/>
      <point x="571" y="1090" type="curve" smooth="yes"/>
      <point x="571" y="1283"/>
      <point x="628" y="1433"/>
      <point x="789" y="1433" type="curve" smooth="yes"/>
      <point x="826" y="1433"/>
      <point x="861" y="1431"/>
      <point x="897" y="1423" type="curve"/>
      <point x="897" y="701" type="line"/>
      <point x="882" y="698"/>
      <point x="849" y="697"/>
    </contour>
  </outline>
</glyph>
<glyph name="be-cy" format="2">
  <advance width="1094"/>
  <unicode hex="0431"/>
  <outline>
    <contour>
      <point x="532" y="-24" type="curve" smooth="yes"/>
      <point x="846" y="-24"/>
      <point x="1078" y="177"/>
      <point x="1074" y="570" type="curve" smooth="yes"/>
      <point x="1071" y="855"/>
      <point x="905" y="1030"/>
      <point x="608" y="1030" type="curve" smooth="yes"/>
      <point x="522" y="1030"/>
      <point x="261" y="973"/>
      <point x="113" y="714" type="curve"/>
      <point x="119" y="1009"/>
      <point x="268" y="1168"/>
      <point x="623" y="1256" type="curve" smooth="yes"/>
      <point x="853" y="1313"/>
      <point x="966" y="1313"/>
      <point x="990" y="1389" type="curve"/>
      <point x="1072" y="1739" type="line"/>
      <point x="1024" y="1739" type="line"/>
      <point x="1001" y="1687" type="line" smooth="yes"/>
      <point x="974" y="1626"/>
      <point x="933" y="1597"/>
      <point x="749" y="1560" type="curve" smooth="yes"/>
      <point x="139" y="1439"/>
      <point x="33" y="980"/>
      <point x="33" y="642" type="curve" smooth="yes"/>
      <point x="33" y="150"/>
      <point x="237" y="-24"/>
    </contour>
    <contour>
      <point x="546" y="37" type="curve" smooth="yes"/>
      <point x="451" y="37"/>
      <point x="394" y="266"/>
      <point x="394" y="502" type="curve" smooth="yes"/>
      <point x="394" y="700"/>
      <point x="397" y="761"/>
      <point x="404" y="801" type="curve"/>
      <point x="427" y="866"/>
      <point x="483" y="974"/>
      <point x="560" y="970" type="curve" smooth="yes"/>
      <point x="665" y="965"/>
      <point x="699" y="783"/>
      <point x="699" y="622" type="curve" smooth="yes"/>
      <point x="699" y="200"/>
      <point x="656" y="37"/>
    </contour>
  </outline>
</glyph>
<glyph name="ve-cy" format="2">
  <advance width="1105"/>
  <unicode hex="0432"/>
  <outline>
    <contour>
      <point x="223" y="1005" type="curve" smooth="yes"/>
      <point x="18" y="1005" type="line"/>
      <point x="18" y="967" type="line"/>
      <point x="132" y="933" type="line"/>
      <point x="132" y="72" type="line"/>
      <point x="20" y="38" type="line"/>
      <point x="20" y="0" type="line"/>
      <point x="229" y="0" type="line" smooth="yes"/>
      <point x="327" y="0"/>
      <point x="462" y="-8"/>
      <point x="572" y="-8" type="curve" smooth="yes"/>
      <point x="937" y="-8"/>
      <point x="1075" y="96"/>
      <point x="1075" y="290" type="curve" smooth="yes"/>
      <point x="1075" y="466"/>
      <point x="941" y="543"/>
      <point x="772" y="547" type="curve"/>
      <point x="922" y="577"/>
      <point x="1011" y="654"/>
      <point x="1011" y="793" type="curve" smooth="yes"/>
      <point x="1011" y="954"/>
      <point x="859" y="1017"/>
      <point x="591" y="1017" type="curve" smooth="yes"/>
      <point x="478" y="1017"/>
      <point x="325" y="1005"/>
    </contour>
    <contour>
      <point x="456" y="66" type="curve"/>
      <point x="456" y="496" type="line"/>
      <point x="542" y="496" type="line" smooth="yes"/>
      <point x="648" y="496"/>
      <point x="731" y="420"/>
      <point x="731" y="274" type="curve" smooth="yes"/>
      <point x="731" y="137"/>
      <point x="639" y="56"/>
      <point x="543" y="56" type="curve" smooth="yes"/>
      <point x="509" y="56"/>
      <point x="477" y="60"/>
    </contour>
    <contour>
      <point x="541" y="558" type="curve"/>
      <point x="456" y="558" type="line"/>
      <point x="456" y="945" type="line"/>
      <point x="483" y="949"/>
      <point x="508" y="953"/>
      <point x="547" y="953" type="curve" smooth="yes"/>
      <point x="629" y="953"/>
      <point x="697" y="893"/>
      <point x="697" y="785" type="curve" smooth="yes"/>
      <point x="697" y="661"/>
      <point x="645" y="558"/>
    </contour>
  </outline>
</glyph>
<glyph name="ge-cy" format="2">
  <advance width="911"/>
  <unicode hex="0433"/>
  <anchor x="469" y="0" name="bottomright"/>
  <anchor x="485" y="556" name="center"/>
  <anchor x="472" y="1110" name="top"/>
  <outline>
    <contour>
      <point x="18" y="1005" type="line"/>
      <point x="18" y="967" type="line"/>
      <point x="136" y="933" type="line"/>
      <point x="136" y="72" type="line"/>
      <point x="18" y="38" type="line"/>
      <point x="18" y="0" type="line"/>
      <point x="660" y="0" type="line"/>
      <point x="660" y="38" type="line"/>
      <point x="472" y="72" type="line"/>
      <point x="472" y="957" type="line"/>
      <point x="637" y="947" type="line"/>
      <point x="705" y="590" type="line"/>
      <point x="901" y="590" type="line"/>
      <point x="891" y="1005" type="line"/>
    </contour>
  </outline>
</glyph>
<glyph name="ka-cy" format="2">
  <advance width="1169"/>
  <unicode hex="043A"/>
  <anchor x="1101" y="0" name="bottomright"/>
  <anchor x="587" y="503" name="center"/>
  <anchor x="639" y="1110" name="top"/>
  <outline>
    <contour>
      <point x="706" y="570" type="curve"/>
      <point x="935" y="931" type="line"/>
      <point x="1103" y="967" type="line"/>
      <point x="1103" y="1005" type="line"/>
      <point x="715" y="1005" type="line"/>
      <point x="715" y="967" type="line"/>
      <point x="845" y="931" type="line"/>
      <point x="618" y="570" type="line"/>
      <point x="468" y="570" type="line"/>
      <point x="468" y="933" type="line"/>
      <point x="574" y="967" type="line"/>
      <point x="574" y="1005" type="line"/>
      <point x="21" y="1005" type="line"/>
      <point x="21" y="967" type="line"/>
      <point x="136" y="933" type="line"/>
      <point x="136" y="72" type="line"/>
      <point x="18" y="38" type="line"/>
      <point x="18" y="0" type="line"/>
      <point x="590" y="0" type="line"/>
      <point x="590" y="38" type="line"/>
      <point x="468" y="72" type="line"/>
      <point x="468" y="496" type="line"/>
      <point x="511" y="496" type="line" smooth="yes"/>
      <point x="684" y="496"/>
      <point x="673" y="0"/>
      <point x="885" y="0" type="curve"/>
      <point x="1189" y="0" type="line"/>
      <point x="1189" y="38" type="line"/>
      <point x="1143" y="54" type="line" smooth="yes"/>
      <point x="985" y="109"/>
      <point x="1033" y="558"/>
    </contour>
  </outline>
</glyph>
<glyph name="en-cy" format="2">
  <advance width="1246"/>
  <unicode hex="043D"/>
  <anchor x="1258" y="0" name="bottomright"/>
  <outline>
    <contour>
      <point x="18" y="0" type="line"/>
      <point x="570" y="0" type="line"/>
      <point x="570" y="38" type="line"/>
      <point x="468" y="72" type="line"/>
      <point x="468" y="486" type="line"/>
      <point x="776" y="486" type="line"/>
      <point x="776" y="72" type="line"/>
      <point x="672" y="38" type="line"/>
      <point x="672" y="0" type="line"/>
      <point x="1228" y="0" type="line"/>
      <point x="1228" y="38" type="line"/>
      <point x="1110" y="72" type="line"/>
      <point x="1110" y="933" type="line"/>
      <point x="1226" y="967" type="line"/>
      <point x="1226" y="1005" type="line"/>
      <point x="672" y="1005" type="line"/>
      <point x="672" y="967" type="line"/>
      <point x="776" y="933" type="line"/>
      <point x="776" y="550" type="line"/>
      <point x="468" y="550" type="line"/>
      <point x="468" y="933" type="line"/>
      <point x="570" y="967" type="line"/>
      <point x="570" y="1005" type="line"/>
      <point x="20" y="1005" type="line"/>
      <point x="20" y="967" type="line"/>
      <point x="136" y="933" type="line"/>
      <point x="136" y="72" type="line"/>
      <point x="18" y="38" type="line"/>
    </contour>
  </outline>
</glyph>
<glyph name="pe-cy" format="2">
  <advance width="1230"/>
  <unicode hex="043F"/>
  <anchor x="918" y="0" name="bottomright"/>
  <outline>
    <contour>
      <point x="22" y="1005" type="line"/>
      <point x="22" y="967" type="line"/>
      <point x="144" y="933" type="line"/>
      <point x="144" y="72" type="line"/>
      <point x="18" y="38" type="line"/>
      <point x="18" y="0" type="line"/>
      <point x="583" y="0" type="line"/>
      <point x="583" y="38" type="line"/>
      <point x="481" y="72" type="line"/>
      <point x="481" y="939" type="line"/>
      <point x="750" y="939" type="line"/>
      <point x="750" y="72" type="line"/>
      <point x="648" y="38" type="line"/>
      <point x="648" y="0" type="line"/>
      <point x="1212" y="0" type="line"/>
      <point x="1212" y="38" type="line"/>
      <point x="1086" y="72" type="line"/>
      <point x="1086" y="933" type="line"/>
      <point x="1208" y="967" type="line"/>
      <point x="1208" y="1005" type="line"/>
    </contour>
  </outline>
</glyph>
<glyph name="te-cy" format="2">
  <advance width="1150"/>
  <unicode hex="0442"/>
  <anchor x="713" y="-166" name="mark0"/>
  <outline>
    <contour>
      <point x="30" y="1005" type="line"/>
      <point x="20" y="588" type="line"/>
      <point x="216" y="588" type="line"/>
      <point x="280" y="947" type="line"/>
      <point x="407" y="957" type="line"/>
      <point x="407" y="72" type="line"/>
      <point x="217" y="38" type="line"/>
      <point x="217" y="0" type="line"/>
      <point x="933" y="0" type="line"/>
      <point x="933" y="38" type="line"/>
      <point x="743" y="72" type="line"/>
      <point x="743" y="957" type="line"/>
      <point x="870" y="947" type="line"/>
      <point x="934" y="588" type="line"/>
      <point x="1130" y="588" type="line"/>
      <point x="1120" y="1005" type="line"/>
    </contour>
  </outline>
</glyph>
<glyph name="tse-cy" format="2">
  <advance width="1274"/>
  <unicode hex="0446"/>
  <outline>
    <contour>
      <point x="18" y="0" type="line"/>
      <point x="1242" y="0" type="line"/>
      <point x="1242" y="34" type="line"/>
      <point x="1086" y="71" type="line"/>
      <point x="1086" y="933" type="line"/>
      <point x="1212" y="967" type="line"/>
      <point x="1212" y="1005" type="line"/>
      <point x="647" y="1005" type="line"/>
      <point x="647" y="967" type="line"/>
      <point x="749" y="933" type="line"/>
      <point x="749" y="66" type="line"/>
      <point x="480" y="66" type="line"/>
      <point x="480" y="933" type="line"/>
      <point x="582" y="967" type="line"/>
      <point x="582" y="1005" type="line"/>
      <point x="22" y="1005" type="line"/>
      <point x="22" y="967" type="line"/>
      <point x="144" y="933" type="line"/>
      <point x="144" y="72" type="line"/>
      <point x="18" y="38" type="line"/>
    </contour>
    <contour>
      <point x="1007" y="64" type="line"/>
      <point x="1007" y="0" type="line"/>
      <point x="1039" y="-66"/>
      <point x="1103" y="-319"/>
      <point x="1114" y="-416" type="curve"/>
      <point x="1186" y="-416" type="line"/>
      <point x="1201" y="-310"/>
      <point x="1240" y="-67"/>
      <point x="1263" y="64" type="curve"/>
    </contour>
  </outline>
</glyph>
<glyph name="che-cy" format="2">
  <advance width="1160"/>
  <unicode hex="0447"/>
  <anchor x="1124" y="0" name="bottomright"/>
  <anchor x="595" y="503" name="center"/>
  <anchor x="574" y="1110" name="top"/>
  <outline>
    <contour>
      <point x="692" y="446" type="curve"/>
      <point x="692" y="72" type="line"/>
      <point x="532" y="39" type="line"/>
      <point x="532" y="0" type="line"/>
      <point x="1142" y="0" type="line"/>
      <point x="1142" y="39" type="line"/>
      <point x="1024" y="72" type="line"/>
      <point x="1024" y="937" type="line"/>
      <point x="1142" y="969" type="line"/>
      <point x="1142" y="1005" type="line"/>
      <point x="606" y="1005" type="line"/>
      <point x="606" y="969" type="line"/>
      <point x="692" y="935" type="line"/>
      <point x="692" y="504" type="line"/>
      <point x="662" y="483"/>
      <point x="618" y="466"/>
      <point x="560" y="466" type="curve" smooth="yes"/>
      <point x="435" y="466"/>
      <point x="422" y="543"/>
      <point x="422" y="741" type="curve" smooth="yes"/>
      <point x="422" y="935" type="line"/>
      <point x="502" y="969" type="line"/>
      <point x="502" y="1005" type="line"/>
      <point x="4" y="1005" type="line"/>
      <point x="4" y="969" type="line"/>
      <point x="90" y="937" type="line"/>
      <point x="90" y="705" type="line" smooth="yes"/>
      <point x="90" y="486"/>
      <point x="182" y="364"/>
      <point x="428" y="364" type="curve" smooth="yes"/>
      <point x="560" y="364"/>
      <point x="649" y="401"/>
    </contour>
  </outline>
</glyph>
<glyph name="shcha-cy" format="2">
  <advance width="1830"/>
  <unicode hex="0449"/>
  <outline>
    <contour>
      <point x="18" y="0" type="line"/>
      <point x="1528" y="0" type="line"/>
      <point x="1559" y="-66"/>
      <point x="1633" y="-319"/>
      <point x="1650" y="-416" type="curve"/>
      <point x="1740" y="-416" type="line"/>
      <point x="1754" y="-310"/>
      <point x="1793" y="-67"/>
      <point x="1814" y="64" type="curve"/>
      <point x="1658" y="64" type="line"/>
      <point x="1658" y="934" type="line"/>
      <point x="1780" y="968" type="line"/>
      <point x="1780" y="1006" type="line"/>
      <point x="1232" y="1006" type="line"/>
      <point x="1232" y="968" type="line"/>
      <point x="1328" y="934" type="line"/>
      <point x="1328" y="70" type="line"/>
      <point x="1066" y="70" type="line"/>
      <point x="1066" y="934" type="line"/>
      <point x="1154" y="968" type="line"/>
      <point x="1154" y="1006" type="line"/>
      <point x="648" y="1006" type="line"/>
      <point x="648" y="968" type="line"/>
      <point x="736" y="934" type="line"/>
      <point x="736" y="70" type="line"/>
      <point x="474" y="70" type="line"/>
      <point x="474" y="934" type="line"/>
      <point x="572" y="968" type="line"/>
      <point x="572" y="1006" type="line"/>
      <point x="22" y="1006" type="line"/>
      <point x="22" y="968" type="line"/>
      <point x="144" y="934" type="line"/>
      <point x="144" y="72" type="line"/>
      <point x="18" y="38" type="line"/>
    </contour>
  </outline>
</glyph>
<glyph name="hardsign-cy" format="2">
  <advance width="1341"/>
  <unicode hex="044A"/>
  <outline>
    <contour>
      <point x="233" y="0" type="line"/>
      <point x="570" y="0" type="line" smooth="yes"/>
      <point x="646" y="0"/>
      <point x="864" y="-6"/>
      <point x="924" y="-6" type="curve" smooth="yes"/>
      <point x="1186" y="-6"/>
      <point x="1321" y="113"/>
      <point x="1321" y="343" type="curve" smooth="yes"/>
      <point x="1321" y="563"/>
      <point x="1183" y="646"/>
      <point x="963" y="646" type="curve" smooth="yes"/>
      <point x="870" y="646"/>
      <point x="806" y="631"/>
      <point x="755" y="612" type="curve"/>
      <point x="755" y="933" type="line"/>
      <point x="915" y="967" type="line"/>
      <point x="915" y="1005" type="line"/>
      <point x="30" y="1005" type="line"/>
      <point x="20" y="589" type="line"/>
      <point x="211" y="589" type="line"/>
      <point x="299" y="947" type="line"/>
      <point x="423" y="957" type="line"/>
      <point x="423" y="72" type="line"/>
      <point x="233" y="38" type="line"/>
    </contour>
    <contour>
      <point x="809" y="54" type="curve" smooth="yes"/>
      <point x="787" y="54"/>
      <point x="768" y="57"/>
      <point x="755" y="62" type="curve"/>
      <point x="755" y="568" type="line"/>
      <point x="770" y="573"/>
      <point x="797" y="578"/>
      <point x="827" y="578" type="curve" smooth="yes"/>
      <point x="908" y="578"/>
      <point x="979" y="509"/>
      <point x="979" y="329" type="curve" smooth="yes"/>
      <point x="979" y="142"/>
      <point x="903" y="54"/>
    </contour>
  </outline>
</glyph>
<glyph name="yeru-cy" format="2">
  <advance width="1632"/>
  <unicode hex="044B"/>
  <anchor x="829" y="1110" name="top"/>
  <outline>
    <contour>
      <point x="1030" y="1005" type="line"/>
      <point x="1030" y="967" type="line"/>
      <point x="1152" y="933" type="line"/>
      <point x="1152" y="72" type="line"/>
      <point x="1040" y="38" type="line"/>
      <point x="1040" y="0" type="line"/>
      <point x="1614" y="0" type="line"/>
      <point x="1614" y="38" type="line"/>
      <point x="1488" y="72" type="line"/>
      <point x="1488" y="933" type="line"/>
      <point x="1610" y="967" type="line"/>
      <point x="1610" y="1005" type="line"/>
    </contour>
    <component base="softsign-cy"/>
  </outline>
</glyph>
<glyph name="softsign-cy" format="2">
  <advance width="1064"/>
  <unicode hex="044C"/>
  <outline>
    <contour>
      <point x="18" y="0" type="line"/>
      <point x="291" y="0" type="line" smooth="yes"/>
      <point x="367" y="0"/>
      <point x="586" y="-6"/>
      <point x="646" y="-6" type="curve" smooth="yes"/>
      <point x="908" y="-6"/>
      <point x="1044" y="120"/>
      <point x="1044" y="344" type="curve" smooth="yes"/>
      <point x="1044" y="570"/>
      <point x="903" y="646"/>
      <point x="685" y="646" type="curve" smooth="yes"/>
      <point x="590" y="646"/>
      <point x="527" y="631"/>
      <point x="476" y="612" type="curve"/>
      <point x="476" y="933" type="line"/>
      <point x="618" y="967" type="line"/>
      <point x="618" y="1005" type="line"/>
      <point x="22" y="1005" type="line"/>
      <point x="22" y="967" type="line"/>
      <point x="144" y="933" type="line"/>
      <point x="144" y="72" type="line"/>
      <point x="18" y="38" type="line"/>
    </contour>
    <contour>
      <point x="530" y="54" type="curve" smooth="yes"/>
      <point x="509" y="54"/>
      <point x="489" y="57"/>
      <point x="476" y="62" type="curve"/>
      <point x="476" y="568" type="line"/>
      <point x="491" y="573"/>
      <point x="520" y="578"/>
      <point x="549" y="578" type="curve" smooth="yes"/>
      <point x="630" y="578"/>
      <point x="702" y="508"/>
      <point x="702" y="328" type="curve" smooth="yes"/>
      <point x="702" y="141"/>
      <point x="624" y="54"/>
    </contour>
  </outline>
</glyph>
<glyph name="iu-cy" format="2">
  <advance width="1670"/>
  <unicode hex="044E"/>
  <outline>
    <contour>
      <point x="18" y="0" type="line"/>
      <point x="570" y="0" type="line"/>
      <point x="570" y="38" type="line"/>
      <point x="468" y="72" type="line"/>
      <point x="468" y="486" type="line"/>
      <point x="628" y="486" type="line"/>
      <point x="632" y="150"/>
      <point x="797" y="-24"/>
      <point x="1110" y="-24" type="curve" smooth="yes"/>
      <point x="1390" y="-24"/>
      <point x="1639" y="135"/>
      <point x="1639" y="515" type="curve" smooth="yes"/>
      <point x="1639" y="856"/>
      <point x="1475" y="1039"/>
      <point x="1157" y="1039" type="curve" smooth="yes"/>
      <point x="892" y="1039"/>
      <point x="652" y="881"/>
      <point x="630" y="550" type="curve"/>
      <point x="468" y="550" type="line"/>
      <point x="468" y="933" type="line"/>
      <point x="570" y="967" type="line"/>
      <point x="570" y="1005" type="line"/>
      <point x="20" y="1005" type="line"/>
      <point x="20" y="967" type="line"/>
      <point x="136" y="933" type="line"/>
      <point x="136" y="72" type="line"/>
      <point x="18" y="38" type="line"/>
    </contour>
    <contour>
      <point x="1138" y="983" type="curve" smooth="yes"/>
      <point x="1250" y="983"/>
      <point x="1269" y="807"/>
      <point x="1269" y="489" type="curve" smooth="yes"/>
      <point x="1269" y="170"/>
      <point x="1236" y="32"/>
      <point x="1137" y="32" type="curve" smooth="yes"/>
      <point x="1026" y="32"/>
      <point x="1000" y="195"/>
      <point x="1000" y="522" type="curve" smooth="yes"/>
      <point x="1000" y="833"/>
      <point x="1038" y="983"/>
    </contour>
  </outline>
</glyph>
<glyph name="ia-cy" format="2">
  <advance width="1128"/>
  <unicode hex="044F"/>
  <outline>
    <contour>
      <point x="548" y="0" type="line"/>
      <point x="1110" y="0" type="line"/>
      <point x="1110" y="38" type="line"/>
      <point x="992" y="72" type="line"/>
      <point x="992" y="933" type="line"/>
      <point x="1108" y="967" type="line"/>
      <point x="1108" y="1005" type="line"/>
      <point x="906" y="1005" type="line" smooth="yes"/>
      <point x="808" y="1005"/>
      <point x="688" y="1016"/>
      <point x="565" y="1016" type="curve" smooth="yes"/>
      <point x="259" y="1016"/>
      <point x="102" y="892"/>
      <point x="102" y="709" type="curve" smooth="yes"/>
      <point x="102" y="558"/>
      <point x="210" y="458"/>
      <point x="430" y="456" type="curve"/>
      <point x="412" y="481" type="line"/>
      <point x="149" y="481"/>
      <point x="169" y="111"/>
      <point x="30" y="58" type="curve" smooth="yes"/>
      <point x="-22" y="38" type="line"/>
      <point x="-22" y="0" type="line"/>
      <point x="318" y="0" type="line" smooth="yes"/>
      <point x="407" y="0"/>
      <point x="460" y="378"/>
      <point x="564" y="452" type="curve"/>
      <point x="668" y="452" type="line"/>
      <point x="668" y="72" type="line"/>
      <point x="548" y="38" type="line"/>
    </contour>
    <contour>
      <point x="601" y="502" type="curve" smooth="yes"/>
      <point x="471" y="502"/>
      <point x="432" y="628"/>
      <point x="432" y="749" type="curve" smooth="yes"/>
      <point x="432" y="937"/>
      <point x="524" y="960"/>
      <point x="593" y="960" type="curve" smooth="yes"/>
      <point x="618" y="960"/>
      <point x="651" y="957"/>
      <point x="668" y="954" type="curve"/>
      <point x="668" y="508" type="line"/>
      <point x="650" y="505"/>
      <point x="623" y="502"/>
    </contour>
  </outline>
</glyph>
<glyph name="e-cy" format="2">
  <advance width="956"/>
  <unicode hex="0454"/>
  <outline>
    <contour>
      <point x="520" y="-28" type="curve" smooth="yes"/>
      <point x="676" y="-28"/>
      <point x="805" y="19"/>
      <point x="908" y="70" type="curve"/>
      <point x="902" y="332" type="line"/>
      <point x="710" y="332" type="line"/>
      <point x="646" y="64" type="line"/>
      <point x="627" y="46"/>
      <point x="596" y="28"/>
      <point x="555" y="28" type="curve" smooth="yes"/>
      <point x="447" y="28"/>
      <point x="404" y="245"/>
      <point x="395" y="472" type="curve" smooth="yes"/>
      <point x="393" y="522" type="line" smooth="yes"/>
      <point x="383" y="774"/>
      <point x="439" y="983"/>
      <point x="548" y="983" type="curve" smooth="yes"/>
      <point x="593" y="983"/>
      <point x="623" y="956"/>
      <point x="632" y="925" type="curve" smooth="yes"/>
      <point x="693" y="706" type="line"/>
      <point x="883" y="706" type="line"/>
      <point x="893" y="978" type="line"/>
      <point x="784" y="1020"/>
      <point x="701" y="1039"/>
      <point x="590" y="1039" type="curve" smooth="yes"/>
      <point x="169" y="1039"/>
      <point x="31" y="766"/>
      <point x="31" y="481" type="curve" smooth="yes"/>
      <point x="31" y="181"/>
      <point x="191" y="-28"/>
    </contour>
    <contour>
      <point x="683" y="443" type="line"/>
      <point x="683" y="615" type="line"/>
      <point x="124" y="550" type="line"/>
      <point x="124" y="501" type="line"/>
    </contour>
  </outline>
</glyph>
<glyph name="lje-cy" format="2">
  <advance width="1568"/>
  <unicode hex="0459"/>
  <anchor x="635" y="-150" name="mark0"/>
  <outline>
    <contour>
      <point x="464" y="0" type="line"/>
      <point x="763" y="0" type="line" smooth="yes"/>
      <point x="854" y="0"/>
      <point x="1036" y="-12"/>
      <point x="1112" y="-12" type="curve" smooth="yes"/>
      <point x="1374" y="-12"/>
      <point x="1548" y="100"/>
      <point x="1548" y="323" type="curve" smooth="yes"/>
      <point x="1548" y="532"/>
      <point x="1394" y="608"/>
      <point x="1179" y="608" type="curve" smooth="yes"/>
      <point x="1082" y="608"/>
      <point x="1007" y="593"/>
      <point x="956" y="574" type="curve"/>
      <point x="956" y="933" type="line"/>
      <point x="1075" y="967" type="line"/>
      <point x="1075" y="1005" type="line"/>
      <point x="147" y="1005" type="line"/>
      <point x="147" y="967" type="line"/>
      <point x="311" y="933" type="line"/>
      <point x="311" y="377"/>
      <point x="255" y="240"/>
      <point x="123" y="240" type="curve" smooth="yes"/>
      <point x="78" y="240"/>
      <point x="35" y="245"/>
      <point x="8" y="252" type="curve"/>
      <point x="24" y="-2" type="line"/>
      <point x="45" y="-9"/>
      <point x="74" y="-14"/>
      <point x="103" y="-14" type="curve" smooth="yes"/>
      <point x="194" y="-14"/>
      <point x="249" y="37"/>
      <point x="290" y="114" type="curve" smooth="yes"/>
      <point x="335" y="198"/>
      <point x="383" y="375"/>
      <point x="383" y="837" type="curve" smooth="yes"/>
      <point x="383" y="937" type="line"/>
      <point x="620" y="937" type="line"/>
      <point x="620" y="72" type="line"/>
      <point x="464" y="38" type="line"/>
    </contour>
    <contour>
      <point x="1022" y="48" type="curve" smooth="yes"/>
      <point x="998" y="48"/>
      <point x="971" y="54"/>
      <point x="956" y="62" type="curve"/>
      <point x="956" y="530" type="line"/>
      <point x="971" y="535"/>
      <point x="1009" y="540"/>
      <point x="1035" y="540" type="curve" smooth="yes"/>
      <point x="1122" y="540"/>
      <point x="1206" y="479"/>
      <point x="1206" y="307" type="curve" smooth="yes"/>
      <point x="1206" y="128"/>
      <point x="1116" y="48"/>
    </contour>
  </outline>
</glyph>
<glyph name="dzhe-cy" format="2">
  <advance width="1217"/>
  <unicode hex="045F"/>
  <outline>
    <contour>
      <point x="18" y="0" type="line"/>
      <point x="474" y="0" type="line"/>
      <point x="496" y="-78"/>
      <point x="535" y="-261"/>
      <point x="567" y="-412" type="curve"/>
      <point x="657" y="-412" type="line"/>
      <point x="683" y="-261"/>
      <point x="727" y="-80"/>
      <point x="744" y="0" type="curve"/>
      <point x="1199" y="0" type="line"/>
      <point x="1199" y="38" type="line"/>
      <point x="1073" y="72" type="line"/>
      <point x="1073" y="934" type="line"/>
      <point x="1195" y="968" type="line"/>
      <point x="1195" y="1006" type="line"/>
      <point x="647" y="1006" type="line"/>
      <point x="647" y="968" type="line"/>
      <point x="743" y="934" type="line"/>
      <point x="743" y="70" type="line"/>
      <point x="474" y="70" type="line"/>
      <point x="474" y="934" type="line"/>
      <point x="572" y="968" type="line"/>
      <point x="572" y="1006" type="line"/>
      <point x="22" y="1006" type="line"/>
      <point x="22" y="968" type="line"/>
      <point x="144" y="934" type="line"/>
      <point x="144" y="72" type="line"/>
      <point x="18" y="38" type="line"/>
    </contour>
  </outline>
</glyph>
<glyph name="fita-cy" format="2">
  <advance width="1109"/>
  <unicode hex="0473"/>
  <anchor x="555" y="0" name="bottom"/>
  <anchor x="555" y="503" name="center"/>
  <anchor x="593" y="10" name="ogonek"/>
  <anchor x="555" y="1110" name="top"/>
  <anchor x="746" y="1005" name="topright"/>
  <outline>
    <contour>
      <point x="617" y="390" type="curve" smooth="yes"/>
      <point x="652" y="390"/>
      <point x="681" y="409"/>
      <point x="700" y="443" type="curve"/>
      <point x="700" y="547" type="line"/>
      <point x="683" y="537"/>
      <point x="664" y="531"/>
      <point x="648" y="531" type="curve" smooth="yes"/>
      <point x="591" y="531"/>
      <point x="567" y="609"/>
      <point x="496" y="609" type="curve" smooth="yes"/>
      <point x="461" y="609"/>
      <point x="430" y="590"/>
      <point x="411" y="556" type="curve"/>
      <point x="411" y="452" type="line"/>
      <point x="428" y="462"/>
      <point x="447" y="468"/>
      <point x="463" y="468" type="curve" smooth="yes"/>
      <point x="520" y="468"/>
      <point x="547" y="390"/>
    </contour>
    <component base="o"/>
  </outline>
</glyph>
<glyph name="semisoftsign-cy" format="2">
  <advance width="1058"/>
  <unicode hex="048D"/>
  <anchor x="311" y="-166" name="mark0"/>
  <outline>
    <contour>
      <point x="652" y="-6" type="curve" smooth="yes"/>
      <point x="914" y="-6"/>
      <point x="1050" y="120"/>
      <point x="1050" y="344" type="curve" smooth="yes"/>
      <point x="1050" y="570"/>
      <point x="909" y="646"/>
      <point x="691" y="646" type="curve" smooth="yes"/>
      <point x="596" y="646"/>
      <point x="533" y="631"/>
      <point x="482" y="612" type="curve"/>
      <point x="482" y="943" type="line"/>
      <point x="782" y="943" type="line"/>
      <point x="782" y="1005" type="line"/>
      <point x="482" y="1005" type="line"/>
      <point x="482" y="1590" type="line"/>
      <point x="427" y="1634" type="line"/>
      <point x="391" y="1634" type="line"/>
      <point x="36" y="1519" type="line"/>
      <point x="36" y="1480" type="line"/>
      <point x="146" y="1433" type="line"/>
      <point x="146" y="1005" type="line"/>
      <point x="16" y="1005" type="line"/>
      <point x="16" y="943" type="line"/>
      <point x="146" y="943" type="line"/>
      <point x="146" y="72" type="line"/>
      <point x="-10" y="38" type="line"/>
      <point x="-10" y="0" type="line"/>
      <point x="297" y="0" type="line" smooth="yes"/>
      <point x="373" y="0"/>
      <point x="592" y="-6"/>
    </contour>
    <contour>
      <point x="536" y="54" type="curve" smooth="yes"/>
      <point x="515" y="54"/>
      <point x="495" y="57"/>
      <point x="482" y="62" type="curve"/>
      <point x="482" y="568" type="line"/>
      <point x="497" y="573"/>
      <point x="526" y="578"/>
      <point x="555" y="578" type="curve" smooth="yes"/>
      <point x="636" y="578"/>
      <point x="708" y="508"/>
      <point x="708" y="328" type="curve" smooth="yes"/>
      <point x="708" y="141"/>
      <point x="630" y="54"/>
    </contour>
  </outline>
</glyph>
<glyph name="Ertick-cy" format="2">
  <advance width="1327"/>
  <unicode hex="048E"/>
  <anchor x="345" y="0" name="bottom"/>
  <anchor x="667" y="-166" name="mark0"/>
  <anchor x="701" y="1486" name="top"/>
  <outline>
    <contour>
      <point x="1093" y="363" type="line"/>
      <point x="1142" y="402" type="line"/>
      <point x="658" y="924" type="line"/>
      <point x="609" y="885" type="line"/>
    </contour>
    <component base="P"/>
  </outline>
</glyph>
<glyph name="Gheupturn-cy" format="2">
  <advance width="1134"/>
  <unicode hex="0490"/>
  <outline>
    <contour>
      <point x="18" y="0" type="line"/>
      <point x="751" y="0" type="line"/>
      <point x="751" y="37" type="line"/>
      <point x="532" y="72" type="line"/>
      <point x="532" y="1437" type="line"/>
      <point x="1074" y="1398" type="line"/>
      <point x="1094" y="1836" type="line"/>
      <point x="942" y="1836" type="line"/>
      <point x="833" y="1486" type="line"/>
      <point x="19" y="1486" type="line"/>
      <point x="19" y="1449" type="line"/>
      <point x="152" y="1414" type="line"/>
      <point x="152" y="72" type="line"/>
      <point x="18" y="37" type="line"/>
    </contour>
  </outline>
</glyph>
<glyph name="gheupturn-cy" format="2">
  <advance width="886"/>
  <unicode hex="0491"/>
  <anchor x="263" y="-166" name="mark0"/>
  <outline>
    <contour>
      <point x="768" y="1371" type="line"/>
      <point x="626" y="1005" type="line"/>
      <point x="18" y="1005" type="line"/>
      <point x="18" y="967" type="line"/>
      <point x="136" y="933" type="line"/>
      <point x="136" y="72" type="line"/>
      <point x="18" y="38" type="line"/>
      <point x="18" y="0" type="line"/>
      <point x="660" y="0" type="line"/>
      <point x="660" y="38" type="line"/>
      <point x="472" y="72" type="line"/>
      <point x="472" y="957" type="line"/>
      <point x="876" y="932" type="line"/>
      <point x="858" y="1371" type="line"/>
    </contour>
  </outline>
</glyph>
<glyph name="ghestroke-cy" format="2">
  <advance width="911"/>
  <unicode hex="0493"/>
  <anchor x="469" y="0" name="bottomright"/>
  <anchor x="485" y="556" name="center"/>
  <anchor x="472" y="1110" name="top"/>
  <outline>
    <contour>
      <point x="650" y="432" type="line"/>
      <point x="46" y="432" type="line"/>
      <point x="46" y="374" type="line"/>
      <point x="650" y="374" type="line"/>
    </contour>
    <component base="ge-cy"/>
  </outline>
</glyph>
<glyph name="Ghemiddlehook-cy" format="2">
  <advance width="1400"/>
  <unicode hex="0494"/>
  <outline>
    <contour>
      <point x="778" y="-410" type="curve" smooth="yes"/>
      <point x="1126" y="-410"/>
      <point x="1350" y="-141"/>
      <point x="1350" y="286" type="curve" smooth="yes"/>
      <point x="1350" y="670"/>
      <point x="1169" y="860"/>
      <point x="804" y="860" type="curve" smooth="yes"/>
      <point x="709" y="860"/>
      <point x="608" y="838"/>
      <point x="536" y="803" type="curve"/>
      <point x="536" y="1432" type="line"/>
      <point x="829" y="1389" type="line"/>
      <point x="962" y="1062" type="line"/>
      <point x="1099" y="1062" type="line"/>
      <point x="1069" y="1486" type="line"/>
      <point x="19" y="1486" type="line"/>
      <point x="19" y="1449" type="line"/>
      <point x="152" y="1414" type="line"/>
      <point x="152" y="72" type="line"/>
      <point x="18" y="37" type="line"/>
      <point x="18" y="0" type="line"/>
      <point x="723" y="0" type="line"/>
      <point x="723" y="37" type="line"/>
      <point x="536" y="72" type="line"/>
      <point x="536" y="744" type="line"/>
      <point x="576" y="765"/>
      <point x="629" y="782"/>
      <point x="694" y="782" type="curve" smooth="yes"/>
      <point x="864" y="782"/>
      <point x="962" y="603"/>
      <point x="962" y="292" type="curve" smooth="yes"/>
      <point x="962" y="-128"/>
      <point x="874" y="-348"/>
      <point x="688" y="-348" type="curve" smooth="yes"/>
      <point x="629" y="-348"/>
      <point x="607" y="-342"/>
      <point x="594" y="-338" type="curve"/>
      <point x="594" y="-378" type="line"/>
      <point x="622" y="-390"/>
      <point x="686" y="-410"/>
    </contour>
  </outline>
</glyph>
<glyph name="ghemiddlehook-cy" format="2">
  <advance width="1186"/>
  <unicode hex="0495"/>
  <outline>
    <contour>
      <point x="686" y="-509" type="curve" smooth="yes"/>
      <point x="996" y="-509"/>
      <point x="1178" y="-341"/>
      <point x="1178" y="85" type="curve" smooth="yes"/>
      <point x="1178" y="400"/>
      <point x="1022" y="536"/>
      <point x="817" y="536" type="curve" smooth="yes"/>
      <point x="646" y="536"/>
      <point x="530" y="444"/>
      <point x="472" y="355" type="curve"/>
      <point x="472" y="957" type="line"/>
      <point x="678" y="947" type="line"/>
      <point x="746" y="632" type="line"/>
      <point x="942" y="632" type="line"/>
      <point x="932" y="1005" type="line"/>
      <point x="18" y="1005" type="line"/>
      <point x="18" y="967" type="line"/>
      <point x="136" y="933" type="line"/>
      <point x="136" y="72" type="line"/>
      <point x="18" y="38" type="line"/>
      <point x="18" y="0" type="line"/>
      <point x="636" y="0" type="line"/>
      <point x="636" y="38" type="line"/>
      <point x="472" y="72" type="line"/>
      <point x="472" y="311" type="line"/>
      <point x="517" y="346"/>
      <point x="569" y="372"/>
      <point x="651" y="372" type="curve" smooth="yes"/>
      <point x="803" y="372"/>
      <point x="842" y="283"/>
      <point x="842" y="61" type="curve" smooth="yes"/>
      <point x="842" y="-250"/>
      <point x="767" y="-420"/>
      <point x="580" y="-420" type="curve" smooth="yes"/>
      <point x="537" y="-420"/>
      <point x="499" y="-411"/>
      <point x="478" y="-405" type="curve"/>
      <point x="490" y="-477" type="line"/>
      <point x="535" y="-496"/>
      <point x="601" y="-509"/>
    </contour>
  </outline>
</glyph>
<glyph name="zhedescender-cy" format="2">
  <advance width="1738"/>
  <unicode hex="0497"/>
  <outline>
    <contour>
      <point x="0" y="0" type="line"/>
      <point x="300" y="0" type="line"/>
      <point x="516" y="0"/>
      <point x="488" y="498"/>
      <point x="656" y="498" type="curve" smooth="yes"/>
      <point x="703" y="498" type="line"/>
      <point x="703" y="72" type="line"/>
      <point x="597" y="38" type="line"/>
      <point x="597" y="0" type="line"/>
      <point x="1131" y="0" type="line"/>
      <point x="1131" y="38" type="line"/>
      <point x="1025" y="72" type="line"/>
      <point x="1025" y="498" type="line"/>
      <point x="1068" y="498" type="line" smooth="yes"/>
      <point x="1240" y="498"/>
      <point x="1212" y="0"/>
      <point x="1424" y="0" type="curve"/>
      <point x="1724" y="0" type="line"/>
      <point x="1724" y="38" type="line"/>
      <point x="1678" y="56" type="line" smooth="yes"/>
      <point x="1520" y="118"/>
      <point x="1580" y="560"/>
      <point x="1257" y="568" type="curve"/>
      <point x="1484" y="931" type="line"/>
      <point x="1643" y="967" type="line"/>
      <point x="1643" y="1005" type="line"/>
      <point x="1255" y="1005" type="line"/>
      <point x="1255" y="967" type="line"/>
      <point x="1396" y="931" type="line"/>
      <point x="1170" y="568" type="line"/>
      <point x="1025" y="568" type="line"/>
      <point x="1025" y="933" type="line"/>
      <point x="1119" y="967" type="line"/>
      <point x="1119" y="1005" type="line"/>
      <point x="609" y="1005" type="line"/>
      <point x="609" y="967" type="line"/>
      <point x="703" y="933" type="line"/>
      <point x="703" y="568" type="line"/>
      <point x="564" y="568" type="line"/>
      <point x="338" y="931" type="line"/>
      <point x="479" y="967" type="line"/>
      <point x="479" y="1005" type="line"/>
      <point x="87" y="1005" type="line"/>
      <point x="87" y="967" type="line"/>
      <point x="246" y="931" type="line"/>
      <point x="473" y="568" type="line"/>
      <point x="144" y="560"/>
      <point x="200" y="116"/>
      <point x="46" y="56" type="curve" smooth="yes"/>
      <point x="0" y="38" type="line"/>
    </contour>
    <contour>
      <point x="1450" y="64" type="line"/>
      <point x="1450" y="0" type="line"/>
      <point x="1481" y="-66"/>
      <point x="1555" y="-319"/>
      <point x="1572" y="-416" type="curve"/>
      <point x="1662" y="-416" type="line"/>
      <point x="1676" y="-310"/>
      <point x="1715" y="-67"/>
      <point x="1736" y="64" type="curve"/>
    </contour>
  </outline>
</glyph>
<glyph name="Kadescender-cy" format="2">
  <advance width="1534"/>
  <unicode hex="049A"/>
  <anchor x="1376" y="0" name="bottomright"/>
  <anchor x="734" y="1486" name="top"/>
  <outline>
    <contour>
      <point x="1280" y="-406" type="curve"/>
      <point x="1452" y="-406" type="line"/>
      <point x="1464" y="-340"/>
      <point x="1516" y="-29"/>
      <point x="1516" y="72" type="curve"/>
      <point x="1136" y="72" type="line"/>
      <point x="1136" y="0" type="line"/>
      <point x="1234" y="0" type="line"/>
      <point x="1254" y="-52"/>
      <point x="1280" y="-342"/>
    </contour>
    <component base="Ka-cy"/>
  </outline>
</glyph>
<glyph name="kadescender-cy" format="2">
  <advance width="1203"/>
  <unicode hex="049B"/>
  <anchor x="1101" y="0" name="bottomright"/>
  <anchor x="587" y="503" name="center"/>
  <anchor x="639" y="1110" name="top"/>
  <outline>
    <contour>
      <point x="915" y="64" type="line"/>
      <point x="915" y="0" type="line"/>
      <point x="946" y="-66"/>
      <point x="1020" y="-319"/>
      <point x="1037" y="-416" type="curve"/>
      <point x="1127" y="-416" type="line"/>
      <point x="1141" y="-310"/>
      <point x="1180" y="-67"/>
      <point x="1201" y="64" type="curve"/>
    </contour>
    <component base="ka-cy"/>
  </outline>
</glyph>
<glyph name="Kaverticalstroke-cy" format="2">
  <advance width="1558"/>
  <unicode hex="049C"/>
  <outline>
    <contour>
      <point x="18" y="0" type="line"/>
      <point x="690" y="0" type="line"/>
      <point x="690" y="38" type="line"/>
      <point x="536" y="72" type="line"/>
      <point x="536" y="744" type="line"/>
      <point x="669" y="744" type="line" smooth="yes"/>
      <point x="815" y="744"/>
      <point x="932" y="0"/>
      <point x="1126" y="0" type="curve" smooth="yes"/>
      <point x="1558" y="0" type="line"/>
      <point x="1558" y="38" type="line"/>
      <point x="1486" y="60" type="line" smooth="yes"/>
      <point x="1423" y="79"/>
      <point x="1326" y="347"/>
      <point x="1228" y="552" type="curve" smooth="yes"/>
      <point x="1143" y="730"/>
      <point x="1046" y="805"/>
      <point x="902" y="810" type="curve"/>
      <point x="1309" y="1412" type="line"/>
      <point x="1484" y="1450" type="line"/>
      <point x="1484" y="1486" type="line"/>
      <point x="1019" y="1486" type="line"/>
      <point x="1019" y="1450" type="line"/>
      <point x="1200" y="1412" type="line"/>
      <point x="821" y="810" type="line"/>
      <point x="536" y="810" type="line"/>
      <point x="536" y="1412" type="line"/>
      <point x="689" y="1450" type="line"/>
      <point x="689" y="1486" type="line"/>
      <point x="19" y="1486" type="line"/>
      <point x="19" y="1450" type="line"/>
      <point x="152" y="1412" type="line"/>
      <point x="152" y="72" type="line"/>
      <point x="18" y="38" type="line"/>
    </contour>
    <contour>
      <point x="648" y="362" type="line"/>
      <point x="710" y="362" type="line"/>
      <point x="710" y="1108" type="line"/>
      <point x="648" y="1108" type="line"/>
    </contour>
  </outline>
</glyph>
<glyph name="kaverticalstroke-cy" format="2">
  <advance width="1273"/>
  <unicode hex="049D"/>
  <outline>
    <contour>
      <point x="18" y="0" type="line"/>
      <point x="590" y="0" type="line"/>
      <point x="590" y="38" type="line"/>
      <point x="468" y="72" type="line"/>
      <point x="468" y="498" type="line"/>
      <point x="603" y="498" type="line" smooth="yes"/>
      <point x="776" y="498"/>
      <point x="757" y="0"/>
      <point x="969" y="0" type="curve"/>
      <point x="1273" y="0" type="line"/>
      <point x="1273" y="38" type="line"/>
      <point x="1227" y="54" type="line" smooth="yes"/>
      <point x="1069" y="109"/>
      <point x="1117" y="556"/>
      <point x="790" y="568" type="curve"/>
      <point x="1019" y="931" type="line"/>
      <point x="1187" y="967" type="line"/>
      <point x="1187" y="1005" type="line"/>
      <point x="799" y="1005" type="line"/>
      <point x="799" y="967" type="line"/>
      <point x="929" y="931" type="line"/>
      <point x="702" y="568" type="line"/>
      <point x="468" y="568" type="line"/>
      <point x="468" y="933" type="line"/>
      <point x="574" y="967" type="line"/>
      <point x="574" y="1005" type="line"/>
      <point x="21" y="1005" type="line"/>
      <point x="21" y="967" type="line"/>
      <point x="136" y="933" type="line"/>
      <point x="136" y="72" type="line"/>
      <point x="18" y="38" type="line"/>
    </contour>
    <contour>
      <point x="574" y="226" type="line"/>
      <point x="638" y="226" type="line"/>
      <point x="638" y="800" type="line"/>
      <point x="574" y="800" type="line"/>
    </contour>
  </outline>
</glyph>
<glyph name="Kabashkir-cy" format="2">
  <advance width="1828"/>
  <unicode hex="04A0"/>
  <outline>
    <contour>
      <point x="388" y="0" type="line"/>
      <point x="1060" y="0" type="line"/>
      <point x="1060" y="38" type="line"/>
      <point x="906" y="72" type="line"/>
      <point x="906" y="744" type="line"/>
      <point x="939" y="744" type="line" smooth="yes"/>
      <point x="1085" y="744"/>
      <point x="1202" y="0"/>
      <point x="1396" y="0" type="curve" smooth="yes"/>
      <point x="1828" y="0" type="line"/>
      <point x="1828" y="38" type="line"/>
      <point x="1756" y="60" type="line" smooth="yes"/>
      <point x="1693" y="79"/>
      <point x="1596" y="347"/>
      <point x="1498" y="552" type="curve" smooth="yes"/>
      <point x="1413" y="730"/>
      <point x="1316" y="805"/>
      <point x="1172" y="810" type="curve"/>
      <point x="1579" y="1412" type="line"/>
      <point x="1754" y="1450" type="line"/>
      <point x="1754" y="1486" type="line"/>
      <point x="1289" y="1486" type="line"/>
      <point x="1289" y="1450" type="line"/>
      <point x="1470" y="1412" type="line"/>
      <point x="1091" y="810" type="line"/>
      <point x="906" y="810" type="line"/>
      <point x="906" y="1412" type="line"/>
      <point x="1059" y="1450" type="line"/>
      <point x="1059" y="1486" type="line"/>
      <point x="67" y="1486" type="line"/>
      <point x="35" y="924" type="line"/>
      <point x="195" y="924" type="line"/>
      <point x="378" y="1416" type="line"/>
      <point x="522" y="1434" type="line"/>
      <point x="522" y="72" type="line"/>
      <point x="388" y="38" type="line"/>
    </contour>
  </outline>
</glyph>
<glyph name="kabashkir-cy" format="2">
  <advance width="1499"/>
  <unicode hex="04A1"/>
  <anchor x="1001" y="-166" name="mark0"/>
  <outline>
    <contour>
      <point x="296" y="0" type="line"/>
      <point x="900" y="0" type="line"/>
      <point x="900" y="38" type="line"/>
      <point x="778" y="72" type="line"/>
      <point x="778" y="496" type="line"/>
      <point x="821" y="496" type="line" smooth="yes"/>
      <point x="994" y="496"/>
      <point x="983" y="0"/>
      <point x="1195" y="0" type="curve"/>
      <point x="1499" y="0" type="line"/>
      <point x="1499" y="38" type="line"/>
      <point x="1453" y="54" type="line" smooth="yes"/>
      <point x="1295" y="109"/>
      <point x="1343" y="558"/>
      <point x="1016" y="570" type="curve"/>
      <point x="1245" y="931" type="line"/>
      <point x="1413" y="967" type="line"/>
      <point x="1413" y="1005" type="line"/>
      <point x="1025" y="1005" type="line"/>
      <point x="1025" y="967" type="line"/>
      <point x="1155" y="931" type="line"/>
      <point x="928" y="570" type="line"/>
      <point x="778" y="570" type="line"/>
      <point x="778" y="933" type="line"/>
      <point x="884" y="967" type="line"/>
      <point x="884" y="1005" type="line"/>
      <point x="30" y="1005" type="line"/>
      <point x="20" y="590" type="line"/>
      <point x="216" y="590" type="line"/>
      <point x="284" y="947" type="line"/>
      <point x="446" y="957" type="line"/>
      <point x="446" y="72" type="line"/>
      <point x="296" y="38" type="line"/>
    </contour>
  </outline>
</glyph>
<glyph name="Endescender-cy" format="2">
  <advance width="1576"/>
  <unicode hex="04A2"/>
  <anchor x="770" y="0" name="bottom"/>
  <anchor x="749" y="743" name="center"/>
  <anchor x="774" y="1486" name="top"/>
  <anchor x="12" y="1486" name="topleft"/>
  <outline>
    <contour>
      <point x="1322" y="-406" type="curve"/>
      <point x="1494" y="-406" type="line"/>
      <point x="1506" y="-340"/>
      <point x="1558" y="-29"/>
      <point x="1558" y="72" type="curve"/>
      <point x="1178" y="72" type="line"/>
      <point x="1178" y="0" type="line"/>
      <point x="1276" y="0" type="line"/>
      <point x="1296" y="-52"/>
      <point x="1322" y="-342"/>
    </contour>
    <component base="H"/>
  </outline>
</glyph>
<glyph name="endescender-cy" format="2">
  <advance width="1294"/>
  <unicode hex="04A3"/>
  <anchor x="1258" y="0" name="bottomright"/>
  <outline>
    <contour>
      <point x="1273" y="64" type="curve"/>
      <point x="987" y="64" type="line"/>
      <point x="987" y="0" type="line"/>
      <point x="1018" y="-66"/>
      <point x="1092" y="-319"/>
      <point x="1109" y="-416" type="curve"/>
      <point x="1199" y="-416" type="line"/>
      <point x="1213" y="-310"/>
      <point x="1252" y="-67"/>
    </contour>
    <component base="en-cy"/>
  </outline>
</glyph>
<glyph name="enghe-cy" format="2">
  <advance width="1556"/>
  <unicode hex="04A5"/>
  <outline>
    <contour>
      <point x="18" y="0" type="line"/>
      <point x="570" y="0" type="line"/>
      <point x="570" y="38" type="line"/>
      <point x="468" y="72" type="line"/>
      <point x="468" y="486" type="line"/>
      <point x="776" y="486" type="line"/>
      <point x="776" y="72" type="line"/>
      <point x="672" y="38" type="line"/>
      <point x="672" y="0" type="line"/>
      <point x="1260" y="0" type="line"/>
      <point x="1260" y="38" type="line"/>
      <point x="1110" y="72" type="line"/>
      <point x="1110" y="957" type="line"/>
      <point x="1272" y="947" type="line"/>
      <point x="1340" y="590" type="line"/>
      <point x="1536" y="590" type="line"/>
      <point x="1526" y="1005" type="line"/>
      <point x="658" y="1005" type="line"/>
      <point x="658" y="967" type="line"/>
      <point x="776" y="933" type="line"/>
      <point x="776" y="550" type="line"/>
      <point x="468" y="550" type="line"/>
      <point x="468" y="933" type="line"/>
      <point x="570" y="967" type="line"/>
      <point x="570" y="1005" type="line"/>
      <point x="20" y="1005" type="line"/>
      <point x="20" y="967" type="line"/>
      <point x="136" y="933" type="line"/>
      <point x="136" y="72" type="line"/>
      <point x="18" y="38" type="line"/>
    </contour>
  </outline>
</glyph>
<glyph name="Pemiddlehook-cy" format="2">
  <advance width="2254"/>
  <unicode hex="04A6"/>
  <anchor x="1025" y="0" name="bottomright"/>
  <outline>
    <contour>
      <point x="1652" y="-410" type="curve" smooth="yes"/>
      <point x="2000" y="-410"/>
      <point x="2224" y="-141"/>
      <point x="2224" y="286" type="curve" smooth="yes"/>
      <point x="2224" y="670"/>
      <point x="2043" y="860"/>
      <point x="1678" y="860" type="curve" smooth="yes"/>
      <point x="1578" y="860"/>
      <point x="1472" y="836"/>
      <point x="1399" y="797" type="curve"/>
      <point x="1400" y="738" type="line"/>
      <point x="1441" y="762"/>
      <point x="1497" y="782"/>
      <point x="1568" y="782" type="curve" smooth="yes"/>
      <point x="1738" y="782"/>
      <point x="1836" y="603"/>
      <point x="1836" y="292" type="curve" smooth="yes"/>
      <point x="1836" y="-128"/>
      <point x="1748" y="-348"/>
      <point x="1562" y="-348" type="curve" smooth="yes"/>
      <point x="1503" y="-348"/>
      <point x="1481" y="-342"/>
      <point x="1468" y="-338" type="curve"/>
      <point x="1468" y="-378" type="line"/>
      <point x="1496" y="-390"/>
      <point x="1560" y="-410"/>
    </contour>
    <component base="Pe-cy"/>
  </outline>
</glyph>
<glyph name="pemiddlehook-cy" format="2">
  <advance width="1806"/>
  <unicode hex="04A7"/>
  <anchor x="881" y="-166" name="mark0"/>
  <outline>
    <contour>
      <point x="18" y="0" type="line"/>
      <point x="583" y="0" type="line"/>
      <point x="583" y="38" type="line"/>
      <point x="481" y="72" type="line"/>
      <point x="481" y="939" type="line"/>
      <point x="750" y="939" type="line"/>
      <point x="750" y="72" type="line"/>
      <point x="648" y="38" type="line"/>
      <point x="648" y="0" type="line"/>
      <point x="1212" y="0" type="line"/>
      <point x="1212" y="38" type="line"/>
      <point x="1086" y="72" type="line"/>
      <point x="1086" y="933" type="line"/>
      <point x="1208" y="967" type="line"/>
      <point x="1208" y="1005" type="line"/>
      <point x="22" y="1005" type="line"/>
      <point x="22" y="967" type="line"/>
      <point x="144" y="933" type="line"/>
      <point x="144" y="72" type="line"/>
      <point x="18" y="38" type="line"/>
    </contour>
    <contour>
      <point x="1300" y="-509" type="curve" smooth="yes"/>
      <point x="1610" y="-509"/>
      <point x="1792" y="-327"/>
      <point x="1792" y="105" type="curve" smooth="yes"/>
      <point x="1792" y="426"/>
      <point x="1636" y="576"/>
      <point x="1431" y="576" type="curve" smooth="yes"/>
      <point x="1260" y="576"/>
      <point x="1144" y="484"/>
      <point x="1086" y="395" type="curve"/>
      <point x="1086" y="351" type="line"/>
      <point x="1131" y="386"/>
      <point x="1183" y="412"/>
      <point x="1265" y="412" type="curve" smooth="yes"/>
      <point x="1417" y="412"/>
      <point x="1456" y="309"/>
      <point x="1456" y="81" type="curve" smooth="yes"/>
      <point x="1456" y="-236"/>
      <point x="1381" y="-420"/>
      <point x="1194" y="-420" type="curve" smooth="yes"/>
      <point x="1151" y="-420"/>
      <point x="1113" y="-411"/>
      <point x="1092" y="-405" type="curve"/>
      <point x="1104" y="-477" type="line"/>
      <point x="1149" y="-496"/>
      <point x="1215" y="-509"/>
    </contour>
  </outline>
</glyph>
<glyph name="Esdescender-cy" format="2">
  <advance width="1269"/>
  <unicode hex="04AA"/>
  <anchor x="717" y="0" name="bottom"/>
  <anchor x="720" y="-166" name="mark0"/>
  <anchor x="747" y="1486" name="top"/>
  <outline>
    <contour>
      <point x="864" y="5" type="curve"/>
      <point x="582" y="1" type="line"/>
      <point x="593" y="3"/>
      <point x="640" y="-300"/>
      <point x="640" y="-410" type="curve"/>
      <point x="810" y="-410" type="line"/>
      <point x="812" y="-269"/>
      <point x="848" y="-34"/>
    </contour>
    <component base="C"/>
  </outline>
</glyph>
<glyph name="Tedescender-cy" format="2">
  <advance width="1426"/>
  <unicode hex="04AC"/>
  <anchor x="719" y="0" name="bottom"/>
  <anchor x="719" y="744" name="center"/>
  <anchor x="731" y="-166" name="mark0"/>
  <anchor x="719" y="1486" name="top"/>
  <outline>
    <contour>
      <point x="998" y="-406" type="curve"/>
      <point x="1170" y="-406" type="line"/>
      <point x="1182" y="-340"/>
      <point x="1233" y="-18"/>
      <point x="1234" y="83" type="curve"/>
      <point x="846" y="82" type="line"/>
      <point x="826" y="0" type="line"/>
      <point x="952" y="0" type="line"/>
      <point x="972" y="-52"/>
      <point x="998" y="-342"/>
    </contour>
    <component base="Te-cy"/>
  </outline>
</glyph>
<glyph name="tedescender-cy" format="2">
  <advance width="1158"/>
  <unicode hex="04AD"/>
  <anchor x="713" y="-166" name="mark0"/>
  <outline>
    <contour>
      <point x="680" y="64" type="line"/>
      <point x="680" y="0" type="line"/>
      <point x="711" y="-66"/>
      <point x="785" y="-319"/>
      <point x="802" y="-416" type="curve"/>
      <point x="892" y="-416" type="line"/>
      <point x="906" y="-310"/>
      <point x="945" y="-67"/>
      <point x="966" y="64" type="curve"/>
    </contour>
    <component base="te-cy"/>
  </outline>
</glyph>
<glyph name="ustrait-cy" format="2">
  <advance width="1115"/>
  <unicode hex="04AF"/>
  <anchor x="553" y="22" name="center"/>
  <outline>
    <contour>
      <point x="266" y="-458" type="line"/>
      <point x="868" y="-458" type="line"/>
      <point x="868" y="-420" type="line"/>
      <point x="732" y="-386" type="line"/>
      <point x="732" y="90" type="line"/>
      <point x="1017" y="921" type="line"/>
      <point x="1129" y="967" type="line"/>
      <point x="1129" y="1005" type="line"/>
      <point x="775" y="1005" type="line"/>
      <point x="775" y="966" type="line"/>
      <point x="908" y="921" type="line"/>
      <point x="754" y="426" type="line"/>
      <point x="692" y="207" type="line"/>
      <point x="633" y="426" type="line"/>
      <point x="470" y="921" type="line"/>
      <point x="576" y="967" type="line"/>
      <point x="576" y="1005" type="line"/>
      <point x="-12" y="1005" type="line"/>
      <point x="-12" y="967" type="line"/>
      <point x="80" y="921" type="line"/>
      <point x="402" y="80" type="line"/>
      <point x="402" y="-386" type="line"/>
      <point x="266" y="-420" type="line"/>
    </contour>
  </outline>
</glyph>
<glyph name="Hadescender-cy" format="2">
  <advance width="1497"/>
  <unicode hex="04B2"/>
  <anchor x="715" y="-166" name="mark0"/>
  <outline>
    <contour>
      <point x="1250" y="-406" type="curve"/>
      <point x="1422" y="-406" type="line"/>
      <point x="1434" y="-340"/>
      <point x="1486" y="-29"/>
      <point x="1486" y="72" type="curve"/>
      <point x="1106" y="72" type="line"/>
      <point x="1106" y="0" type="line"/>
      <point x="1204" y="0" type="line"/>
      <point x="1224" y="-52"/>
      <point x="1250" y="-342"/>
    </contour>
    <component base="X"/>
  </outline>
</glyph>
<glyph name="hadescender-cy" format="2">
  <advance width="1060"/>
  <unicode hex="04B3"/>
  <anchor x="640" y="-166" name="mark0"/>
  <outline>
    <contour>
      <point x="815" y="64" type="line"/>
      <point x="815" y="0" type="line"/>
      <point x="846" y="-66"/>
      <point x="920" y="-319"/>
      <point x="937" y="-416" type="curve"/>
      <point x="1027" y="-416" type="line"/>
      <point x="1041" y="-310"/>
      <point x="1080" y="-67"/>
      <point x="1101" y="64" type="curve"/>
    </contour>
    <component base="ha-cy"/>
  </outline>
</glyph>
<glyph name="tetse-cy" format="2">
  <advance width="1788"/>
  <unicode hex="04B5"/>
  <outline>
    <contour>
      <point x="1608" y="-416" type="curve"/>
      <point x="1698" y="-416" type="line"/>
      <point x="1712" y="-310"/>
      <point x="1751" y="-67"/>
      <point x="1772" y="64" type="curve"/>
      <point x="1598" y="64" type="line"/>
      <point x="1598" y="933" type="line"/>
      <point x="1724" y="967" type="line"/>
      <point x="1724" y="1005" type="line"/>
      <point x="1159" y="1005" type="line"/>
      <point x="1159" y="967" type="line"/>
      <point x="1261" y="933" type="line"/>
      <point x="1261" y="66" type="line"/>
      <point x="731" y="66" type="line"/>
      <point x="731" y="957" type="line"/>
      <point x="846" y="947" type="line"/>
      <point x="910" y="588" type="line"/>
      <point x="1106" y="588" type="line"/>
      <point x="1096" y="1005" type="line"/>
      <point x="30" y="1005" type="line"/>
      <point x="20" y="588" type="line"/>
      <point x="216" y="588" type="line"/>
      <point x="280" y="947" type="line"/>
      <point x="395" y="957" type="line"/>
      <point x="395" y="72" type="line"/>
      <point x="205" y="38" type="line"/>
      <point x="205" y="0" type="line"/>
      <point x="1486" y="0" type="line"/>
      <point x="1517" y="-66"/>
      <point x="1591" y="-319"/>
    </contour>
  </outline>
</glyph>
<glyph name="Chedescender-cy" format="2">
  <advance width="1479"/>
  <unicode hex="04B6"/>
  <anchor x="1343" y="0" name="bottomright"/>
  <anchor x="691" y="744" name="center"/>
  <anchor x="658" y="1486" name="top"/>
  <outline>
    <contour>
      <point x="1303" y="-406" type="curve"/>
      <point x="1495" y="-406" type="line"/>
      <point x="1507" y="-340"/>
      <point x="1559" y="-29"/>
      <point x="1559" y="72" type="curve"/>
      <point x="1159" y="72" type="line"/>
      <point x="1159" y="0" type="line"/>
      <point x="1257" y="0" type="line"/>
      <point x="1277" y="-52"/>
      <point x="1303" y="-342"/>
    </contour>
    <component base="Che-cy"/>
  </outline>
</glyph>
<glyph name="chedescender-cy" format="2">
  <advance width="1210"/>
  <unicode hex="04B7"/>
  <anchor x="530" y="-166" name="mark0"/>
  <anchor x="1124" y="0" name="bottomright"/>
  <anchor x="595" y="503" name="center"/>
  <anchor x="574" y="1110" name="top"/>
  <outline>
    <contour>
      <point x="1025" y="-416" type="curve"/>
      <point x="1115" y="-416" type="line"/>
      <point x="1129" y="-310"/>
      <point x="1168" y="-67"/>
      <point x="1189" y="64" type="curve"/>
      <point x="903" y="64" type="line"/>
      <point x="903" y="0" type="line"/>
      <point x="934" y="-66"/>
      <point x="1008" y="-319"/>
    </contour>
    <component base="che-cy"/>
  </outline>
</glyph>
<glyph name="cheverticalstroke-cy" format="2">
  <advance width="1248"/>
  <unicode hex="04B9"/>
  <anchor x="771" y="-166" name="mark0"/>
  <outline>
    <contour>
      <point x="780" y="438" type="curve"/>
      <point x="780" y="72" type="line"/>
      <point x="620" y="39" type="line"/>
      <point x="620" y="0" type="line"/>
      <point x="1230" y="0" type="line"/>
      <point x="1230" y="39" type="line"/>
      <point x="1112" y="72" type="line"/>
      <point x="1112" y="938" type="line"/>
      <point x="1230" y="970" type="line"/>
      <point x="1230" y="1006" type="line"/>
      <point x="694" y="1006" type="line"/>
      <point x="694" y="970" type="line"/>
      <point x="780" y="936" type="line"/>
      <point x="780" y="496" type="line"/>
      <point x="749" y="475"/>
      <point x="661" y="456"/>
      <point x="603" y="456" type="curve" smooth="yes"/>
      <point x="478" y="456"/>
      <point x="420" y="535"/>
      <point x="420" y="733" type="curve" smooth="yes"/>
      <point x="420" y="936" type="line"/>
      <point x="500" y="970" type="line"/>
      <point x="500" y="1006" type="line"/>
      <point x="2" y="1006" type="line"/>
      <point x="2" y="970" type="line"/>
      <point x="88" y="938" type="line"/>
      <point x="88" y="697" type="line" smooth="yes"/>
      <point x="88" y="478"/>
      <point x="225" y="358"/>
      <point x="471" y="358" type="curve" smooth="yes"/>
      <point x="603" y="358"/>
      <point x="737" y="394"/>
    </contour>
    <contour>
      <point x="580" y="174" type="line"/>
      <point x="644" y="174" type="line"/>
      <point x="644" y="760" type="line"/>
      <point x="580" y="760" type="line"/>
    </contour>
  </outline>
</glyph>
<glyph name="cheabkhasian-cy" format="2">
  <advance width="1259"/>
  <unicode hex="04BD"/>
  <anchor x="777" y="0" name="bottom"/>
  <anchor x="778" y="-166" name="mark0"/>
  <anchor x="920" y="20" name="ogonek"/>
  <anchor x="819" y="1111" name="top"/>
  <outline>
    <contour>
      <point x="320" y="486" type="curve"/>
      <point x="324" y="532" type="line"/>
      <point x="248" y="532"/>
      <point x="208" y="599"/>
      <point x="208" y="668" type="curve" smooth="yes"/>
      <point x="208" y="741"/>
      <point x="230" y="824"/>
      <point x="250" y="857" type="curve"/>
      <point x="36" y="887" type="line"/>
      <point x="9" y="856"/>
      <point x="-18" y="775"/>
      <point x="-18" y="707" type="curve" smooth="yes"/>
      <point x="-18" y="574"/>
      <point x="94" y="486"/>
    </contour>
    <component base="ie-cy" xOffset="293"/>
  </outline>
</glyph>
<glyph name="Chedescenderabkhasian-cy" format="2">
  <advance width="1757"/>
  <unicode hex="04BE"/>
  <outline>
    <contour>
      <point x="956" y="-513" type="curve" smooth="yes"/>
      <point x="1092" y="-513"/>
      <point x="1176" y="-460"/>
      <point x="1176" y="-289" type="curve" smooth="yes"/>
      <point x="1176" y="-158"/>
      <point x="1088" y="-42"/>
      <point x="1043" y="1" type="curve"/>
      <point x="981" y="0" type="line"/>
      <point x="1032" y="-52"/>
      <point x="1068" y="-128"/>
      <point x="1068" y="-195" type="curve" smooth="yes"/>
      <point x="1068" y="-300"/>
      <point x="1017" y="-312"/>
      <point x="919" y="-312" type="curve" smooth="yes"/>
      <point x="904" y="-312"/>
      <point x="864" y="-308"/>
      <point x="836" y="-299" type="curve"/>
      <point x="836" y="-484" type="line"/>
      <point x="865" y="-499"/>
      <point x="918" y="-513"/>
    </contour>
    <component base="Cheabkhasian-cy"/>
  </outline>
</glyph>
<glyph name="kahook-cy" format="2">
  <advance width="1206"/>
  <unicode hex="04C4"/>
  <outline>
    <contour>
      <point x="18" y="0" type="line"/>
      <point x="590" y="0" type="line"/>
      <point x="590" y="38" type="line"/>
      <point x="468" y="72" type="line"/>
      <point x="468" y="933" type="line"/>
      <point x="574" y="967" type="line"/>
      <point x="574" y="1005" type="line"/>
      <point x="21" y="1005" type="line"/>
      <point x="21" y="967" type="line"/>
      <point x="136" y="933" type="line"/>
      <point x="136" y="72" type="line"/>
      <point x="18" y="38" type="line"/>
    </contour>
    <contour>
      <point x="694" y="-509" type="curve" smooth="yes"/>
      <point x="1006" y="-509"/>
      <point x="1188" y="-331"/>
      <point x="1188" y="103" type="curve" smooth="yes"/>
      <point x="1188" y="426"/>
      <point x="1021" y="572"/>
      <point x="789" y="572" type="curve" smooth="yes"/>
      <point x="643" y="572"/>
      <point x="534" y="514"/>
      <point x="468" y="456" type="curve"/>
      <point x="468" y="410" type="line"/>
      <point x="516" y="423"/>
      <point x="576" y="432"/>
      <point x="625" y="432" type="curve" smooth="yes"/>
      <point x="803" y="432"/>
      <point x="852" y="311"/>
      <point x="852" y="79" type="curve" smooth="yes"/>
      <point x="852" y="-240"/>
      <point x="779" y="-420"/>
      <point x="588" y="-420" type="curve" smooth="yes"/>
      <point x="545" y="-420"/>
      <point x="505" y="-411"/>
      <point x="484" y="-405" type="curve"/>
      <point x="496" y="-477" type="line"/>
      <point x="541" y="-495"/>
      <point x="607" y="-509"/>
    </contour>
    <contour>
      <point x="598" y="525" type="line"/>
      <point x="686" y="525" type="line"/>
      <point x="939" y="931" type="line"/>
      <point x="1107" y="967" type="line"/>
      <point x="1107" y="1005" type="line"/>
      <point x="719" y="1005" type="line"/>
      <point x="719" y="967" type="line"/>
      <point x="849" y="931" type="line"/>
    </contour>
  </outline>
</glyph>
<glyph name="eltail-cy" format="2">
  <advance width="1104"/>
  <unicode hex="04C6"/>
  <anchor x="600" y="-166" name="mark0"/>
  <outline>
    <contour>
      <point x="731" y="-416" type="line"/>
      <point x="821" y="-416" type="line"/>
      <point x="891" y="-316"/>
      <point x="1004" y="-140"/>
      <point x="1088" y="0" type="curve"/>
      <point x="1088" y="71" type="line"/>
      <point x="840" y="71" type="line"/>
      <point x="840" y="0" type="line"/>
    </contour>
    <component base="el-cy"/>
  </outline>
</glyph>
<glyph name="Enhook-cy" format="2">
  <advance width="1518"/>
  <unicode hex="04C7"/>
  <outline>
    <contour>
      <point x="792" y="-387" type="line"/>
      <point x="1070" y="-357"/>
      <point x="1270" y="-195"/>
      <point x="1335" y="29" type="curve" smooth="yes"/>
      <point x="1364" y="122"/>
      <point x="1366" y="298"/>
      <point x="1366" y="550" type="curve" smooth="yes"/>
      <point x="1366" y="1414" type="line"/>
      <point x="1498" y="1449" type="line"/>
      <point x="1498" y="1486" type="line"/>
      <point x="841" y="1486" type="line"/>
      <point x="841" y="1449" type="line"/>
      <point x="983" y="1414" type="line"/>
      <point x="983" y="798" type="line"/>
      <point x="535" y="798" type="line"/>
      <point x="535" y="1414" type="line"/>
      <point x="678" y="1449" type="line"/>
      <point x="678" y="1486" type="line"/>
      <point x="19" y="1486" type="line"/>
      <point x="19" y="1449" type="line"/>
      <point x="152" y="1414" type="line"/>
      <point x="152" y="72" type="line"/>
      <point x="18" y="37" type="line"/>
      <point x="18" y="0" type="line"/>
      <point x="679" y="0" type="line"/>
      <point x="679" y="37" type="line"/>
      <point x="535" y="72" type="line"/>
      <point x="535" y="732" type="line"/>
      <point x="983" y="732" type="line"/>
      <point x="983" y="318" type="line" smooth="yes"/>
      <point x="983" y="107"/>
      <point x="968" y="-19"/>
      <point x="941" y="-99" type="curve" smooth="yes"/>
      <point x="893" y="-242"/>
      <point x="859" y="-286"/>
      <point x="760" y="-330" type="curve"/>
    </contour>
  </outline>
</glyph>
<glyph name="Entail-cy" format="2">
  <advance width="1593"/>
  <unicode hex="04C9"/>
  <anchor x="1638" y="0" name="bottomright"/>
  <anchor x="749" y="743" name="center"/>
  <anchor x="774" y="1486" name="top"/>
  <anchor x="12" y="1486" name="topleft"/>
  <outline>
    <contour>
      <point x="1201" y="-410" type="curve"/>
      <point x="1403" y="-410" type="line"/>
      <point x="1425" y="-364"/>
      <point x="1524" y="-123"/>
      <point x="1575" y="0" type="curve"/>
      <point x="1575" y="72" type="line"/>
      <point x="1229" y="72" type="line"/>
      <point x="1229" y="0" type="line"/>
      <point x="1292" y="0" type="line"/>
      <point x="1280" y="-68"/>
      <point x="1222" y="-327"/>
    </contour>
    <component base="En-cy"/>
  </outline>
</glyph>
<glyph name="entail-cy" format="2">
  <advance width="1244"/>
  <unicode hex="04CA"/>
  <anchor x="885" y="-166" name="mark0"/>
  <anchor x="1258" y="0" name="bottomright"/>
  <outline>
    <contour>
      <point x="871" y="-416" type="line"/>
      <point x="980" y="0" type="line"/>
      <point x="980" y="71" type="line"/>
      <point x="1228" y="71" type="line"/>
      <point x="1228" y="0" type="line"/>
      <point x="1144" y="-140"/>
      <point x="1031" y="-316"/>
      <point x="961" y="-416" type="curve"/>
    </contour>
    <component base="en-cy"/>
  </outline>
</glyph>
<glyph name="Chekhakassian-cy" format="2">
  <advance width="1451"/>
  <unicode hex="04CB"/>
  <anchor x="1343" y="0" name="bottomright"/>
  <anchor x="691" y="744" name="center"/>
  <anchor x="658" y="1486" name="top"/>
  <outline>
    <contour>
      <point x="726" y="-410" type="curve"/>
      <point x="914" y="-410" type="line"/>
      <point x="927" y="-324"/>
      <point x="987" y="-36"/>
      <point x="1019" y="0" type="curve"/>
      <point x="1202" y="0" type="line"/>
      <point x="1202" y="71" type="line"/>
      <point x="745" y="71" type="line"/>
      <point x="730" y="-56"/>
      <point x="729" y="-352"/>
    </contour>
    <component base="Che-cy"/>
  </outline>
</glyph>
<glyph name="Emtail-cy" format="2">
  <advance width="1952"/>
  <unicode hex="04CD"/>
  <anchor x="867" y="0" name="bottom"/>
  <anchor x="914" y="-166" name="mark0"/>
  <anchor x="936" y="1486" name="top"/>
  <outline>
    <contour>
      <point x="1586" y="-410" type="curve"/>
      <point x="1788" y="-410" type="line"/>
      <point x="1810" y="-364"/>
      <point x="1909" y="-123"/>
      <point x="1960" y="0" type="curve"/>
      <point x="1960" y="72" type="line"/>
      <point x="1580" y="72" type="line"/>
      <point x="1580" y="0" type="line"/>
      <point x="1677" y="0" type="line"/>
      <point x="1665" y="-68"/>
      <point x="1607" y="-327"/>
    </contour>
    <component base="Em-cy"/>
  </outline>
</glyph>
<glyph name="dzeabkhasian-cy" format="2">
  <advance width="1013"/>
  <unicode hex="04E1"/>
  <outline>
    <contour>
      <point x="396" y="-522" type="curve" smooth="yes"/>
      <point x="677" y="-522"/>
      <point x="967" y="-378"/>
      <point x="967" y="-46" type="curve" smooth="yes"/>
      <point x="967" y="228"/>
      <point x="751" y="315"/>
      <point x="556" y="315" type="curve" smooth="yes"/>
      <point x="508" y="315"/>
      <point x="473" y="309"/>
      <point x="450" y="303" type="curve"/>
      <point x="545" y="279" type="line"/>
      <point x="953" y="911" type="line"/>
      <point x="931" y="1005" type="line"/>
      <point x="36" y="1005" type="line"/>
      <point x="42" y="647" type="line"/>
      <point x="250" y="647" type="line"/>
      <point x="282" y="935" type="line"/>
      <point x="648" y="941" type="line"/>
      <point x="261" y="335" type="line"/>
      <point x="297" y="211" type="line"/>
      <point x="342" y="225"/>
      <point x="412" y="236"/>
      <point x="444" y="236" type="curve" smooth="yes"/>
      <point x="530" y="236"/>
      <point x="609" y="138"/>
      <point x="609" y="-74" type="curve" smooth="yes"/>
      <point x="609" y="-319"/>
      <point x="510" y="-458"/>
      <point x="397" y="-458" type="curve" smooth="yes"/>
      <point x="338" y="-458"/>
      <point x="285" y="-421"/>
      <point x="265" y="-377" type="curve"/>
      <point x="228" y="-115" type="line"/>
      <point x="20" y="-115" type="line"/>
      <point x="35" y="-449" type="line"/>
      <point x="95" y="-484"/>
      <point x="248" y="-522"/>
    </contour>
  </outline>
</glyph>
<glyph name="gedescender-cy" format="2">
  <advance width="921"/>
  <unicode hex="04F7"/>
  <anchor x="469" y="0" name="bottomright"/>
  <anchor x="485" y="556" name="center"/>
  <anchor x="472" y="1110" name="top"/>
  <outline>
    <contour>
      <point x="542" y="-416" type="curve"/>
      <point x="632" y="-416" type="line"/>
      <point x="646" y="-310"/>
      <point x="685" y="-67"/>
      <point x="706" y="64" type="curve"/>
      <point x="420" y="64" type="line"/>
      <point x="420" y="0" type="line"/>
      <point x="451" y="-66"/>
      <point x="525" y="-319"/>
    </contour>
    <component base="ge-cy"/>
  </outline>
</glyph>
<glyph name="Gestrokehook-cy" format="2">
  <advance width="1161"/>
  <unicode hex="04FA"/>
  <anchor x="379" y="0" name="bottomright"/>
  <anchor x="623" y="744" name="center"/>
  <anchor x="607" y="1486" name="top"/>
  <outline>
    <contour>
      <point x="640" y="-513" type="curve" smooth="yes"/>
      <point x="770" y="-513"/>
      <point x="850" y="-460"/>
      <point x="850" y="-289" type="curve" smooth="yes"/>
      <point x="850" y="-135"/>
      <point x="788" y="1"/>
      <point x="757" y="51" type="curve"/>
      <point x="552" y="71" type="line"/>
      <point x="552" y="0" type="line"/>
      <point x="715" y="0" type="line"/>
      <point x="737" y="-52"/>
      <point x="752" y="-128"/>
      <point x="752" y="-195" type="curve" smooth="yes"/>
      <point x="752" y="-300"/>
      <point x="702" y="-312"/>
      <point x="603" y="-312" type="curve" smooth="yes"/>
      <point x="586" y="-312"/>
      <point x="541" y="-308"/>
      <point x="510" y="-299" type="curve"/>
      <point x="510" y="-484" type="line"/>
      <point x="541" y="-499"/>
      <point x="599" y="-513"/>
    </contour>
    <component base="Ghestroke-cy" xOffset="17"/>
  </outline>
</glyph>
<glyph name="gestrokehook-cy" format="2">
  <advance width="941"/>
  <unicode hex="04FB"/>
  <anchor x="499" y="0" name="bottomright"/>
  <anchor x="515" y="556" name="center"/>
  <anchor x="502" y="1110" name="top"/>
  <outline>
    <contour>
      <point x="583" y="-479" type="curve" smooth="yes"/>
      <point x="719" y="-479"/>
      <point x="821" y="-396"/>
      <point x="821" y="-253" type="curve" smooth="yes"/>
      <point x="821" y="-128"/>
      <point x="744" y="-16"/>
      <point x="690" y="38" type="curve"/>
      <point x="633" y="0" type="line"/>
      <point x="653" y="-36"/>
      <point x="668" y="-101"/>
      <point x="668" y="-151" type="curve" smooth="yes"/>
      <point x="668" y="-255"/>
      <point x="599" y="-278"/>
      <point x="518" y="-278" type="curve" smooth="yes"/>
      <point x="496" y="-278"/>
      <point x="461" y="-275"/>
      <point x="446" y="-270" type="curve"/>
      <point x="446" y="-454" type="line"/>
      <point x="484" y="-470"/>
      <point x="533" y="-479"/>
    </contour>
    <component base="ghestroke-cy" xOffset="30"/>
  </outline>
</glyph>
<glyph name="Komidje-cy" format="2">
  <advance width="2128"/>
  <unicode hex="0502"/>
  <outline>
    <contour>
      <point x="570" y="-16" type="curve" smooth="yes"/>
      <point x="669" y="-16"/>
      <point x="788" y="-2"/>
      <point x="901" y="83" type="curve"/>
      <point x="988" y="13"/>
      <point x="1125" y="-16"/>
      <point x="1325" y="-16" type="curve" smooth="yes"/>
      <point x="1727" y="-16"/>
      <point x="1871" y="100"/>
      <point x="1871" y="422" type="curve" smooth="yes"/>
      <point x="1871" y="766" type="line"/>
      <point x="2024" y="804" type="line"/>
      <point x="2024" y="840" type="line"/>
      <point x="1355" y="840" type="line"/>
      <point x="1355" y="804" type="line"/>
      <point x="1488" y="766" type="line"/>
      <point x="1488" y="422" type="line" smooth="yes"/>
      <point x="1488" y="146"/>
      <point x="1445" y="46"/>
      <point x="1325" y="46" type="curve" smooth="yes"/>
      <point x="1205" y="46"/>
      <point x="1162" y="146"/>
      <point x="1162" y="422" type="curve" smooth="yes"/>
      <point x="1162" y="1414" type="line"/>
      <point x="1295" y="1449" type="line"/>
      <point x="1295" y="1486" type="line"/>
      <point x="625" y="1486" type="line"/>
      <point x="625" y="1449" type="line"/>
      <point x="778" y="1414" type="line"/>
      <point x="778" y="881" type="line"/>
      <point x="723" y="888"/>
      <point x="646" y="895"/>
      <point x="599" y="895" type="curve" smooth="yes"/>
      <point x="214" y="895"/>
      <point x="30" y="719"/>
      <point x="30" y="438" type="curve" smooth="yes"/>
      <point x="30" y="151"/>
      <point x="267" y="-16"/>
    </contour>
    <contour>
      <point x="679" y="53" type="curve" smooth="yes"/>
      <point x="482" y="53"/>
      <point x="416" y="235"/>
      <point x="416" y="450" type="curve" smooth="yes"/>
      <point x="416" y="709"/>
      <point x="508" y="829"/>
      <point x="701" y="829" type="curve" smooth="yes"/>
      <point x="731" y="829"/>
      <point x="757" y="825"/>
      <point x="778" y="820" type="curve"/>
      <point x="778" y="422" type="line" smooth="yes"/>
      <point x="778" y="285"/>
      <point x="805" y="185"/>
      <point x="867" y="115" type="curve"/>
      <point x="820" y="77"/>
      <point x="751" y="53"/>
    </contour>
  </outline>
</glyph>
<glyph name="komidje-cy" format="2">
  <advance width="1731"/>
  <unicode hex="0503"/>
  <outline>
    <contour>
      <point x="430" y="-23" type="curve" smooth="yes"/>
      <point x="579" y="-23"/>
      <point x="704" y="72"/>
      <point x="742" y="172" type="curve"/>
      <point x="729" y="172" type="line"/>
      <point x="781" y="36"/>
      <point x="941" y="-17"/>
      <point x="1166" y="-17" type="curve" smooth="yes"/>
      <point x="1451" y="-17"/>
      <point x="1631" y="67"/>
      <point x="1631" y="295" type="curve" smooth="yes"/>
      <point x="1631" y="526" type="line"/>
      <point x="1733" y="560" type="line"/>
      <point x="1733" y="598" type="line"/>
      <point x="1199" y="598" type="line"/>
      <point x="1199" y="560" type="line"/>
      <point x="1301" y="526" type="line"/>
      <point x="1301" y="299" type="line" smooth="yes"/>
      <point x="1301" y="115"/>
      <point x="1263" y="47"/>
      <point x="1169" y="47" type="curve" smooth="yes"/>
      <point x="1075" y="47"/>
      <point x="1041" y="115"/>
      <point x="1041" y="299" type="curve" smooth="yes"/>
      <point x="1041" y="1608" type="line"/>
      <point x="1018" y="1634" type="line"/>
      <point x="958" y="1634" type="line"/>
      <point x="566" y="1539" type="line"/>
      <point x="566" y="1510" type="line"/>
      <point x="707" y="1483" type="line"/>
      <point x="707" y="997" type="line"/>
      <point x="677" y="1022"/>
      <point x="605" y="1042"/>
      <point x="530" y="1042" type="curve" smooth="yes"/>
      <point x="281" y="1042"/>
      <point x="40" y="879"/>
      <point x="40" y="496" type="curve" smooth="yes"/>
      <point x="40" y="141"/>
      <point x="235" y="-23"/>
    </contour>
    <contour>
      <point x="583" y="114" type="curve" smooth="yes"/>
      <point x="493" y="114"/>
      <point x="413" y="197"/>
      <point x="413" y="548" type="curve" smooth="yes"/>
      <point x="413" y="817"/>
      <point x="454" y="979"/>
      <point x="588" y="979" type="curve" smooth="yes"/>
      <point x="640" y="979"/>
      <point x="684" y="953"/>
      <point x="707" y="903" type="curve"/>
      <point x="707" y="325" type="line" smooth="yes"/>
      <point x="707" y="273"/>
      <point x="711" y="229"/>
      <point x="721" y="197" type="curve"/>
      <point x="702" y="160"/>
      <point x="645" y="114"/>
    </contour>
  </outline>
</glyph>
<glyph name="komizje-cy" format="2">
  <advance width="1551"/>
  <unicode hex="0505"/>
  <outline>
    <contour>
      <point x="965" y="-17" type="curve" smooth="yes"/>
      <point x="1264" y="-17"/>
      <point x="1451" y="71"/>
      <point x="1451" y="299" type="curve" smooth="yes"/>
      <point x="1451" y="526" type="line"/>
      <point x="1553" y="560" type="line"/>
      <point x="1553" y="598" type="line"/>
      <point x="1019" y="598" type="line"/>
      <point x="1019" y="560" type="line"/>
      <point x="1121" y="526" type="line"/>
      <point x="1121" y="301" type="line" smooth="yes"/>
      <point x="1121" y="131"/>
      <point x="1088" y="47"/>
      <point x="985" y="47" type="curve" smooth="yes"/>
      <point x="864" y="47"/>
      <point x="846" y="156"/>
      <point x="840" y="274" type="curve" smooth="yes"/>
      <point x="829" y="482"/>
      <point x="654" y="541"/>
      <point x="470" y="541" type="curve" smooth="yes"/>
      <point x="431" y="541"/>
      <point x="390" y="538"/>
      <point x="354" y="531" type="curve"/>
      <point x="459" y="505" type="line"/>
      <point x="673" y="554"/>
      <point x="813" y="634"/>
      <point x="813" y="797" type="curve" smooth="yes"/>
      <point x="813" y="960"/>
      <point x="671" y="1039"/>
      <point x="410" y="1039" type="curve" smooth="yes"/>
      <point x="188" y="1039"/>
      <point x="147" y="979"/>
      <point x="34" y="979" type="curve"/>
      <point x="40" y="689" type="line"/>
      <point x="230" y="689" type="line"/>
      <point x="257" y="916" type="line"/>
      <point x="267" y="945"/>
      <point x="314" y="975"/>
      <point x="359" y="975" type="curve" smooth="yes"/>
      <point x="416" y="975"/>
      <point x="492" y="926"/>
      <point x="492" y="777" type="curve" smooth="yes"/>
      <point x="492" y="646"/>
      <point x="429" y="571"/>
      <point x="376" y="569" type="curve" smooth="yes"/>
      <point x="287" y="565" type="line"/>
      <point x="284" y="451" type="line"/>
      <point x="311" y="457"/>
      <point x="373" y="462"/>
      <point x="389" y="462" type="curve" smooth="yes"/>
      <point x="450" y="462"/>
      <point x="492" y="375"/>
      <point x="502" y="264" type="curve" smooth="yes"/>
      <point x="518" y="79"/>
      <point x="662" y="-17"/>
    </contour>
  </outline>
</glyph>
<glyph name="Komidzje-cy" format="2">
  <advance width="1370"/>
  <unicode hex="0506"/>
  <outline>
    <contour>
      <point x="1123" y="-406" type="curve"/>
      <point x="1295" y="-406" type="line"/>
      <point x="1307" y="-340"/>
      <point x="1359" y="-29"/>
      <point x="1359" y="72" type="curve"/>
      <point x="937" y="72" type="line"/>
      <point x="1102" y="140"/>
      <point x="1203" y="254"/>
      <point x="1203" y="405" type="curve" smooth="yes"/>
      <point x="1203" y="631"/>
      <point x="1014" y="769"/>
      <point x="689" y="784" type="curve"/>
      <point x="894" y="815"/>
      <point x="1128" y="934"/>
      <point x="1128" y="1165" type="curve" smooth="yes"/>
      <point x="1128" y="1377"/>
      <point x="918" y="1502"/>
      <point x="566" y="1502" type="curve" smooth="yes"/>
      <point x="353" y="1502"/>
      <point x="294" y="1446"/>
      <point x="84" y="1441" type="curve"/>
      <point x="70" y="1053" type="line"/>
      <point x="298" y="1053" type="line"/>
      <point x="360" y="1385" type="line"/>
      <point x="376" y="1413"/>
      <point x="418" y="1444"/>
      <point x="502" y="1444" type="curve" smooth="yes"/>
      <point x="628" y="1444"/>
      <point x="709" y="1358"/>
      <point x="709" y="1149" type="curve" smooth="yes"/>
      <point x="709" y="898"/>
      <point x="596" y="806"/>
      <point x="472" y="806" type="curve"/>
      <point x="360" y="820" type="line"/>
      <point x="360" y="719" type="line"/>
      <point x="492" y="743" type="line"/>
      <point x="695" y="743"/>
      <point x="767" y="606"/>
      <point x="767" y="397" type="curve" smooth="yes"/>
      <point x="767" y="202"/>
      <point x="688" y="58"/>
      <point x="518" y="58" type="curve"/>
      <point x="517" y="0" type="line"/>
      <point x="1077" y="0" type="line"/>
      <point x="1097" y="-52"/>
      <point x="1123" y="-342"/>
    </contour>
  </outline>
</glyph>
<glyph name="komidzje-cy" format="2">
  <advance width="989"/>
  <unicode hex="0507"/>
  <outline>
    <contour>
      <point x="345" y="8" type="line"/>
      <point x="702" y="8"/>
      <point x="855" y="124"/>
      <point x="855" y="292" type="curve" smooth="yes"/>
      <point x="855" y="491"/>
      <point x="652" y="541"/>
      <point x="468" y="541" type="curve" smooth="yes"/>
      <point x="429" y="541"/>
      <point x="388" y="538"/>
      <point x="352" y="531" type="curve"/>
      <point x="459" y="505" type="line"/>
      <point x="673" y="554"/>
      <point x="813" y="634"/>
      <point x="813" y="797" type="curve" smooth="yes"/>
      <point x="813" y="960"/>
      <point x="671" y="1039"/>
      <point x="410" y="1039" type="curve" smooth="yes"/>
      <point x="188" y="1039"/>
      <point x="147" y="979"/>
      <point x="34" y="979" type="curve"/>
      <point x="40" y="689" type="line"/>
      <point x="230" y="689" type="line"/>
      <point x="257" y="916" type="line"/>
      <point x="267" y="945"/>
      <point x="314" y="975"/>
      <point x="359" y="975" type="curve" smooth="yes"/>
      <point x="416" y="975"/>
      <point x="492" y="926"/>
      <point x="492" y="777" type="curve" smooth="yes"/>
      <point x="492" y="646"/>
      <point x="429" y="571"/>
      <point x="376" y="569" type="curve" smooth="yes"/>
      <point x="287" y="565" type="line"/>
      <point x="284" y="451" type="line"/>
      <point x="311" y="457"/>
      <point x="371" y="462"/>
      <point x="387" y="462" type="curve" smooth="yes"/>
      <point x="448" y="462"/>
      <point x="505" y="401"/>
      <point x="505" y="260" type="curve" smooth="yes"/>
      <point x="505" y="88"/>
      <point x="410" y="66"/>
      <point x="345" y="64" type="curve"/>
    </contour>
    <contour>
      <point x="801" y="-416" type="curve"/>
      <point x="891" y="-416" type="line"/>
      <point x="905" y="-310"/>
      <point x="944" y="-69"/>
      <point x="965" y="62" type="curve"/>
      <point x="345" y="62" type="line"/>
      <point x="345" y="0" type="line"/>
      <point x="679" y="0" type="line"/>
      <point x="710" y="-66"/>
      <point x="784" y="-319"/>
    </contour>
  </outline>
</glyph>
<glyph name="komilje-cy" format="2">
  <advance width="1652"/>
  <unicode hex="0509"/>
  <anchor x="451" y="-150" name="mark0"/>
  <outline>
    <contour>
      <point x="104" y="-22" type="curve" smooth="yes"/>
      <point x="192" y="-22"/>
      <point x="255" y="30"/>
      <point x="294" y="108" type="curve" smooth="yes"/>
      <point x="338" y="197"/>
      <point x="391" y="397"/>
      <point x="391" y="843" type="curve" smooth="yes"/>
      <point x="391" y="937" type="line"/>
      <point x="626" y="937" type="line"/>
      <point x="626" y="295" type="line" smooth="yes"/>
      <point x="626" y="67"/>
      <point x="806" y="-17"/>
      <point x="1089" y="-17" type="curve" smooth="yes"/>
      <point x="1374" y="-17"/>
      <point x="1552" y="67"/>
      <point x="1552" y="295" type="curve" smooth="yes"/>
      <point x="1552" y="526" type="line"/>
      <point x="1654" y="560" type="line"/>
      <point x="1654" y="598" type="line"/>
      <point x="1120" y="598" type="line"/>
      <point x="1120" y="560" type="line"/>
      <point x="1222" y="526" type="line"/>
      <point x="1222" y="299" type="line" smooth="yes"/>
      <point x="1222" y="115"/>
      <point x="1184" y="47"/>
      <point x="1090" y="47" type="curve" smooth="yes"/>
      <point x="996" y="47"/>
      <point x="962" y="115"/>
      <point x="962" y="299" type="curve" smooth="yes"/>
      <point x="962" y="933" type="line"/>
      <point x="1081" y="967" type="line"/>
      <point x="1081" y="1005" type="line"/>
      <point x="155" y="1005" type="line"/>
      <point x="155" y="967" type="line"/>
      <point x="319" y="933" type="line"/>
      <point x="319" y="401"/>
      <point x="257" y="252"/>
      <point x="125" y="252" type="curve" smooth="yes"/>
      <point x="80" y="252"/>
      <point x="41" y="257"/>
      <point x="14" y="264" type="curve"/>
      <point x="30" y="-10" type="line"/>
      <point x="50" y="-16"/>
      <point x="74" y="-22"/>
    </contour>
  </outline>
</glyph>
<glyph name="Kominje-cy" format="2">
  <advance width="2268"/>
  <unicode hex="050A"/>
  <outline>
    <contour>
      <point x="1529" y="-16" type="curve" smooth="yes"/>
      <point x="1931" y="-16"/>
      <point x="2075" y="100"/>
      <point x="2075" y="422" type="curve" smooth="yes"/>
      <point x="2075" y="766" type="line"/>
      <point x="2228" y="804" type="line"/>
      <point x="2228" y="840" type="line"/>
      <point x="1559" y="840" type="line"/>
      <point x="1559" y="804" type="line"/>
      <point x="1692" y="766" type="line"/>
      <point x="1692" y="422" type="line" smooth="yes"/>
      <point x="1692" y="146"/>
      <point x="1649" y="46"/>
      <point x="1529" y="46" type="curve" smooth="yes"/>
      <point x="1409" y="46"/>
      <point x="1366" y="146"/>
      <point x="1366" y="422" type="curve" smooth="yes"/>
      <point x="1366" y="1412" type="line"/>
      <point x="1498" y="1450" type="line"/>
      <point x="1498" y="1486" type="line"/>
      <point x="841" y="1486" type="line"/>
      <point x="841" y="1450" type="line"/>
      <point x="983" y="1412" type="line"/>
      <point x="983" y="798" type="line"/>
      <point x="535" y="798" type="line"/>
      <point x="535" y="1412" type="line"/>
      <point x="678" y="1450" type="line"/>
      <point x="678" y="1486" type="line"/>
      <point x="19" y="1486" type="line"/>
      <point x="19" y="1450" type="line"/>
      <point x="152" y="1412" type="line"/>
      <point x="152" y="72" type="line"/>
      <point x="18" y="38" type="line"/>
      <point x="18" y="0" type="line"/>
      <point x="679" y="0" type="line"/>
      <point x="679" y="38" type="line"/>
      <point x="535" y="72" type="line"/>
      <point x="535" y="732" type="line"/>
      <point x="983" y="732" type="line"/>
      <point x="983" y="422" type="line" smooth="yes"/>
      <point x="986" y="100"/>
      <point x="1131" y="-16"/>
    </contour>
  </outline>
</glyph>
<glyph name="komisje-cy" format="2">
  <advance width="1102"/>
  <unicode hex="050D"/>
  <anchor x="507" y="-166" name="mark0"/>
  <outline>
    <contour>
      <point x="543" y="-19" type="curve" smooth="yes"/>
      <point x="843" y="-19"/>
      <point x="1006" y="93"/>
      <point x="1006" y="328" type="curve" smooth="yes"/>
      <point x="1006" y="526" type="line"/>
      <point x="1108" y="560" type="line"/>
      <point x="1108" y="598" type="line"/>
      <point x="582" y="598" type="line"/>
      <point x="582" y="560" type="line"/>
      <point x="684" y="526" type="line"/>
      <point x="684" y="330" type="line" smooth="yes"/>
      <point x="684" y="150"/>
      <point x="639" y="46"/>
      <point x="558" y="46" type="curve" smooth="yes"/>
      <point x="459" y="46"/>
      <point x="384" y="206"/>
      <point x="385" y="532" type="curve" smooth="yes"/>
      <point x="386" y="824"/>
      <point x="450" y="974"/>
      <point x="574" y="974" type="curve" smooth="yes"/>
      <point x="644" y="974"/>
      <point x="689" y="925"/>
      <point x="695" y="900" type="curve"/>
      <point x="729" y="704" type="line"/>
      <point x="925" y="704" type="line"/>
      <point x="935" y="984" type="line"/>
      <point x="886" y="988"/>
      <point x="779" y="1039"/>
      <point x="592" y="1039" type="curve" smooth="yes"/>
      <point x="192" y="1039"/>
      <point x="30" y="815"/>
      <point x="31" y="484" type="curve" smooth="yes"/>
      <point x="32" y="164"/>
      <point x="163" y="-19"/>
    </contour>
  </outline>
</glyph>
<glyph name="reversedze-cy" format="2">
  <advance width="910"/>
  <unicode hex="0511"/>
  <outline>
    <contour>
      <point x="503" y="-21" type="curve" smooth="yes"/>
      <point x="686" y="-21"/>
      <point x="789" y="0"/>
      <point x="866" y="35" type="curve"/>
      <point x="872" y="327" type="line"/>
      <point x="678" y="327" type="line"/>
      <point x="656" y="107" type="line"/>
      <point x="633" y="79"/>
      <point x="582" y="43"/>
      <point x="529" y="43" type="curve" smooth="yes"/>
      <point x="451" y="43"/>
      <point x="384" y="121"/>
      <point x="384" y="271" type="curve" smooth="yes"/>
      <point x="384" y="424"/>
      <point x="447" y="462"/>
      <point x="503" y="462" type="curve"/>
      <point x="603" y="466" type="line"/>
      <point x="600" y="578" type="line"/>
      <point x="573" y="572"/>
      <point x="534" y="568"/>
      <point x="517" y="569" type="curve" smooth="yes"/>
      <point x="450" y="573"/>
      <point x="389" y="647"/>
      <point x="389" y="780" type="curve" smooth="yes"/>
      <point x="389" y="927"/>
      <point x="455" y="975"/>
      <point x="512" y="975" type="curve" smooth="yes"/>
      <point x="558" y="975"/>
      <point x="608" y="944"/>
      <point x="622" y="916" type="curve"/>
      <point x="663" y="689" type="line"/>
      <point x="853" y="689" type="line"/>
      <point x="845" y="979" type="line"/>
      <point x="738" y="979"/>
      <point x="711" y="1039"/>
      <point x="515" y="1039" type="curve" smooth="yes"/>
      <point x="234" y="1039"/>
      <point x="68" y="923"/>
      <point x="68" y="756" type="curve" smooth="yes"/>
      <point x="68" y="593"/>
      <point x="214" y="510"/>
      <point x="428" y="490" type="curve"/>
      <point x="508" y="522" type="line"/>
      <point x="480" y="525"/>
      <point x="457" y="526"/>
      <point x="434" y="526" type="curve" smooth="yes"/>
      <point x="216" y="526"/>
      <point x="34" y="431"/>
      <point x="34" y="249" type="curve" smooth="yes"/>
      <point x="34" y="75"/>
      <point x="187" y="-21"/>
    </contour>
  </outline>
</glyph>
<glyph name="elhook-cy" format="2">
  <advance width="1091"/>
  <unicode hex="0513"/>
  <anchor x="451" y="-150" name="mark0"/>
  <outline>
    <contour>
      <point x="501" y="-388" type="curve" smooth="yes"/>
      <point x="748" y="-388"/>
      <point x="962" y="-241"/>
      <point x="962" y="169" type="curve" smooth="yes"/>
      <point x="962" y="933" type="line"/>
      <point x="1081" y="967" type="line"/>
      <point x="1081" y="1005" type="line"/>
      <point x="155" y="1005" type="line"/>
      <point x="155" y="967" type="line"/>
      <point x="319" y="933" type="line"/>
      <point x="319" y="401"/>
      <point x="257" y="252"/>
      <point x="125" y="252" type="curve" smooth="yes"/>
      <point x="80" y="252"/>
      <point x="41" y="257"/>
      <point x="14" y="264" type="curve"/>
      <point x="30" y="-10" type="line"/>
      <point x="50" y="-16"/>
      <point x="74" y="-22"/>
      <point x="104" y="-22" type="curve" smooth="yes"/>
      <point x="192" y="-22"/>
      <point x="255" y="30"/>
      <point x="294" y="108" type="curve" smooth="yes"/>
      <point x="338" y="197"/>
      <point x="391" y="397"/>
      <point x="391" y="843" type="curve" smooth="yes"/>
      <point x="391" y="937" type="line"/>
      <point x="626" y="937" type="line"/>
      <point x="626" y="225" type="line" smooth="yes"/>
      <point x="626" y="-139"/>
      <point x="624" y="-320"/>
      <point x="429" y="-320" type="curve" smooth="yes"/>
      <point x="400" y="-320"/>
      <point x="366" y="-316"/>
      <point x="350" y="-312" type="curve"/>
      <point x="350" y="-374" type="line"/>
      <point x="380" y="-380"/>
      <point x="458" y="-388"/>
    </contour>
  </outline>
</glyph>
<glyph name="Pedescender-cy" format="2">
  <advance width="1646"/>
  <unicode hex="0524"/>
  <anchor x="1025" y="0" name="bottomright"/>
  <outline>
    <contour>
      <point x="1372" y="-406" type="curve"/>
      <point x="1564" y="-406" type="line"/>
      <point x="1576" y="-340"/>
      <point x="1628" y="-29"/>
      <point x="1628" y="72" type="curve"/>
      <point x="1228" y="72" type="line"/>
      <point x="1228" y="0" type="line"/>
      <point x="1326" y="0" type="line"/>
      <point x="1346" y="-52"/>
      <point x="1372" y="-342"/>
    </contour>
    <component base="Pe-cy"/>
  </outline>
</glyph>
<glyph name="pedescender-cy" format="2">
  <advance width="1273"/>
  <unicode hex="0525"/>
  <anchor x="918" y="0" name="bottomright"/>
  <outline>
    <contour>
      <point x="971" y="64" type="line"/>
      <point x="971" y="0" type="line"/>
      <point x="1002" y="-66"/>
      <point x="1076" y="-319"/>
      <point x="1093" y="-416" type="curve"/>
      <point x="1183" y="-416" type="line"/>
      <point x="1197" y="-310"/>
      <point x="1236" y="-67"/>
      <point x="1257" y="64" type="curve"/>
    </contour>
    <component base="pe-cy"/>
  </outline>
</glyph>
<glyph name="Shhadescender-cy" format="2">
  <advance width="1508"/>
  <unicode hex="0526"/>
  <anchor x="39" y="1486" name="bottomright"/>
  <anchor x="691" y="742" name="center"/>
  <anchor x="724" y="0" name="top"/>
  <outline>
    <contour>
      <point x="1231" y="-406" type="curve"/>
      <point x="1423" y="-406" type="line"/>
      <point x="1435" y="-340"/>
      <point x="1487" y="-29"/>
      <point x="1487" y="72" type="curve"/>
      <point x="1087" y="72" type="line"/>
      <point x="1087" y="0" type="line"/>
      <point x="1185" y="0" type="line"/>
      <point x="1205" y="-52"/>
      <point x="1231" y="-342"/>
    </contour>
    <component base="Shha-cy"/>
  </outline>
</glyph>
<glyph name="EnLeftHook-cy" format="2">
  <advance width="1520"/>
  <unicode hex="0528"/>
  <outline>
    <contour>
      <point x="-33" y="-387" type="line"/>
      <point x="245" y="-357"/>
      <point x="445" y="-195"/>
      <point x="510" y="29" type="curve" smooth="yes"/>
      <point x="539" y="122"/>
      <point x="541" y="298"/>
      <point x="541" y="550" type="curve" smooth="yes"/>
      <point x="541" y="732" type="line"/>
      <point x="989" y="732" type="line"/>
      <point x="989" y="72" type="line"/>
      <point x="847" y="37" type="line"/>
      <point x="847" y="0" type="line"/>
      <point x="1506" y="0" type="line"/>
      <point x="1506" y="37" type="line"/>
      <point x="1372" y="72" type="line"/>
      <point x="1372" y="1414" type="line"/>
      <point x="1504" y="1449" type="line"/>
      <point x="1504" y="1486" type="line"/>
      <point x="847" y="1486" type="line"/>
      <point x="847" y="1449" type="line"/>
      <point x="989" y="1414" type="line"/>
      <point x="989" y="798" type="line"/>
      <point x="541" y="798" type="line"/>
      <point x="541" y="1414" type="line"/>
      <point x="684" y="1449" type="line"/>
      <point x="684" y="1486" type="line"/>
      <point x="25" y="1486" type="line"/>
      <point x="25" y="1449" type="line"/>
      <point x="158" y="1414" type="line"/>
      <point x="158" y="318" type="line" smooth="yes"/>
      <point x="158" y="107"/>
      <point x="143" y="-19"/>
      <point x="116" y="-99" type="curve" smooth="yes"/>
      <point x="68" y="-242"/>
      <point x="34" y="-286"/>
      <point x="-65" y="-330" type="curve"/>
    </contour>
  </outline>
</glyph>
<glyph name="enlefthook-cy" format="2">
  <advance width="1237"/>
  <unicode hex="0529"/>
  <anchor x="1249" y="0" name="bottomright"/>
  <outline>
    <contour>
      <point x="32" y="-485" type="curve" smooth="yes"/>
      <point x="244" y="-485"/>
      <point x="459" y="-320"/>
      <point x="459" y="53" type="curve" smooth="yes"/>
      <point x="459" y="486" type="line"/>
      <point x="767" y="486" type="line"/>
      <point x="767" y="72" type="line"/>
      <point x="663" y="38" type="line"/>
      <point x="663" y="0" type="line"/>
      <point x="1219" y="0" type="line"/>
      <point x="1219" y="38" type="line"/>
      <point x="1101" y="72" type="line"/>
      <point x="1101" y="933" type="line"/>
      <point x="1217" y="967" type="line"/>
      <point x="1217" y="1005" type="line"/>
      <point x="663" y="1005" type="line"/>
      <point x="663" y="967" type="line"/>
      <point x="767" y="933" type="line"/>
      <point x="767" y="550" type="line"/>
      <point x="459" y="550" type="line"/>
      <point x="459" y="933" type="line"/>
      <point x="561" y="967" type="line"/>
      <point x="561" y="1005" type="line"/>
      <point x="11" y="1005" type="line"/>
      <point x="11" y="967" type="line"/>
      <point x="127" y="933" type="line"/>
      <point x="127" y="-7" type="line" smooth="yes"/>
      <point x="127" y="-233"/>
      <point x="98" y="-331"/>
      <point x="11" y="-375" type="curve" smooth="yes"/>
      <point x="-29" y="-395"/>
      <point x="-76" y="-399"/>
      <point x="-109" y="-399" type="curve"/>
      <point x="-94" y="-469" type="line"/>
      <point x="-76" y="-476"/>
      <point x="-28" y="-485"/>
    </contour>
  </outline>
</glyph>
<glyph name="Eldescender-cy" format="2">
  <advance width="1561"/>
  <unicode hex="052E"/>
  <outline>
    <contour>
      <point x="1280" y="-406" type="curve"/>
      <point x="1472" y="-406" type="line"/>
      <point x="1484" y="-340"/>
      <point x="1536" y="-29"/>
      <point x="1536" y="72" type="curve"/>
      <point x="1136" y="72" type="line"/>
      <point x="1136" y="0" type="line"/>
      <point x="1234" y="0" type="line"/>
      <point x="1254" y="-52"/>
      <point x="1280" y="-342"/>
    </contour>
    <component base="El-cy"/>
  </outline>
</glyph>
<glyph name="eldescender-cy" format="2">
  <advance width="1150"/>
  <unicode hex="052F"/>
  <anchor x="451" y="-150" name="mark0"/>
  <outline>
    <contour>
      <point x="970" y="-416" type="curve"/>
      <point x="1060" y="-416" type="line"/>
      <point x="1074" y="-310"/>
      <point x="1113" y="-67"/>
      <point x="1134" y="64" type="curve"/>
      <point x="848" y="64" type="line"/>
      <point x="848" y="0" type="line"/>
      <point x="879" y="-66"/>
      <point x="953" y="-319"/>
    </contour>
    <component base="el-cy"/>
  </outline>
</glyph>
<glyph name="dram-arm" format="2">
  <advance width="1611"/>
  <unicode hex="058F"/>
  <outline>
    <contour>
      <point x="1331" y="384" type="line"/>
      <point x="1566" y="384" type="line"/>
      <point x="1566" y="451" type="line"/>
      <point x="1331" y="451" type="line"/>
      <point x="1331" y="623" type="line"/>
      <point x="1566" y="623" type="line"/>
      <point x="1566" y="690" type="line"/>
      <point x="1331" y="690" type="line"/>
      <point x="1331" y="976" type="line" smooth="yes"/>
      <point x="1331" y="1145"/>
      <point x="1345" y="1505"/>
      <point x="753" y="1505" type="curve" smooth="yes"/>
      <point x="354" y="1505"/>
      <point x="163" y="1341"/>
      <point x="163" y="1054" type="curve" smooth="yes"/>
      <point x="163" y="915" type="line"/>
      <point x="60" y="876" type="line"/>
      <point x="60" y="840" type="line"/>
      <point x="609" y="840" type="line"/>
      <point x="609" y="876" type="line"/>
      <point x="510" y="917" type="line"/>
      <point x="510" y="1058" type="line" smooth="yes"/>
      <point x="510" y="1276"/>
      <point x="563" y="1451"/>
      <point x="735" y="1451" type="curve" smooth="yes"/>
      <point x="955" y="1451"/>
      <point x="950" y="1168"/>
      <point x="950" y="1034" type="curve" smooth="yes"/>
      <point x="950" y="690" type="line"/>
      <point x="708" y="690" type="line"/>
      <point x="708" y="623" type="line"/>
      <point x="950" y="623" type="line"/>
      <point x="950" y="451" type="line"/>
      <point x="708" y="451" type="line"/>
      <point x="708" y="384" type="line"/>
      <point x="950" y="384" type="line"/>
      <point x="950" y="77" type="line"/>
      <point x="806" y="39" type="line"/>
      <point x="806" y="0" type="line"/>
      <point x="1464" y="0" type="line"/>
      <point x="1464" y="39" type="line"/>
      <point x="1331" y="74" type="line"/>
    </contour>
  </outline>
</glyph>
<glyph name="daggerdbl" format="2">
  <advance width="1145"/>
  <unicode hex="2021"/>
  <outline>
    <contour>
      <point x="546" y="670" type="line"/>
      <point x="190" y="749" type="line"/>
      <point x="190" y="540" type="line"/>
      <point x="546" y="619" type="line"/>
      <point x="472" y="278" type="line"/>
      <point x="538" y="-441" type="line"/>
      <point x="609" y="-441" type="line"/>
      <point x="675" y="278" type="line"/>
      <point x="601" y="619" type="line"/>
      <point x="956" y="540" type="line"/>
      <point x="956" y="749" type="line"/>
      <point x="601" y="670" type="line"/>
      <point x="661" y="972" type="line"/>
      <point x="601" y="1189" type="line"/>
      <point x="956" y="1110" type="line"/>
      <point x="956" y="1319" type="line"/>
      <point x="601" y="1240" type="line"/>
      <point x="669" y="1542" type="line"/>
      <point x="669" y="1620" type="line"/>
      <point x="478" y="1620" type="line"/>
      <point x="478" y="1542" type="line"/>
      <point x="546" y="1240" type="line"/>
      <point x="190" y="1319" type="line"/>
      <point x="190" y="1110" type="line"/>
      <point x="546" y="1189" type="line"/>
      <point x="486" y="972" type="line"/>
    </contour>
  </outline>
</glyph>
<glyph name="perthousand" format="2">
  <advance width="2877"/>
  <unicode hex="2030"/>
  <outline>
    <contour>
      <point x="626" y="0" type="line"/>
      <point x="712" y="0" type="line"/>
      <point x="1366" y="1502" type="line"/>
      <point x="1280" y="1502" type="line"/>
    </contour>
    <contour>
      <point x="473" y="624" type="curve" smooth="yes"/>
      <point x="704" y="624"/>
      <point x="895" y="780"/>
      <point x="895" y="1064" type="curve" smooth="yes"/>
      <point x="895" y="1304"/>
      <point x="793" y="1496"/>
      <point x="510" y="1496" type="curve" smooth="yes"/>
      <point x="273" y="1496"/>
      <point x="89" y="1336"/>
      <point x="89" y="1052" type="curve" smooth="yes"/>
      <point x="89" y="811"/>
      <point x="221" y="624"/>
    </contour>
    <contour>
      <point x="490" y="682" type="curve" smooth="yes"/>
      <point x="394" y="682"/>
      <point x="353" y="796"/>
      <point x="353" y="1065" type="curve" smooth="yes"/>
      <point x="353" y="1328"/>
      <point x="396" y="1440"/>
      <point x="498" y="1440" type="curve" smooth="yes"/>
      <point x="592" y="1440"/>
      <point x="632" y="1325"/>
      <point x="632" y="1056" type="curve" smooth="yes"/>
      <point x="632" y="794"/>
      <point x="590" y="682"/>
    </contour>
    <contour>
      <point x="1483" y="20" type="curve" smooth="yes"/>
      <point x="1715" y="20"/>
      <point x="1906" y="176"/>
      <point x="1906" y="460" type="curve" smooth="yes"/>
      <point x="1906" y="700"/>
      <point x="1804" y="892"/>
      <point x="1520" y="892" type="curve" smooth="yes"/>
      <point x="1283" y="892"/>
      <point x="1099" y="732"/>
      <point x="1099" y="448" type="curve" smooth="yes"/>
      <point x="1099" y="217"/>
      <point x="1231" y="20"/>
    </contour>
    <contour>
      <point x="1500" y="78" type="curve" smooth="yes"/>
      <point x="1404" y="78"/>
      <point x="1363" y="192"/>
      <point x="1363" y="461" type="curve" smooth="yes"/>
      <point x="1363" y="724"/>
      <point x="1406" y="836"/>
      <point x="1508" y="836" type="curve" smooth="yes"/>
      <point x="1602" y="836"/>
      <point x="1642" y="721"/>
      <point x="1642" y="452" type="curve" smooth="yes"/>
      <point x="1642" y="190"/>
      <point x="1600" y="78"/>
    </contour>
    <contour>
      <point x="2363" y="17" type="curve" smooth="yes"/>
      <point x="2595" y="17"/>
      <point x="2786" y="173"/>
      <point x="2786" y="457" type="curve" smooth="yes"/>
      <point x="2786" y="697"/>
      <point x="2684" y="889"/>
      <point x="2400" y="889" type="curve" smooth="yes"/>
      <point x="2163" y="889"/>
      <point x="1979" y="729"/>
      <point x="1979" y="445" type="curve" smooth="yes"/>
      <point x="1979" y="214"/>
      <point x="2111" y="17"/>
    </contour>
    <contour>
      <point x="2380" y="75" type="curve" smooth="yes"/>
      <point x="2284" y="75"/>
      <point x="2243" y="189"/>
      <point x="2243" y="458" type="curve" smooth="yes"/>
      <point x="2243" y="721"/>
      <point x="2286" y="833"/>
      <point x="2388" y="833" type="curve" smooth="yes"/>
      <point x="2482" y="833"/>
      <point x="2522" y="718"/>
      <point x="2522" y="449" type="curve" smooth="yes"/>
      <point x="2522" y="187"/>
      <point x="2480" y="75"/>
    </contour>
  </outline>
</glyph>
<glyph name="colonsign" format="2">
  <advance width="1520"/>
  <unicode hex="20A1"/>
  <outline>
    <contour>
      <point x="627" y="-312" type="line"/>
      <point x="696" y="-312" type="line"/>
      <point x="717" y="-14" type="line"/>
      <point x="771" y="-22"/>
      <point x="803" y="-22"/>
      <point x="895" y="-21" type="curve"/>
      <point x="874" y="-312" type="line"/>
      <point x="942" y="-312" type="line"/>
      <point x="964" y="-19" type="line"/>
      <point x="1193" y="-4"/>
      <point x="1225" y="54"/>
      <point x="1326" y="54" type="curve"/>
      <point x="1368" y="404" type="line"/>
      <point x="1210" y="418" type="line"/>
      <point x="1125" y="184" type="line" smooth="yes"/>
      <point x="1098" y="107"/>
      <point x="1047" y="60"/>
      <point x="971" y="43" type="curve"/>
      <point x="1063" y="1410" type="line"/>
      <point x="1106" y="1388"/>
      <point x="1133" y="1356"/>
      <point x="1141" y="1316" type="curve"/>
      <point x="1168" y="1055" type="line"/>
      <point x="1340" y="1055" type="line"/>
      <point x="1394" y="1437" type="line"/>
      <point x="1253" y="1437"/>
      <point x="1189" y="1469"/>
      <point x="1071" y="1490" type="curve"/>
      <point x="1091" y="1762" type="line"/>
      <point x="1021" y="1762" type="line"/>
      <point x="1001" y="1499" type="line"/>
      <point x="954" y="1505"/>
      <point x="920" y="1506"/>
      <point x="869" y="1506" type="curve" smooth="yes"/>
      <point x="857" y="1506"/>
      <point x="842" y="1506"/>
      <point x="827" y="1506" type="curve"/>
      <point x="844" y="1762" type="line"/>
      <point x="777" y="1762" type="line"/>
      <point x="759" y="1504" type="line"/>
      <point x="367" y="1470"/>
      <point x="122" y="1190"/>
      <point x="122" y="734" type="curve" smooth="yes"/>
      <point x="122" y="349"/>
      <point x="279" y="69"/>
      <point x="648" y="-5" type="curve"/>
    </contour>
    <contour>
      <point x="663" y="147" type="line"/>
      <point x="561" y="281"/>
      <point x="523" y="515"/>
      <point x="523" y="758" type="curve" smooth="yes"/>
      <point x="523" y="1155"/>
      <point x="600" y="1363"/>
      <point x="752" y="1426" type="curve"/>
    </contour>
    <contour>
      <point x="903" y="36" type="line"/>
      <point x="832" y="36"/>
      <point x="779" y="50"/>
      <point x="728" y="88" type="curve"/>
      <point x="820" y="1444" type="line"/>
      <point x="835" y="1446"/>
      <point x="852" y="1447"/>
      <point x="868" y="1447" type="curve" smooth="yes"/>
      <point x="915" y="1447"/>
      <point x="958" y="1442"/>
      <point x="995" y="1433" type="curve"/>
    </contour>
  </outline>
</glyph>
<glyph name="lira" format="2">
  <advance width="1494"/>
  <unicode hex="20A4"/>
  <outline>
    <contour>
      <point x="303" y="961" type="line"/>
      <point x="160" y="961" type="line"/>
      <point x="160" y="883" type="line"/>
      <point x="303" y="883" type="line"/>
      <point x="303" y="696" type="line"/>
      <point x="139" y="696" type="line"/>
      <point x="139" y="618" type="line"/>
      <point x="303" y="618" type="line"/>
      <point x="303" y="344" type="line" smooth="yes"/>
      <point x="303" y="276"/>
      <point x="297" y="253"/>
      <point x="284" y="232" type="curve"/>
      <point x="198" y="221"/>
      <point x="66" y="172"/>
      <point x="66" y="83" type="curve" smooth="yes"/>
      <point x="66" y="34"/>
      <point x="105" y="0"/>
      <point x="189" y="0" type="curve" smooth="yes"/>
      <point x="260" y="0"/>
      <point x="322" y="24"/>
      <point x="399" y="98" type="curve"/>
      <point x="496" y="98"/>
      <point x="676" y="-14"/>
      <point x="916" y="-14" type="curve" smooth="yes"/>
      <point x="1189" y="-14"/>
      <point x="1421" y="130"/>
      <point x="1421" y="363" type="curve" smooth="yes"/>
      <point x="1421" y="446"/>
      <point x="1392" y="502"/>
      <point x="1360" y="533" type="curve"/>
      <point x="1029" y="533" type="line"/>
      <point x="1074" y="474"/>
      <point x="1098" y="411"/>
      <point x="1098" y="311" type="curve" smooth="yes"/>
      <point x="1098" y="147"/>
      <point x="1033" y="44"/>
      <point x="886" y="44" type="curve" smooth="yes"/>
      <point x="749" y="44"/>
      <point x="676" y="125"/>
      <point x="507" y="191" type="curve"/>
      <point x="609" y="295"/>
      <point x="638" y="379"/>
      <point x="651" y="590" type="curve"/>
      <point x="651" y="618" type="line"/>
      <point x="956" y="618" type="line"/>
      <point x="956" y="696" type="line"/>
      <point x="651" y="696" type="line"/>
      <point x="651" y="883" type="line"/>
      <point x="977" y="883" type="line"/>
      <point x="977" y="961" type="line"/>
      <point x="651" y="961" type="line"/>
      <point x="651" y="1161" type="line" smooth="yes"/>
      <point x="651" y="1225"/>
      <point x="651" y="1447"/>
      <point x="810" y="1447" type="curve" smooth="yes"/>
      <point x="918" y="1447"/>
      <point x="1022" y="1346"/>
      <point x="1081" y="1200" type="curve"/>
      <point x="1221" y="1400" type="line"/>
      <point x="1129" y="1466"/>
      <point x="990" y="1505"/>
      <point x="853" y="1505" type="curve" smooth="yes"/>
      <point x="532" y="1505"/>
      <point x="303" y="1292"/>
      <point x="303" y="999" type="curve" smooth="yes"/>
    </contour>
  </outline>
</glyph>
<glyph name="sheqel" format="2">
  <advance width="1940"/>
  <unicode hex="20AA"/>
  <outline>
    <contour>
      <point x="203" y="1486" type="line"/>
      <point x="203" y="0" type="line"/>
      <point x="508" y="0" type="line"/>
      <point x="508" y="1421" type="line"/>
      <point x="845" y="1421" type="line" smooth="yes"/>
      <point x="992" y="1421"/>
      <point x="1024" y="1364"/>
      <point x="1024" y="1158" type="curve" smooth="yes"/>
      <point x="1024" y="302" type="line"/>
      <point x="1328" y="302" type="line"/>
      <point x="1328" y="1099" type="line" smooth="yes"/>
      <point x="1328" y="1409"/>
      <point x="1206" y="1487"/>
      <point x="947" y="1487" type="curve" smooth="yes"/>
    </contour>
    <contour>
      <point x="1734" y="0" type="line"/>
      <point x="1734" y="1487" type="line"/>
      <point x="1429" y="1487" type="line"/>
      <point x="1429" y="66" type="line"/>
      <point x="1101" y="66" type="line" smooth="yes"/>
      <point x="953" y="66"/>
      <point x="911" y="124"/>
      <point x="911" y="330" type="curve" smooth="yes"/>
      <point x="911" y="1183" type="line"/>
      <point x="607" y="1183" type="line"/>
      <point x="607" y="398" type="line" smooth="yes"/>
      <point x="607" y="93"/>
      <point x="701" y="0"/>
      <point x="1012" y="0" type="curve" smooth="yes"/>
    </contour>
  </outline>
</glyph>
<glyph name="euro" format="2">
  <advance width="1529"/>
  <unicode hex="20AC"/>
  <outline>
    <contour>
      <point x="910" y="-28" type="curve" smooth="yes"/>
      <point x="1168" y="-28"/>
      <point x="1259" y="59"/>
      <point x="1357" y="59" type="curve"/>
      <point x="1387" y="437" type="line"/>
      <point x="1232" y="445" type="line"/>
      <point x="1150" y="184" type="line" smooth="yes"/>
      <point x="1118" y="86"/>
      <point x="1039" y="29"/>
      <point x="941" y="29" type="curve" smooth="yes"/>
      <point x="788" y="29"/>
      <point x="677" y="167"/>
      <point x="651" y="577" type="curve"/>
      <point x="956" y="577" type="line"/>
      <point x="976" y="644" type="line"/>
      <point x="646" y="644" type="line"/>
      <point x="645" y="675"/>
      <point x="644" y="706"/>
      <point x="644" y="739" type="curve" smooth="yes"/>
      <point x="644" y="763"/>
      <point x="644" y="786"/>
      <point x="645" y="808" type="curve"/>
      <point x="1049" y="808" type="line"/>
      <point x="1069" y="875" type="line"/>
      <point x="648" y="875" type="line"/>
      <point x="671" y="1250"/>
      <point x="784" y="1452"/>
      <point x="974" y="1452" type="curve" smooth="yes"/>
      <point x="1067" y="1452"/>
      <point x="1126" y="1404"/>
      <point x="1134" y="1321" type="curve"/>
      <point x="1163" y="1051" type="line"/>
      <point x="1351" y="1051" type="line"/>
      <point x="1388" y="1428" type="line"/>
      <point x="1272" y="1428"/>
      <point x="1164" y="1512"/>
      <point x="936" y="1512" type="curve" smooth="yes"/>
      <point x="540" y="1512"/>
      <point x="302" y="1259"/>
      <point x="246" y="875" type="curve"/>
      <point x="80" y="875" type="line"/>
      <point x="60" y="808" type="line"/>
      <point x="238" y="808" type="line"/>
      <point x="235" y="772"/>
      <point x="233" y="735"/>
      <point x="233" y="697" type="curve"/>
      <point x="234" y="644" type="line"/>
      <point x="81" y="644" type="line"/>
      <point x="61" y="577" type="line"/>
      <point x="240" y="577" type="line"/>
      <point x="292" y="184"/>
      <point x="516" y="-28"/>
    </contour>
  </outline>
</glyph>
<glyph name="cedi" format="2">
  <advance width="1457"/>
  <unicode hex="20B5"/>
  <outline>
    <contour>
      <point x="760" y="-337" type="line"/>
      <point x="844" y="-337" type="line"/>
      <point x="855" y="-22" type="line"/>
      <point x="1131" y="-20"/>
      <point x="1184" y="54"/>
      <point x="1287" y="54" type="curve"/>
      <point x="1318" y="413" type="line"/>
      <point x="1174" y="413" type="line"/>
      <point x="1080" y="189" type="line" smooth="yes"/>
      <point x="1041" y="96"/>
      <point x="968" y="36"/>
      <point x="858" y="37" type="curve"/>
      <point x="937" y="1441" type="line"/>
      <point x="1012" y="1423"/>
      <point x="1040" y="1367"/>
      <point x="1056" y="1313" type="curve"/>
      <point x="1123" y="1055" type="line"/>
      <point x="1298" y="1055" type="line"/>
      <point x="1324" y="1437" type="line"/>
      <point x="1167" y="1437"/>
      <point x="1101" y="1485"/>
      <point x="941" y="1501" type="curve"/>
      <point x="960" y="1772" type="line"/>
      <point x="878" y="1772" type="line"/>
      <point x="864" y="1506" type="line"/>
      <point x="415" y="1511"/>
      <point x="144" y="1229"/>
      <point x="144" y="730" type="curve" smooth="yes"/>
      <point x="144" y="289"/>
      <point x="355" y="13"/>
      <point x="775" y="-20" type="curve"/>
    </contour>
    <contour>
      <point x="779" y="56" type="line"/>
      <point x="609" y="133"/>
      <point x="556" y="427"/>
      <point x="556" y="753" type="curve" smooth="yes"/>
      <point x="556" y="1233"/>
      <point x="671" y="1431"/>
      <point x="861" y="1446" type="curve"/>
    </contour>
  </outline>
</glyph>
